<?xml version="1.0" encoding="UTF-8" standalone="no"?><svg xmlns="http://www.w3.org/2000/svg" xmlns:xlink="http://www.w3.org/1999/xlink" clip-rule="evenodd" stroke-miterlimit="4.00" viewBox="0 0 1920 1080"><desc>SVG generated by Keynote</desc><defs></defs><g transform="matrix(1.00, 0.00, -0.00, -1.00, 0.0, 1080.0)"><g><clipPath id="clip-84"><path d="M 0.0 1080.0 L 1920.0 1080.0 L 1920.0 0.0 L 0.0 0.0 Z M 0.0 1080.0 "></path></clipPath><g clip-path="url(#clip-84)"><image xlink:href="../../1666277D-D3DF-4E49-BA3E-8D52C1CD64F2/assets/1FDA5CC772C925BAEF499BC77EF4DAF8.jpeg" width="1365.00" height="767.00" transform="matrix(1.41, 0.00, -0.00, -1.41, 0.0, 1080.0)"></image></g></g><text xml:space="preserve" font-family="Menlo-Regular" font-size="112.0" fill="#45A6DE" transform="matrix(1.00, 0.00, -0.00, -1.00, 623.0, 876.0)">t</text><text xml:space="preserve" font-family="Menlo-Regular" font-size="112.0" fill="#45A6DE" transform="matrix(1.00, 0.00, -0.00, -1.00, 690.4, 876.0)">r</text><text xml:space="preserve" font-family="Menlo-Regular" font-size="112.0" fill="#45A6DE" transform="matrix(1.00, 0.00, -0.00, -1.00, 757.9, 876.0)">a</text><text xml:space="preserve" font-family="Menlo-Regular" font-size="112.0" fill="#45A6DE" transform="matrix(1.00, 0.00, -0.00, -1.00, 825.3, 876.0)">v</text><text xml:space="preserve" font-family="Menlo-Regular" font-size="112.0" fill="#45A6DE" transform="matrix(1.00, 0.00, -0.00, -1.00, 892.8, 876.0)">i</text><text xml:space="preserve" font-family="Menlo-Regular" font-size="112.0" fill="#45A6DE" transform="matrix(1.00, 0.00, -0.00, -1.00, 960.2, 876.0)">s</text><text xml:space="preserve" font-family="Menlo-Regular" font-size="112.0" fill="#45A6DE" transform="matrix(1.00, 0.00, -0.00, -1.00, 1027.6, 876.0)">.</text><text xml:space="preserve" font-family="Menlo-Regular" font-size="112.0" fill="#45A6DE" transform="matrix(1.00, 0.00, -0.00, -1.00, 1095.1, 876.0)">y</text><text xml:space="preserve" font-family="Menlo-Regular" font-size="112.0" fill="#45A6DE" transform="matrix(1.00, 0.00, -0.00, -1.00, 1162.5, 876.0)">m</text><text xml:space="preserve" font-family="Menlo-Regular" font-size="112.0" fill="#45A6DE" transform="matrix(1.00, 0.00, -0.00, -1.00, 1230.0, 876.0)">l</text><text xml:space="preserve" font-family="Monaco" font-size="52.0" fill="#000000" transform="matrix(1.00, 0.00, -0.00, -1.00, 526.0, 746.0)">l</text><text xml:space="preserve" font-family="Monaco" font-size="52.0" fill="#000000" transform="matrix(1.00, 0.00, -0.00, -1.00, 557.2, 746.0)">a</text><text xml:space="preserve" font-family="Monaco" font-size="52.0" fill="#000000" transform="matrix(1.00, 0.00, -0.00, -1.00, 588.4, 746.0)">n</text><text xml:space="preserve" font-family="Monaco" font-size="52.0" fill="#000000" transform="matrix(1.00, 0.00, -0.00, -1.00, 619.6, 746.0)">g</text><text xml:space="preserve" font-family="Monaco" font-size="52.0" fill="#000000" transform="matrix(1.00, 0.00, -0.00, -1.00, 650.8, 746.0)">u</text><text xml:space="preserve" font-family="Monaco" font-size="52.0" fill="#000000" transform="matrix(1.00, 0.00, -0.00, -1.00, 682.1, 746.0)">a</text><text xml:space="preserve" font-family="Monaco" font-size="52.0" fill="#000000" transform="matrix(1.00, 0.00, -0.00, -1.00, 713.3, 746.0)">g</text><text xml:space="preserve" font-family="Monaco" font-size="52.0" fill="#000000" transform="matrix(1.00, 0.00, -0.00, -1.00, 744.5, 746.0)">e</text><text xml:space="preserve" font-family="Monaco" font-size="52.0" fill="#797979" transform="matrix(1.00, 0.00, -0.00, -1.00, 775.6, 746.0)">:</text><text xml:space="preserve" font-family="Monaco" font-size="52.0" fill="#000000" transform="matrix(1.00, 0.00, -0.00, -1.00, 806.8, 746.0)"> </text><text xml:space="preserve" font-family="Monaco" font-size="52.0" fill="#000000" transform="matrix(1.00, 0.00, -0.00, -1.00, 838.1, 746.0)">n</text><text xml:space="preserve" font-family="Monaco" font-size="52.0" fill="#000000" transform="matrix(1.00, 0.00, -0.00, -1.00, 869.3, 746.0)">o</text><text xml:space="preserve" font-family="Monaco" font-size="52.0" fill="#000000" transform="matrix(1.00, 0.00, -0.00, -1.00, 900.5, 746.0)">d</text><text xml:space="preserve" font-family="Monaco" font-size="52.0" fill="#000000" transform="matrix(1.00, 0.00, -0.00, -1.00, 931.7, 746.0)">e</text><text xml:space="preserve" font-family="Monaco" font-size="52.0" fill="#000000" transform="matrix(1.00, 0.00, -0.00, -1.00, 962.9, 746.0)">_</text><text xml:space="preserve" font-family="Monaco" font-size="52.0" fill="#000000" transform="matrix(1.00, 0.00, -0.00, -1.00, 994.1, 746.0)">j</text><text xml:space="preserve" font-family="Monaco" font-size="52.0" fill="#000000" transform="matrix(1.00, 0.00, -0.00, -1.00, 1025.3, 746.0)">s</text><text xml:space="preserve" font-family="Monaco" font-size="52.0" fill="#000000" transform="matrix(1.00, 0.00, -0.00, -1.00, 526.0, 677.0)">s</text><text xml:space="preserve" font-family="Monaco" font-size="52.0" fill="#000000" transform="matrix(1.00, 0.00, -0.00, -1.00, 557.2, 677.0)">u</text><text xml:space="preserve" font-family="Monaco" font-size="52.0" fill="#000000" transform="matrix(1.00, 0.00, -0.00, -1.00, 588.4, 677.0)">d</text><text xml:space="preserve" font-family="Monaco" font-size="52.0" fill="#000000" transform="matrix(1.00, 0.00, -0.00, -1.00, 619.6, 677.0)">o</text><text xml:space="preserve" font-family="Monaco" font-size="52.0" fill="#797979" transform="matrix(1.00, 0.00, -0.00, -1.00, 650.8, 677.0)">:</text><text xml:space="preserve" font-family="Monaco" font-size="52.0" fill="#000000" transform="matrix(1.00, 0.00, -0.00, -1.00, 682.0, 677.0)"> </text><text xml:space="preserve" font-family="Monaco" font-size="52.0" fill="#008E00" transform="matrix(1.00, 0.00, -0.00, -1.00, 713.2, 677.0)">f</text><text xml:space="preserve" font-family="Monaco" font-size="52.0" fill="#008E00" transform="matrix(1.00, 0.00, -0.00, -1.00, 744.4, 677.0)">a</text><text xml:space="preserve" font-family="Monaco" font-size="52.0" fill="#008E00" transform="matrix(1.00, 0.00, -0.00, -1.00, 775.7, 677.0)">l</text><text xml:space="preserve" font-family="Monaco" font-size="52.0" fill="#008E00" transform="matrix(1.00, 0.00, -0.00, -1.00, 806.9, 677.0)">s</text><text xml:space="preserve" font-family="Monaco" font-size="52.0" fill="#008E00" transform="matrix(1.00, 0.00, -0.00, -1.00, 838.1, 677.0)">e</text><text xml:space="preserve" font-family="Monaco" font-size="52.0" fill="#000000" transform="matrix(1.00, 0.00, -0.00, -1.00, 526.0, 608.0)">n</text><text xml:space="preserve" font-family="Monaco" font-size="52.0" fill="#000000" transform="matrix(1.00, 0.00, -0.00, -1.00, 557.2, 608.0)">o</text><text xml:space="preserve" font-family="Monaco" font-size="52.0" fill="#000000" transform="matrix(1.00, 0.00, -0.00, -1.00, 588.4, 608.0)">d</text><text xml:space="preserve" font-family="Monaco" font-size="52.0" fill="#000000" transform="matrix(1.00, 0.00, -0.00, -1.00, 619.6, 608.0)">e</text><text xml:space="preserve" font-family="Monaco" font-size="52.0" fill="#000000" transform="matrix(1.00, 0.00, -0.00, -1.00, 650.8, 608.0)">_</text><text xml:space="preserve" font-family="Monaco" font-size="52.0" fill="#000000" transform="matrix(1.00, 0.00, -0.00, -1.00, 682.1, 608.0)">j</text><text xml:space="preserve" font-family="Monaco" font-size="52.0" fill="#000000" transform="matrix(1.00, 0.00, -0.00, -1.00, 713.3, 608.0)">s</text><text xml:space="preserve" font-family="Monaco" font-size="52.0" fill="#797979" transform="matrix(1.00, 0.00, -0.00, -1.00, 744.4, 608.0)">:</text><text xml:space="preserve" font-family="Monaco" font-size="52.0" fill="#000000" transform="matrix(1.00, 0.00, -0.00, -1.00, 526.0, 539.0)"> </text><text xml:space="preserve" font-family="Monaco" font-size="52.0" fill="#000000" transform="matrix(1.00, 0.00, -0.00, -1.00, 557.2, 539.0)"> </text><text xml:space="preserve" font-family="Monaco" font-size="52.0" fill="#797979" transform="matrix(1.00, 0.00, -0.00, -1.00, 588.4, 539.0)">-</text><text xml:space="preserve" font-family="Monaco" font-size="52.0" fill="#000000" transform="matrix(1.00, 0.00, -0.00, -1.00, 619.6, 539.0)"> </text><text xml:space="preserve" font-family="Monaco" font-size="52.0" fill="#C8352B" transform="matrix(1.00, 0.00, -0.00, -1.00, 650.8, 539.0)">"</text><text xml:space="preserve" font-family="Monaco" font-size="52.0" fill="#C8352B" transform="matrix(1.00, 0.00, -0.00, -1.00, 682.0, 539.0)">8</text><text xml:space="preserve" font-family="Monaco" font-size="52.0" fill="#C8352B" transform="matrix(1.00, 0.00, -0.00, -1.00, 713.2, 539.0)">.</text><text xml:space="preserve" font-family="Monaco" font-size="52.0" fill="#C8352B" transform="matrix(1.00, 0.00, -0.00, -1.00, 744.5, 539.0)">6</text><text xml:space="preserve" font-family="Monaco" font-size="52.0" fill="#C8352B" transform="matrix(1.00, 0.00, -0.00, -1.00, 775.7, 539.0)">"</text><text xml:space="preserve" font-family="Monaco" font-size="52.0" fill="#000000" transform="matrix(1.00, 0.00, -0.00, -1.00, 526.0, 470.0)"> </text><text xml:space="preserve" font-family="Monaco" font-size="52.0" fill="#000000" transform="matrix(1.00, 0.00, -0.00, -1.00, 557.2, 470.0)"> </text><text xml:space="preserve" font-family="Monaco" font-size="52.0" fill="#797979" transform="matrix(1.00, 0.00, -0.00, -1.00, 588.4, 470.0)">-</text><text xml:space="preserve" font-family="Monaco" font-size="52.0" fill="#000000" transform="matrix(1.00, 0.00, -0.00, -1.00, 619.6, 470.0)"> </text><text xml:space="preserve" font-family="Monaco" font-size="52.0" fill="#C8352B" transform="matrix(1.00, 0.00, -0.00, -1.00, 650.8, 470.0)">"</text><text xml:space="preserve" font-family="Monaco" font-size="52.0" fill="#C8352B" transform="matrix(1.00, 0.00, -0.00, -1.00, 682.0, 470.0)">7</text><text xml:space="preserve" font-family="Monaco" font-size="52.0" fill="#C8352B" transform="matrix(1.00, 0.00, -0.00, -1.00, 713.2, 470.0)">.</text><text xml:space="preserve" font-family="Monaco" font-size="52.0" fill="#C8352B" transform="matrix(1.00, 0.00, -0.00, -1.00, 744.5, 470.0)">1</text><text xml:space="preserve" font-family="Monaco" font-size="52.0" fill="#C8352B" transform="matrix(1.00, 0.00, -0.00, -1.00, 775.7, 470.0)">0</text><text xml:space="preserve" font-family="Monaco" font-size="52.0" fill="#C8352B" transform="matrix(1.00, 0.00, -0.00, -1.00, 806.9, 470.0)">.</text><text xml:space="preserve" font-family="Monaco" font-size="52.0" fill="#C8352B" transform="matrix(1.00, 0.00, -0.00, -1.00, 838.1, 470.0)">1</text><text xml:space="preserve" font-family="Monaco" font-size="52.0" fill="#C8352B" transform="matrix(1.00, 0.00, -0.00, -1.00, 869.3, 470.0)">"</text><text xml:space="preserve" font-family="Monaco" font-size="52.0" fill="#000000" transform="matrix(1.00, 0.00, -0.00, -1.00, 526.0, 401.0)">i</text><text xml:space="preserve" font-family="Monaco" font-size="52.0" fill="#000000" transform="matrix(1.00, 0.00, -0.00, -1.00, 557.2, 401.0)">n</text><text xml:space="preserve" font-family="Monaco" font-size="52.0" fill="#000000" transform="matrix(1.00, 0.00, -0.00, -1.00, 588.4, 401.0)">s</text><text xml:space="preserve" font-family="Monaco" font-size="52.0" fill="#000000" transform="matrix(1.00, 0.00, -0.00, -1.00, 619.6, 401.0)">t</text><text xml:space="preserve" font-family="Monaco" font-size="52.0" fill="#000000" transform="matrix(1.00, 0.00, -0.00, -1.00, 650.8, 401.0)">a</text><text xml:space="preserve" font-family="Monaco" font-size="52.0" fill="#000000" transform="matrix(1.00, 0.00, -0.00, -1.00, 682.1, 401.0)">l</text><text xml:space="preserve" font-family="Monaco" font-size="52.0" fill="#000000" transform="matrix(1.00, 0.00, -0.00, -1.00, 713.3, 401.0)">l</text><text xml:space="preserve" font-family="Monaco" font-size="52.0" fill="#797979" transform="matrix(1.00, 0.00, -0.00, -1.00, 744.4, 401.0)">:</text><text xml:space="preserve" font-family="Monaco" font-size="52.0" fill="#000000" transform="matrix(1.00, 0.00, -0.00, -1.00, 526.0, 332.0)"> </text><text xml:space="preserve" font-family="Monaco" font-size="52.0" fill="#000000" transform="matrix(1.00, 0.00, -0.00, -1.00, 557.2, 332.0)"> </text><text xml:space="preserve" font-family="Monaco" font-size="52.0" fill="#797979" transform="matrix(1.00, 0.00, -0.00, -1.00, 588.4, 332.0)">-</text><text xml:space="preserve" font-family="Monaco" font-size="52.0" fill="#000000" transform="matrix(1.00, 0.00, -0.00, -1.00, 619.6, 332.0)"> </text><text xml:space="preserve" font-family="Monaco" font-size="52.0" fill="#000000" transform="matrix(1.00, 0.00, -0.00, -1.00, 650.8, 332.0)">n</text><text xml:space="preserve" font-family="Monaco" font-size="52.0" fill="#000000" transform="matrix(1.00, 0.00, -0.00, -1.00, 682.0, 332.0)">p</text><text xml:space="preserve" font-family="Monaco" font-size="52.0" fill="#000000" transform="matrix(1.00, 0.00, -0.00, -1.00, 713.2, 332.0)">m</text><text xml:space="preserve" font-family="Monaco" font-size="52.0" fill="#000000" transform="matrix(1.00, 0.00, -0.00, -1.00, 744.5, 332.0)"> </text><text xml:space="preserve" font-family="Monaco" font-size="52.0" fill="#000000" transform="matrix(1.00, 0.00, -0.00, -1.00, 775.7, 332.0)">i</text><text xml:space="preserve" font-family="Monaco" font-size="52.0" fill="#000000" transform="matrix(1.00, 0.00, -0.00, -1.00, 806.9, 332.0)">n</text><text xml:space="preserve" font-family="Monaco" font-size="52.0" fill="#000000" transform="matrix(1.00, 0.00, -0.00, -1.00, 838.1, 332.0)">s</text><text xml:space="preserve" font-family="Monaco" font-size="52.0" fill="#000000" transform="matrix(1.00, 0.00, -0.00, -1.00, 869.3, 332.0)">t</text><text xml:space="preserve" font-family="Monaco" font-size="52.0" fill="#000000" transform="matrix(1.00, 0.00, -0.00, -1.00, 900.5, 332.0)">a</text><text xml:space="preserve" font-family="Monaco" font-size="52.0" fill="#000000" transform="matrix(1.00, 0.00, -0.00, -1.00, 931.7, 332.0)">l</text><text xml:space="preserve" font-family="Monaco" font-size="52.0" fill="#000000" transform="matrix(1.00, 0.00, -0.00, -1.00, 962.9, 332.0)">l</text><text xml:space="preserve" font-family="Monaco" font-size="52.0" fill="#000000" transform="matrix(1.00, 0.00, -0.00, -1.00, 526.0, 263.0)">s</text><text xml:space="preserve" font-family="Monaco" font-size="52.0" fill="#000000" transform="matrix(1.00, 0.00, -0.00, -1.00, 557.2, 263.0)">c</text><text xml:space="preserve" font-family="Monaco" font-size="52.0" fill="#000000" transform="matrix(1.00, 0.00, -0.00, -1.00, 588.4, 263.0)">r</text><text xml:space="preserve" font-family="Monaco" font-size="52.0" fill="#000000" transform="matrix(1.00, 0.00, -0.00, -1.00, 619.6, 263.0)">i</text><text xml:space="preserve" font-family="Monaco" font-size="52.0" fill="#000000" transform="matrix(1.00, 0.00, -0.00, -1.00, 650.8, 263.0)">p</text><text xml:space="preserve" font-family="Monaco" font-size="52.0" fill="#000000" transform="matrix(1.00, 0.00, -0.00, -1.00, 682.1, 263.0)">t</text><text xml:space="preserve" font-family="Monaco" font-size="52.0" fill="#797979" transform="matrix(1.00, 0.00, -0.00, -1.00, 713.2, 263.0)">:</text><text xml:space="preserve" font-family="Monaco" font-size="52.0" fill="#000000" transform="matrix(1.00, 0.00, -0.00, -1.00, 526.0, 194.0)"> </text><text xml:space="preserve" font-family="Monaco" font-size="52.0" fill="#000000" transform="matrix(1.00, 0.00, -0.00, -1.00, 557.2, 194.0)"> </text><text xml:space="preserve" font-family="Monaco" font-size="52.0" fill="#797979" transform="matrix(1.00, 0.00, -0.00, -1.00, 588.4, 194.0)">-</text><text xml:space="preserve" font-family="Monaco" font-size="52.0" fill="#000000" transform="matrix(1.00, 0.00, -0.00, -1.00, 619.6, 194.0)"> </text><text xml:space="preserve" font-family="Monaco" font-size="52.0" fill="#000000" transform="matrix(1.00, 0.00, -0.00, -1.00, 650.8, 194.0)">n</text><text xml:space="preserve" font-family="Monaco" font-size="52.0" fill="#000000" transform="matrix(1.00, 0.00, -0.00, -1.00, 682.0, 194.0)">p</text><text xml:space="preserve" font-family="Monaco" font-size="52.0" fill="#000000" transform="matrix(1.00, 0.00, -0.00, -1.00, 713.2, 194.0)">m</text><text xml:space="preserve" font-family="Monaco" font-size="52.0" fill="#000000" transform="matrix(1.00, 0.00, -0.00, -1.00, 744.5, 194.0)"> </text><text xml:space="preserve" font-family="Monaco" font-size="52.0" fill="#000000" transform="matrix(1.00, 0.00, -0.00, -1.00, 775.7, 194.0)">t</text><text xml:space="preserve" font-family="Monaco" font-size="52.0" fill="#000000" transform="matrix(1.00, 0.00, -0.00, -1.00, 806.9, 194.0)">e</text><text xml:space="preserve" font-family="Monaco" font-size="52.0" fill="#000000" transform="matrix(1.00, 0.00, -0.00, -1.00, 838.1, 194.0)">s</text><text xml:space="preserve" font-family="Monaco" font-size="52.0" fill="#000000" transform="matrix(1.00, 0.00, -0.00, -1.00, 869.3, 194.0)">t</text></g></svg>