<?xml version="1.0" encoding="UTF-8" standalone="no"?><svg xmlns="http://www.w3.org/2000/svg" xmlns:xlink="http://www.w3.org/1999/xlink" clip-rule="evenodd" stroke-miterlimit="4.00" viewBox="0 0 594 111"><desc>SVG generated by Keynote</desc><defs></defs><g transform="matrix(1.00, 0.00, -0.00, -1.00, 0.0, 111.0)"><text xml:space="preserve" font-family="Menlo-Regular" font-size="112.0" fill="#45A6DE" transform="matrix(1.00, 0.00, -0.00, -1.00, -10.0, 24.0)">s</text><text xml:space="preserve" font-family="Menlo-Regular" font-size="112.0" fill="#45A6DE" transform="matrix(1.00, 0.00, -0.00, -1.00, 57.4, 24.0)">i</text><text xml:space="preserve" font-family="Menlo-Regular" font-size="112.0" fill="#45A6DE" transform="matrix(1.00, 0.00, -0.00, -1.00, 124.9, 24.0)">m</text><text xml:space="preserve" font-family="Menlo-Regular" font-size="112.0" fill="#45A6DE" transform="matrix(1.00, 0.00, -0.00, -1.00, 192.3, 24.0)">p</text><text xml:space="preserve" font-family="Menlo-Regular" font-size="112.0" fill="#45A6DE" transform="matrix(1.00, 0.00, -0.00, -1.00, 259.8, 24.0)">l</text><text xml:space="preserve" font-family="Menlo-Regular" font-size="112.0" fill="#45A6DE" transform="matrix(1.00, 0.00, -0.00, -1.00, 327.2, 24.0)">e</text><text xml:space="preserve" font-family="Menlo-Regular" font-size="112.0" fill="#45A6DE" transform="matrix(1.00, 0.00, -0.00, -1.00, 394.6, 24.0)"> </text><text xml:space="preserve" font-family="Menlo-Regular" font-size="112.0" fill="#45A6DE" transform="matrix(1.00, 0.00, -0.00, -1.00, 462.1, 24.0)">c</text><text xml:space="preserve" font-family="Menlo-Regular" font-size="112.0" fill="#45A6DE" transform="matrix(1.00, 0.00, -0.00, -1.00, 529.5, 24.0)">i</text></g></svg>