<?xml version="1.0" encoding="UTF-8" standalone="no"?><svg xmlns="http://www.w3.org/2000/svg" xmlns:xlink="http://www.w3.org/1999/xlink" clip-rule="evenodd" stroke-miterlimit="4.00" viewBox="0 0 1920 1080"><desc>SVG generated by Keynote</desc><defs></defs><g transform="matrix(1.00, 0.00, -0.00, -1.00, 0.0, 1080.0)"><g><clipPath id="clip-26"><path d="M 0.0 1080.0 L 1920.0 1080.0 L 1920.0 0.0 L 0.0 0.0 Z M 0.0 1080.0 "></path></clipPath><g clip-path="url(#clip-26)"><image xlink:href="../../1666277D-D3DF-4E49-BA3E-8D52C1CD64F2/assets/1FDA5CC772C925BAEF499BC77EF4DAF8.jpeg" width="1365.00" height="767.00" transform="matrix(1.41, 0.00, -0.00, -1.41, 0.0, 1080.0)"></image></g></g><text xml:space="preserve" font-family="Menlo-Regular" font-size="112.0" fill="#45A6DE" transform="matrix(1.00, 0.00, -0.00, -1.00, 590.0, 878.0)">w</text><text xml:space="preserve" font-family="Menlo-Regular" font-size="112.0" fill="#45A6DE" transform="matrix(1.00, 0.00, -0.00, -1.00, 657.4, 878.0)">h</text><text xml:space="preserve" font-family="Menlo-Regular" font-size="112.0" fill="#45A6DE" transform="matrix(1.00, 0.00, -0.00, -1.00, 724.9, 878.0)">y</text><text xml:space="preserve" font-family="Menlo-Regular" font-size="112.0" fill="#45A6DE" transform="matrix(1.00, 0.00, -0.00, -1.00, 792.3, 878.0)">y</text><text xml:space="preserve" font-family="Menlo-Regular" font-size="112.0" fill="#45A6DE" transform="matrix(1.00, 0.00, -0.00, -1.00, 859.8, 878.0)">y</text><text xml:space="preserve" font-family="Menlo-Regular" font-size="112.0" fill="#45A6DE" transform="matrix(1.00, 0.00, -0.00, -1.00, 927.2, 878.0)">y</text><text xml:space="preserve" font-family="Menlo-Regular" font-size="112.0" fill="#45A6DE" transform="matrix(1.00, 0.00, -0.00, -1.00, 994.6, 878.0)">y</text><text xml:space="preserve" font-family="Menlo-Regular" font-size="112.0" fill="#45A6DE" transform="matrix(1.00, 0.00, -0.00, -1.00, 1062.1, 878.0)">y</text><text xml:space="preserve" font-family="Menlo-Regular" font-size="112.0" fill="#45A6DE" transform="matrix(1.00, 0.00, -0.00, -1.00, 1129.5, 878.0)">y</text><text xml:space="preserve" font-family="Menlo-Regular" font-size="112.0" fill="#45A6DE" transform="matrix(1.00, 0.00, -0.00, -1.00, 1197.0, 878.0)">y</text><text xml:space="preserve" font-family="Menlo-Regular" font-size="112.0" fill="#45A6DE" transform="matrix(1.00, 0.00, -0.00, -1.00, 1264.4, 878.0)">y</text></g></svg>