<?xml version="1.0" encoding="UTF-8" standalone="no"?><svg xmlns="http://www.w3.org/2000/svg" xmlns:xlink="http://www.w3.org/1999/xlink" clip-rule="evenodd" stroke-miterlimit="4.00" viewBox="0 0 566 99"><desc>SVG generated by Keynote</desc><defs></defs><g transform="matrix(1.00, 0.00, -0.00, -1.00, 0.0, 99.0)"><g><clipPath id="clip-59"><path d="M 0.0 62.6 L 31.2 62.6 L 31.2 91.7 L 0.0 91.7 Z M 0.0 62.6 "></path></clipPath><g clip-path="url(#clip-59)"><path d="M 30.7 73.0 C 31.0 72.6 31.2 72.1 31.2 71.6 C 31.2 70.7 30.7 69.8 29.6 69.0 C 28.6 68.2 27.4 67.8 26.2 67.8 C 24.4 67.8 22.5 69.1 20.2 71.6 C 20.2 71.6 20.2 67.9 20.2 67.9 C 20.2 67.5 20.3 67.0 20.5 66.5 C 20.7 66.0 20.8 65.6 20.8 65.4 C 20.8 64.6 20.4 63.9 19.6 63.4 C 18.8 62.8 18.0 62.6 17.3 62.6 C 15.8 62.6 14.6 63.2 13.6 64.4 C 13.3 64.7 13.2 65.8 13.3 67.4 C 13.4 69.1 13.5 70.8 13.6 72.5 C 12.7 71.9 11.1 71.0 8.6 69.7 C 8.3 69.2 7.3 68.7 5.7 68.1 C 4.5 68.0 3.2 68.2 1.9 68.8 C 0.6 69.4 0.0 70.2 0.0 71.2 C 0.0 71.4 0.1 71.6 0.2 71.9 C 0.4 72.4 0.9 72.8 1.7 73.1 C 3.0 73.5 3.7 73.7 3.9 73.8 C 3.9 73.8 10.7 77.6 10.7 77.6 C 10.7 77.6 5.9 79.9 5.9 79.9 C 5.1 79.9 4.2 80.3 3.0 80.9 C 2.8 81.3 2.7 81.7 2.7 82.1 C 2.7 83.3 3.3 84.4 4.7 85.5 C 6.1 86.6 7.5 87.2 8.9 87.2 C 9.3 87.2 9.8 87.1 10.2 86.9 C 10.7 86.8 11.1 86.4 11.5 85.7 C 11.9 84.9 12.6 84.1 13.6 83.5 C 13.6 83.5 13.8 87.9 13.8 87.9 C 13.6 88.5 13.6 89.4 13.8 90.6 C 14.3 91.3 15.6 91.7 17.5 91.7 C 19.3 91.7 20.5 91.1 21.1 90.1 C 21.3 89.7 21.4 88.7 21.2 87.1 C 21.1 85.7 20.9 84.3 20.7 82.9 C 20.7 82.9 23.3 84.2 23.3 84.2 C 23.8 84.7 24.7 85.3 26.2 85.9 C 27.1 86.0 28.1 85.6 29.0 84.7 C 30.0 83.9 30.5 83.0 30.5 82.0 C 30.5 81.6 30.3 81.2 30.1 80.9 C 29.9 80.5 29.4 80.2 28.8 80.1 C 28.0 79.9 27.5 79.8 27.3 79.6 C 27.3 79.6 23.5 76.9 23.5 76.9 C 23.5 76.9 28.4 74.3 28.4 74.3 C 29.0 74.1 29.8 73.7 30.7 73.0 Z M 30.7 73.0 " fill="#3995D6"></path></g></g><text xml:space="preserve" font-family="Menlo-Regular" font-size="50.0" fill="#858585" transform="matrix(1.00, 0.00, -0.00, -1.00, 53.0, 60.0)">s</text><text xml:space="preserve" font-family="Menlo-Regular" font-size="50.0" fill="#858585" transform="matrix(1.00, 0.00, -0.00, -1.00, 83.1, 60.0)">h</text><text xml:space="preserve" font-family="Menlo-Regular" font-size="50.0" fill="#858585" transform="matrix(1.00, 0.00, -0.00, -1.00, 113.2, 60.0)">o</text><text xml:space="preserve" font-family="Menlo-Regular" font-size="50.0" fill="#858585" transform="matrix(1.00, 0.00, -0.00, -1.00, 143.3, 60.0)">u</text><text xml:space="preserve" font-family="Menlo-Regular" font-size="50.0" fill="#858585" transform="matrix(1.00, 0.00, -0.00, -1.00, 173.4, 60.0)">l</text><text xml:space="preserve" font-family="Menlo-Regular" font-size="50.0" fill="#858585" transform="matrix(1.00, 0.00, -0.00, -1.00, 203.5, 60.0)">d</text><text xml:space="preserve" font-family="Menlo-Regular" font-size="50.0" fill="#858585" transform="matrix(1.00, 0.00, -0.00, -1.00, 233.6, 60.0)"> </text><text xml:space="preserve" font-family="Menlo-Regular" font-size="50.0" fill="#858585" transform="matrix(1.00, 0.00, -0.00, -1.00, 263.8, 60.0)">b</text><text xml:space="preserve" font-family="Menlo-Regular" font-size="50.0" fill="#858585" transform="matrix(1.00, 0.00, -0.00, -1.00, 293.9, 60.0)">e</text><text xml:space="preserve" font-family="Menlo-Regular" font-size="50.0" fill="#858585" transform="matrix(1.00, 0.00, -0.00, -1.00, 324.0, 60.0)"> </text><text xml:space="preserve" font-family="Menlo-Regular" font-size="50.0" fill="#858585" transform="matrix(1.00, 0.00, -0.00, -1.00, 354.1, 60.0)">e</text><text xml:space="preserve" font-family="Menlo-Regular" font-size="50.0" fill="#858585" transform="matrix(1.00, 0.00, -0.00, -1.00, 384.2, 60.0)">a</text><text xml:space="preserve" font-family="Menlo-Regular" font-size="50.0" fill="#858585" transform="matrix(1.00, 0.00, -0.00, -1.00, 414.3, 60.0)">s</text><text xml:space="preserve" font-family="Menlo-Regular" font-size="50.0" fill="#858585" transform="matrix(1.00, 0.00, -0.00, -1.00, 444.4, 60.0)">y</text><text xml:space="preserve" font-family="Menlo-Regular" font-size="50.0" fill="#858585" transform="matrix(1.00, 0.00, -0.00, -1.00, 474.5, 60.0)"> </text><text xml:space="preserve" font-family="Menlo-Regular" font-size="50.0" fill="#858585" transform="matrix(1.00, 0.00, -0.00, -1.00, 504.6, 60.0)">t</text><text xml:space="preserve" font-family="Menlo-Regular" font-size="50.0" fill="#858585" transform="matrix(1.00, 0.00, -0.00, -1.00, 534.7, 60.0)">o</text><text xml:space="preserve" font-family="Menlo-Regular" font-size="50.0" fill="#858585" transform="matrix(1.00, 0.00, -0.00, -1.00, 564.8, 60.0)"> </text><text xml:space="preserve" font-family="Menlo-Regular" font-size="50.0" fill="#858585" transform="matrix(1.00, 0.00, -0.00, -1.00, 53.0, 2.0)">u</text><text xml:space="preserve" font-family="Menlo-Regular" font-size="50.0" fill="#858585" transform="matrix(1.00, 0.00, -0.00, -1.00, 83.1, 2.0)">n</text><text xml:space="preserve" font-family="Menlo-Regular" font-size="50.0" fill="#858585" transform="matrix(1.00, 0.00, -0.00, -1.00, 113.2, 2.0)">d</text><text xml:space="preserve" font-family="Menlo-Regular" font-size="50.0" fill="#858585" transform="matrix(1.00, 0.00, -0.00, -1.00, 143.3, 2.0)">e</text><text xml:space="preserve" font-family="Menlo-Regular" font-size="50.0" fill="#858585" transform="matrix(1.00, 0.00, -0.00, -1.00, 173.4, 2.0)">r</text><text xml:space="preserve" font-family="Menlo-Regular" font-size="50.0" fill="#858585" transform="matrix(1.00, 0.00, -0.00, -1.00, 203.5, 2.0)">s</text><text xml:space="preserve" font-family="Menlo-Regular" font-size="50.0" fill="#858585" transform="matrix(1.00, 0.00, -0.00, -1.00, 233.6, 2.0)">t</text><text xml:space="preserve" font-family="Menlo-Regular" font-size="50.0" fill="#858585" transform="matrix(1.00, 0.00, -0.00, -1.00, 263.8, 2.0)">a</text><text xml:space="preserve" font-family="Menlo-Regular" font-size="50.0" fill="#858585" transform="matrix(1.00, 0.00, -0.00, -1.00, 293.9, 2.0)">n</text><text xml:space="preserve" font-family="Menlo-Regular" font-size="50.0" fill="#858585" transform="matrix(1.00, 0.00, -0.00, -1.00, 324.0, 2.0)">d</text></g></svg>