<?xml version="1.0" encoding="UTF-8" standalone="no"?><svg xmlns="http://www.w3.org/2000/svg" xmlns:xlink="http://www.w3.org/1999/xlink" clip-rule="evenodd" stroke-miterlimit="4.00" viewBox="0 0 1144 57"><desc>SVG generated by Keynote</desc><defs></defs><g transform="matrix(1.00, 0.00, -0.00, -1.00, 0.0, 57.0)"><g><clipPath id="clip-181"><path d="M 0.0 11.7 L 37.5 11.7 L 37.5 46.8 L 0.0 46.8 Z M 0.0 11.7 "></path></clipPath><g clip-path="url(#clip-181)"><path d="M 37.0 24.3 C 37.4 23.8 37.5 23.2 37.5 22.6 C 37.5 21.5 36.9 20.5 35.7 19.6 C 34.4 18.6 33.0 18.1 31.5 18.1 C 29.4 18.1 27.0 19.6 24.3 22.6 C 24.3 22.6 24.3 18.1 24.3 18.1 C 24.3 17.7 24.4 17.2 24.7 16.5 C 24.9 15.9 25.1 15.4 25.1 15.2 C 25.1 14.2 24.6 13.4 23.6 12.7 C 22.7 12.1 21.7 11.7 20.8 11.7 C 19.1 11.7 17.6 12.5 16.3 13.9 C 16.0 14.4 15.9 15.6 16.0 17.6 C 16.1 19.6 16.2 21.7 16.3 23.7 C 15.3 23.0 13.3 21.9 10.4 20.3 C 10.0 19.7 8.8 19.1 6.8 18.4 C 5.4 18.3 3.9 18.6 2.3 19.3 C 0.8 20.0 0.0 20.9 0.0 22.1 C 0.0 22.4 0.1 22.7 0.2 23.0 C 0.5 23.6 1.1 24.1 2.1 24.4 C 3.6 24.9 4.5 25.2 4.6 25.3 C 4.6 25.3 12.9 29.8 12.9 29.8 C 12.9 29.8 7.1 32.7 7.1 32.7 C 6.2 32.7 5.0 33.1 3.6 33.9 C 3.3 34.3 3.2 34.8 3.2 35.3 C 3.2 36.7 4.0 38.1 5.7 39.4 C 7.3 40.7 9.0 41.4 10.7 41.4 C 11.2 41.4 11.8 41.3 12.3 41.1 C 12.9 40.9 13.4 40.4 13.8 39.6 C 14.3 38.6 15.2 37.7 16.3 37.0 C 16.3 37.0 16.6 42.2 16.6 42.2 C 16.3 43.0 16.3 44.0 16.6 45.4 C 17.2 46.3 18.7 46.8 21.1 46.8 C 23.2 46.8 24.7 46.1 25.4 44.9 C 25.7 44.4 25.7 43.2 25.5 41.3 C 25.4 39.6 25.2 37.9 25.0 36.2 C 25.0 36.2 28.0 37.7 28.0 37.7 C 28.6 38.4 29.8 39.1 31.5 39.8 C 32.6 39.9 33.8 39.4 34.9 38.4 C 36.1 37.5 36.7 36.4 36.7 35.2 C 36.7 34.7 36.5 34.2 36.2 33.8 C 35.9 33.3 35.4 33.0 34.7 32.9 C 33.7 32.7 33.1 32.4 32.8 32.2 C 32.8 32.2 28.3 29.0 28.3 29.0 C 28.3 29.0 34.1 25.8 34.1 25.8 C 34.9 25.6 35.8 25.1 37.0 24.3 Z M 37.0 24.3 " fill="#3995D6"></path></g></g><text xml:space="preserve" font-family="Menlo-Regular" font-size="64.0" fill="#858585" transform="matrix(1.00, 0.00, -0.00, -1.00, 70.0, 7.0)">f</text><text xml:space="preserve" font-family="Menlo-Regular" font-size="64.0" fill="#858585" transform="matrix(1.00, 0.00, -0.00, -1.00, 108.5, 7.0)">a</text><text xml:space="preserve" font-family="Menlo-Regular" font-size="64.0" fill="#858585" transform="matrix(1.00, 0.00, -0.00, -1.00, 147.1, 7.0)">s</text><text xml:space="preserve" font-family="Menlo-Regular" font-size="64.0" fill="#858585" transform="matrix(1.00, 0.00, -0.00, -1.00, 185.6, 7.0)">t</text><text xml:space="preserve" font-family="Menlo-Regular" font-size="64.0" fill="#858585" transform="matrix(1.00, 0.00, -0.00, -1.00, 224.2, 7.0)">l</text><text xml:space="preserve" font-family="Menlo-Regular" font-size="64.0" fill="#858585" transform="matrix(1.00, 0.00, -0.00, -1.00, 262.7, 7.0)">a</text><text xml:space="preserve" font-family="Menlo-Regular" font-size="64.0" fill="#858585" transform="matrix(1.00, 0.00, -0.00, -1.00, 301.2, 7.0)">n</text><text xml:space="preserve" font-family="Menlo-Regular" font-size="64.0" fill="#858585" transform="matrix(1.00, 0.00, -0.00, -1.00, 339.8, 7.0)">e</text><text xml:space="preserve" font-family="Menlo-Regular" font-size="64.0" fill="#858585" transform="matrix(1.00, 0.00, -0.00, -1.00, 378.3, 7.0)"> </text><text xml:space="preserve" font-family="Menlo-Regular" font-size="64.0" fill="#858585" transform="matrix(1.00, 0.00, -0.00, -1.00, 416.8, 7.0)">-</text><text xml:space="preserve" font-family="Menlo-Regular" font-size="64.0" fill="#858585" transform="matrix(1.00, 0.00, -0.00, -1.00, 455.4, 7.0)"> </text><text xml:space="preserve" font-family="Menlo-Regular" font-size="64.0" fill="#858585" transform="matrix(1.00, 0.00, -0.00, -1.00, 493.9, 7.0)">a</text><text xml:space="preserve" font-family="Menlo-Regular" font-size="64.0" fill="#858585" transform="matrix(1.00, 0.00, -0.00, -1.00, 532.5, 7.0)">n</text><text xml:space="preserve" font-family="Menlo-Regular" font-size="64.0" fill="#858585" transform="matrix(1.00, 0.00, -0.00, -1.00, 571.0, 7.0)">d</text><text xml:space="preserve" font-family="Menlo-Regular" font-size="64.0" fill="#858585" transform="matrix(1.00, 0.00, -0.00, -1.00, 609.5, 7.0)">r</text><text xml:space="preserve" font-family="Menlo-Regular" font-size="64.0" fill="#858585" transform="matrix(1.00, 0.00, -0.00, -1.00, 648.1, 7.0)">o</text><text xml:space="preserve" font-family="Menlo-Regular" font-size="64.0" fill="#858585" transform="matrix(1.00, 0.00, -0.00, -1.00, 686.6, 7.0)">i</text><text xml:space="preserve" font-family="Menlo-Regular" font-size="64.0" fill="#858585" transform="matrix(1.00, 0.00, -0.00, -1.00, 725.1, 7.0)">d</text><text xml:space="preserve" font-family="Menlo-Regular" font-size="64.0" fill="#858585" transform="matrix(1.00, 0.00, -0.00, -1.00, 763.7, 7.0)">/</text><text xml:space="preserve" font-family="Menlo-Regular" font-size="64.0" fill="#858585" transform="matrix(1.00, 0.00, -0.00, -1.00, 802.2, 7.0)">i</text><text xml:space="preserve" font-family="Menlo-Regular" font-size="64.0" fill="#858585" transform="matrix(1.00, 0.00, -0.00, -1.00, 840.8, 7.0)">o</text><text xml:space="preserve" font-family="Menlo-Regular" font-size="64.0" fill="#858585" transform="matrix(1.00, 0.00, -0.00, -1.00, 879.3, 7.0)">s</text><text xml:space="preserve" font-family="Menlo-Regular" font-size="64.0" fill="#858585" transform="matrix(1.00, 0.00, -0.00, -1.00, 917.8, 7.0)"> </text><text xml:space="preserve" font-family="Menlo-Regular" font-size="64.0" fill="#858585" transform="matrix(1.00, 0.00, -0.00, -1.00, 956.4, 7.0)">t</text><text xml:space="preserve" font-family="Menlo-Regular" font-size="64.0" fill="#858585" transform="matrix(1.00, 0.00, -0.00, -1.00, 994.9, 7.0)">o</text><text xml:space="preserve" font-family="Menlo-Regular" font-size="64.0" fill="#858585" transform="matrix(1.00, 0.00, -0.00, -1.00, 1033.4, 7.0)">o</text><text xml:space="preserve" font-family="Menlo-Regular" font-size="64.0" fill="#858585" transform="matrix(1.00, 0.00, -0.00, -1.00, 1072.0, 7.0)">l</text><text xml:space="preserve" font-family="Menlo-Regular" font-size="64.0" fill="#858585" transform="matrix(1.00, 0.00, -0.00, -1.00, 1110.5, 7.0)">s</text></g></svg>