<?xml version="1.0" encoding="UTF-8" standalone="no"?><svg xmlns="http://www.w3.org/2000/svg" xmlns:xlink="http://www.w3.org/1999/xlink" clip-rule="evenodd" stroke-miterlimit="4.00" viewBox="0 0 727 209"><desc>SVG generated by Keynote</desc><defs></defs><g transform="matrix(1.00, 0.00, -0.00, -1.00, 0.0, 209.0)"><g><clipPath id="clip-29"><path d="M 0.0 164.9 L 36.4 164.9 L 36.4 198.9 L 0.0 198.9 Z M 0.0 164.9 "></path></clipPath><g clip-path="url(#clip-29)"><path d="M 35.9 177.1 C 36.2 176.6 36.4 176.1 36.4 175.5 C 36.4 174.4 35.8 173.4 34.6 172.5 C 33.4 171.6 32.0 171.1 30.5 171.1 C 28.5 171.1 26.2 172.6 23.6 175.5 C 23.6 175.5 23.6 171.1 23.6 171.1 C 23.6 170.7 23.7 170.2 23.9 169.6 C 24.2 169.0 24.3 168.5 24.3 168.2 C 24.3 167.3 23.8 166.5 22.9 165.9 C 22.0 165.2 21.1 164.9 20.1 164.9 C 18.5 164.9 17.1 165.6 15.8 167.1 C 15.5 167.5 15.4 168.7 15.5 170.6 C 15.6 172.6 15.7 174.6 15.8 176.6 C 14.8 175.8 12.9 174.7 10.1 173.2 C 9.7 172.7 8.6 172.1 6.6 171.4 C 5.2 171.3 3.7 171.5 2.2 172.2 C 0.7 172.9 0.0 173.8 0.0 175.0 C 0.0 175.2 0.1 175.5 0.2 175.8 C 0.5 176.5 1.1 176.9 2.0 177.2 C 3.5 177.7 4.4 178.0 4.5 178.1 C 4.5 178.1 12.5 182.4 12.5 182.4 C 12.5 182.4 6.9 185.2 6.9 185.2 C 6.0 185.2 4.9 185.6 3.5 186.4 C 3.2 186.8 3.1 187.3 3.1 187.8 C 3.1 189.1 3.9 190.4 5.5 191.7 C 7.1 193.0 8.7 193.7 10.4 193.7 C 10.9 193.7 11.4 193.6 11.9 193.4 C 12.5 193.2 13.0 192.7 13.4 192.0 C 13.9 191.0 14.7 190.1 15.8 189.4 C 15.8 189.4 16.1 194.5 16.1 194.5 C 15.8 195.2 15.8 196.2 16.1 197.6 C 16.7 198.5 18.2 198.9 20.5 198.9 C 22.5 198.9 23.9 198.3 24.6 197.1 C 24.9 196.6 25.0 195.4 24.7 193.5 C 24.6 191.9 24.4 190.3 24.2 188.6 C 24.2 188.6 27.2 190.1 27.2 190.1 C 27.8 190.8 28.9 191.4 30.5 192.2 C 31.7 192.2 32.8 191.8 33.9 190.8 C 35.0 189.9 35.6 188.8 35.6 187.7 C 35.6 187.2 35.4 186.7 35.1 186.3 C 34.8 185.9 34.3 185.6 33.6 185.4 C 32.7 185.2 32.1 185.0 31.8 184.8 C 31.8 184.8 27.4 181.7 27.4 181.7 C 27.4 181.7 33.1 178.6 33.1 178.6 C 33.8 178.4 34.7 177.9 35.9 177.1 Z M 35.9 177.1 " fill="#3995D6"></path></g></g><text xml:space="preserve" font-family="Menlo-Regular" font-size="62.1" fill="#858585" transform="matrix(1.00, 0.00, -0.00, -1.00, 68.0, 160.0)">i</text><text xml:space="preserve" font-family="Menlo-Regular" font-size="62.1" fill="#858585" transform="matrix(1.00, 0.00, -0.00, -1.00, 105.4, 160.0)">f</text><text xml:space="preserve" font-family="Menlo-Regular" font-size="62.1" fill="#858585" transform="matrix(1.00, 0.00, -0.00, -1.00, 142.8, 160.0)"> </text><text xml:space="preserve" font-family="Menlo-Regular" font-size="62.1" fill="#858585" transform="matrix(1.00, 0.00, -0.00, -1.00, 180.1, 160.0)">y</text><text xml:space="preserve" font-family="Menlo-Regular" font-size="62.1" fill="#858585" transform="matrix(1.00, 0.00, -0.00, -1.00, 217.5, 160.0)">o</text><text xml:space="preserve" font-family="Menlo-Regular" font-size="62.1" fill="#858585" transform="matrix(1.00, 0.00, -0.00, -1.00, 254.9, 160.0)">u</text><text xml:space="preserve" font-family="Menlo-Regular" font-size="62.1" fill="#858585" transform="matrix(1.00, 0.00, -0.00, -1.00, 292.3, 160.0)">'</text><text xml:space="preserve" font-family="Menlo-Regular" font-size="62.1" fill="#858585" transform="matrix(1.00, 0.00, -0.00, -1.00, 329.7, 160.0)">r</text><text xml:space="preserve" font-family="Menlo-Regular" font-size="62.1" fill="#858585" transform="matrix(1.00, 0.00, -0.00, -1.00, 367.1, 160.0)">e</text><text xml:space="preserve" font-family="Menlo-Regular" font-size="62.1" fill="#858585" transform="matrix(1.00, 0.00, -0.00, -1.00, 404.4, 160.0)"> </text><text xml:space="preserve" font-family="Menlo-Regular" font-size="62.1" fill="#858585" transform="matrix(1.00, 0.00, -0.00, -1.00, 441.8, 160.0)">d</text><text xml:space="preserve" font-family="Menlo-Regular" font-size="62.1" fill="#858585" transform="matrix(1.00, 0.00, -0.00, -1.00, 479.2, 160.0)">o</text><text xml:space="preserve" font-family="Menlo-Regular" font-size="62.1" fill="#858585" transform="matrix(1.00, 0.00, -0.00, -1.00, 516.6, 160.0)">i</text><text xml:space="preserve" font-family="Menlo-Regular" font-size="62.1" fill="#858585" transform="matrix(1.00, 0.00, -0.00, -1.00, 554.0, 160.0)">n</text><text xml:space="preserve" font-family="Menlo-Regular" font-size="62.1" fill="#858585" transform="matrix(1.00, 0.00, -0.00, -1.00, 591.3, 160.0)">g</text><text xml:space="preserve" font-family="Menlo-Regular" font-size="62.1" fill="#858585" transform="matrix(1.00, 0.00, -0.00, -1.00, 628.7, 160.0)"> </text><text xml:space="preserve" font-family="Menlo-Regular" font-size="62.1" fill="#858585" transform="matrix(1.00, 0.00, -0.00, -1.00, 68.0, 87.0)">*</text><text xml:space="preserve" font-family="Menlo-Regular" font-size="62.1" fill="#858585" transform="matrix(1.00, 0.00, -0.00, -1.00, 105.4, 87.0)">a</text><text xml:space="preserve" font-family="Menlo-Regular" font-size="62.1" fill="#858585" transform="matrix(1.00, 0.00, -0.00, -1.00, 142.8, 87.0)">n</text><text xml:space="preserve" font-family="Menlo-Regular" font-size="62.1" fill="#858585" transform="matrix(1.00, 0.00, -0.00, -1.00, 180.1, 87.0)">y</text><text xml:space="preserve" font-family="Menlo-Regular" font-size="62.1" fill="#858585" transform="matrix(1.00, 0.00, -0.00, -1.00, 217.5, 87.0)">t</text><text xml:space="preserve" font-family="Menlo-Regular" font-size="62.1" fill="#858585" transform="matrix(1.00, 0.00, -0.00, -1.00, 254.9, 87.0)">h</text><text xml:space="preserve" font-family="Menlo-Regular" font-size="62.1" fill="#858585" transform="matrix(1.00, 0.00, -0.00, -1.00, 292.3, 87.0)">i</text><text xml:space="preserve" font-family="Menlo-Regular" font-size="62.1" fill="#858585" transform="matrix(1.00, 0.00, -0.00, -1.00, 329.7, 87.0)">n</text><text xml:space="preserve" font-family="Menlo-Regular" font-size="62.1" fill="#858585" transform="matrix(1.00, 0.00, -0.00, -1.00, 367.1, 87.0)">g</text><text xml:space="preserve" font-family="Menlo-Regular" font-size="62.1" fill="#858585" transform="matrix(1.00, 0.00, -0.00, -1.00, 404.4, 87.0)"> </text><text xml:space="preserve" font-family="Menlo-Regular" font-size="62.1" fill="#858585" transform="matrix(1.00, 0.00, -0.00, -1.00, 441.8, 87.0)">e</text><text xml:space="preserve" font-family="Menlo-Regular" font-size="62.1" fill="#858585" transform="matrix(1.00, 0.00, -0.00, -1.00, 479.2, 87.0)">l</text><text xml:space="preserve" font-family="Menlo-Regular" font-size="62.1" fill="#858585" transform="matrix(1.00, 0.00, -0.00, -1.00, 516.6, 87.0)">s</text><text xml:space="preserve" font-family="Menlo-Regular" font-size="62.1" fill="#858585" transform="matrix(1.00, 0.00, -0.00, -1.00, 554.0, 87.0)">e</text><text xml:space="preserve" font-family="Menlo-Regular" font-size="62.1" fill="#858585" transform="matrix(1.00, 0.00, -0.00, -1.00, 591.3, 87.0)">*</text><text xml:space="preserve" font-family="Menlo-Regular" font-size="62.1" fill="#858585" transform="matrix(1.00, 0.00, -0.00, -1.00, 628.7, 87.0)"> </text><text xml:space="preserve" font-family="Menlo-Regular" font-size="62.1" fill="#858585" transform="matrix(1.00, 0.00, -0.00, -1.00, 68.0, 14.0)">y</text><text xml:space="preserve" font-family="Menlo-Regular" font-size="62.1" fill="#858585" transform="matrix(1.00, 0.00, -0.00, -1.00, 105.4, 14.0)">o</text><text xml:space="preserve" font-family="Menlo-Regular" font-size="62.1" fill="#858585" transform="matrix(1.00, 0.00, -0.00, -1.00, 142.8, 14.0)">u</text><text xml:space="preserve" font-family="Menlo-Regular" font-size="62.1" fill="#858585" transform="matrix(1.00, 0.00, -0.00, -1.00, 180.1, 14.0)">'</text><text xml:space="preserve" font-family="Menlo-Regular" font-size="62.1" fill="#858585" transform="matrix(1.00, 0.00, -0.00, -1.00, 217.5, 14.0)">r</text><text xml:space="preserve" font-family="Menlo-Regular" font-size="62.1" fill="#858585" transform="matrix(1.00, 0.00, -0.00, -1.00, 254.9, 14.0)">e</text><text xml:space="preserve" font-family="Menlo-Regular" font-size="62.1" fill="#858585" transform="matrix(1.00, 0.00, -0.00, -1.00, 292.3, 14.0)"> </text><text xml:space="preserve" font-family="Menlo-Regular" font-size="62.1" fill="#858585" transform="matrix(1.00, 0.00, -0.00, -1.00, 329.7, 14.0)">n</text><text xml:space="preserve" font-family="Menlo-Regular" font-size="62.1" fill="#858585" transform="matrix(1.00, 0.00, -0.00, -1.00, 367.1, 14.0)">o</text><text xml:space="preserve" font-family="Menlo-Regular" font-size="62.1" fill="#858585" transform="matrix(1.00, 0.00, -0.00, -1.00, 404.4, 14.0)">t</text><text xml:space="preserve" font-family="Menlo-Regular" font-size="62.1" fill="#858585" transform="matrix(1.00, 0.00, -0.00, -1.00, 441.8, 14.0)"> </text><text xml:space="preserve" font-family="Menlo-Regular" font-size="62.1" fill="#858585" transform="matrix(1.00, 0.00, -0.00, -1.00, 479.2, 14.0)">c</text><text xml:space="preserve" font-family="Menlo-Regular" font-size="62.1" fill="#858585" transform="matrix(1.00, 0.00, -0.00, -1.00, 516.6, 14.0)">o</text><text xml:space="preserve" font-family="Menlo-Regular" font-size="62.1" fill="#858585" transform="matrix(1.00, 0.00, -0.00, -1.00, 554.0, 14.0)">d</text><text xml:space="preserve" font-family="Menlo-Regular" font-size="62.1" fill="#858585" transform="matrix(1.00, 0.00, -0.00, -1.00, 591.3, 14.0)">i</text><text xml:space="preserve" font-family="Menlo-Regular" font-size="62.1" fill="#858585" transform="matrix(1.00, 0.00, -0.00, -1.00, 628.7, 14.0)">n</text><text xml:space="preserve" font-family="Menlo-Regular" font-size="62.1" fill="#858585" transform="matrix(1.00, 0.00, -0.00, -1.00, 666.1, 14.0)">g</text><text xml:space="preserve" font-family="Menlo-Regular" font-size="62.1" fill="#858585" transform="matrix(1.00, 0.00, -0.00, -1.00, 703.5, 14.0)">.</text></g></svg>