<?xml version="1.0" encoding="UTF-8" standalone="no"?><svg xmlns="http://www.w3.org/2000/svg" xmlns:xlink="http://www.w3.org/1999/xlink" clip-rule="evenodd" stroke-miterlimit="4.00" viewBox="0 0 515 63"><desc>SVG generated by Keynote</desc><defs></defs><g transform="matrix(1.00, 0.00, -0.00, -1.00, 0.0, 63.0)"><g><clipPath id="clip-28"><path d="M 0.0 19.2 L 36.4 19.2 L 36.4 53.1 L 0.0 53.1 Z M 0.0 19.2 "></path></clipPath><g clip-path="url(#clip-28)"><path d="M 35.9 31.3 C 36.2 30.8 36.4 30.3 36.4 29.7 C 36.4 28.7 35.8 27.7 34.6 26.7 C 33.4 25.8 32.0 25.3 30.5 25.3 C 28.5 25.3 26.2 26.8 23.6 29.7 C 23.6 29.7 23.6 25.3 23.6 25.3 C 23.6 24.9 23.7 24.4 23.9 23.8 C 24.2 23.2 24.3 22.7 24.3 22.5 C 24.3 21.5 23.8 20.8 22.9 20.1 C 22.0 19.5 21.1 19.2 20.1 19.2 C 18.5 19.2 17.1 19.9 15.8 21.3 C 15.5 21.7 15.4 22.9 15.5 24.8 C 15.6 26.8 15.7 28.8 15.8 30.8 C 14.8 30.1 12.9 29.0 10.1 27.5 C 9.7 26.9 8.6 26.3 6.6 25.6 C 5.2 25.5 3.7 25.8 2.2 26.5 C 0.7 27.1 0.0 28.0 0.0 29.2 C 0.0 29.5 0.1 29.8 0.2 30.0 C 0.5 30.7 1.1 31.1 2.0 31.4 C 3.5 31.9 4.4 32.2 4.5 32.3 C 4.5 32.3 12.5 36.7 12.5 36.7 C 12.5 36.7 6.9 39.4 6.9 39.4 C 6.0 39.4 4.9 39.8 3.5 40.6 C 3.2 41.0 3.1 41.5 3.1 42.0 C 3.1 43.4 3.9 44.7 5.5 46.0 C 7.1 47.3 8.7 47.9 10.4 47.9 C 10.9 47.9 11.4 47.8 11.9 47.6 C 12.5 47.4 13.0 47.0 13.4 46.2 C 13.9 45.2 14.7 44.3 15.8 43.6 C 15.8 43.6 16.1 48.7 16.1 48.7 C 15.8 49.4 15.8 50.5 16.1 51.8 C 16.7 52.7 18.2 53.1 20.5 53.1 C 22.5 53.1 23.9 52.5 24.6 51.3 C 24.9 50.8 25.0 49.6 24.7 47.8 C 24.6 46.1 24.4 44.5 24.2 42.9 C 24.2 42.9 27.2 44.4 27.2 44.4 C 27.8 45.0 28.9 45.7 30.5 46.4 C 31.7 46.5 32.8 46.0 33.9 45.1 C 35.0 44.1 35.6 43.0 35.6 41.9 C 35.6 41.4 35.4 40.9 35.1 40.5 C 34.8 40.1 34.3 39.8 33.6 39.7 C 32.7 39.4 32.1 39.2 31.8 39.0 C 31.8 39.0 27.4 35.9 27.4 35.9 C 27.4 35.9 33.1 32.8 33.1 32.8 C 33.8 32.6 34.7 32.1 35.9 31.3 Z M 35.9 31.3 " fill="#3995D6"></path></g></g><text xml:space="preserve" font-family="Menlo-Regular" font-size="62.1" fill="#858585" transform="matrix(1.00, 0.00, -0.00, -1.00, 68.0, 15.0)">t</text><text xml:space="preserve" font-family="Menlo-Regular" font-size="62.1" fill="#858585" transform="matrix(1.00, 0.00, -0.00, -1.00, 105.4, 15.0)">i</text><text xml:space="preserve" font-family="Menlo-Regular" font-size="62.1" fill="#858585" transform="matrix(1.00, 0.00, -0.00, -1.00, 142.8, 15.0)">m</text><text xml:space="preserve" font-family="Menlo-Regular" font-size="62.1" fill="#858585" transform="matrix(1.00, 0.00, -0.00, -1.00, 180.1, 15.0)">e</text><text xml:space="preserve" font-family="Menlo-Regular" font-size="62.1" fill="#858585" transform="matrix(1.00, 0.00, -0.00, -1.00, 217.5, 15.0)"> </text><text xml:space="preserve" font-family="Menlo-Regular" font-size="62.1" fill="#858585" transform="matrix(1.00, 0.00, -0.00, -1.00, 254.9, 15.0)">=</text><text xml:space="preserve" font-family="Menlo-Regular" font-size="62.1" fill="#858585" transform="matrix(1.00, 0.00, -0.00, -1.00, 292.3, 15.0)"> </text><text xml:space="preserve" font-family="Menlo-Regular" font-size="62.1" fill="#858585" transform="matrix(1.00, 0.00, -0.00, -1.00, 329.7, 15.0)">m</text><text xml:space="preserve" font-family="Menlo-Regular" font-size="62.1" fill="#858585" transform="matrix(1.00, 0.00, -0.00, -1.00, 367.1, 15.0)">o</text><text xml:space="preserve" font-family="Menlo-Regular" font-size="62.1" fill="#858585" transform="matrix(1.00, 0.00, -0.00, -1.00, 404.4, 15.0)">n</text><text xml:space="preserve" font-family="Menlo-Regular" font-size="62.1" fill="#858585" transform="matrix(1.00, 0.00, -0.00, -1.00, 441.8, 15.0)">e</text><text xml:space="preserve" font-family="Menlo-Regular" font-size="62.1" fill="#858585" transform="matrix(1.00, 0.00, -0.00, -1.00, 479.2, 15.0)">y</text></g></svg>