<?xml version="1.0" encoding="UTF-8" standalone="no"?><svg xmlns="http://www.w3.org/2000/svg" xmlns:xlink="http://www.w3.org/1999/xlink" clip-rule="evenodd" stroke-miterlimit="4.00" viewBox="0 0 1920 1080"><desc>SVG generated by Keynote</desc><defs></defs><g transform="matrix(1.00, 0.00, -0.00, -1.00, 0.0, 1080.0)"><g><clipPath id="clip-35"><path d="M 0.0 1080.0 L 1920.0 1080.0 L 1920.0 0.0 L 0.0 0.0 Z M 0.0 1080.0 "></path></clipPath><g clip-path="url(#clip-35)"><image xlink:href="../../1666277D-D3DF-4E49-BA3E-8D52C1CD64F2/assets/1FDA5CC772C925BAEF499BC77EF4DAF8.jpeg" width="1365.00" height="767.00" transform="matrix(1.41, 0.00, -0.00, -1.41, 0.0, 1080.0)"></image></g></g><g><clipPath id="clip-36"><path d="M 411.0 1038.0 L 1509.0 1038.0 L 1509.0 145.0 L 411.0 145.0 Z M 410.6 1037.8 "></path></clipPath><g clip-path="url(#clip-36)"><image xlink:href="9A9E424EB221600F0C7543AE77CEAF7D.png" width="946.00" height="768.00" transform="matrix(1.16, 0.00, -0.00, -1.16, 411.0, 1038.0)"></image></g></g><image xlink:href="A11325224DB5C2947A8F026D4FAFE14B.png" width="1101.00" height="910.00" transform="matrix(1.00, 0.00, -0.00, 1.00, 409.6, 136.8)"></image><image xlink:href="2622B749EA9657BF19AC42AF9D47DACC.png" width="140.00" height="42.00" transform="matrix(0.99, 0.00, -0.00, -1.00, 890.5, 1062.8)"></image><text xml:space="preserve" font-family="Menlo-Regular" font-size="56.0" fill="#858484" transform="matrix(1.00, 0.00, -0.00, -1.00, 589.0, 54.0)">a</text><text xml:space="preserve" font-family="Menlo-Regular" font-size="56.0" fill="#858484" transform="matrix(1.00, 0.00, -0.00, -1.00, 622.7, 54.0)">l</text><text xml:space="preserve" font-family="Menlo-Regular" font-size="56.0" fill="#858484" transform="matrix(1.00, 0.00, -0.00, -1.00, 656.4, 54.0)">w</text><text xml:space="preserve" font-family="Menlo-Regular" font-size="56.0" fill="#858484" transform="matrix(1.00, 0.00, -0.00, -1.00, 690.2, 54.0)">a</text><text xml:space="preserve" font-family="Menlo-Regular" font-size="56.0" fill="#858484" transform="matrix(1.00, 0.00, -0.00, -1.00, 723.9, 54.0)">y</text><text xml:space="preserve" font-family="Menlo-Regular" font-size="56.0" fill="#858484" transform="matrix(1.00, 0.00, -0.00, -1.00, 757.6, 54.0)">s</text><text xml:space="preserve" font-family="Menlo-Regular" font-size="56.0" fill="#858484" transform="matrix(1.00, 0.00, -0.00, -1.00, 791.3, 54.0)"> </text><text xml:space="preserve" font-family="Menlo-Regular" font-size="56.0" fill="#858484" transform="matrix(1.00, 0.00, -0.00, -1.00, 825.0, 54.0)">a</text><text xml:space="preserve" font-family="Menlo-Regular" font-size="56.0" fill="#858484" transform="matrix(1.00, 0.00, -0.00, -1.00, 858.8, 54.0)"> </text><text xml:space="preserve" font-family="Menlo-Regular" font-size="56.0" fill="#858484" transform="matrix(1.00, 0.00, -0.00, -1.00, 892.5, 54.0)">r</text><text xml:space="preserve" font-family="Menlo-Regular" font-size="56.0" fill="#858484" transform="matrix(1.00, 0.00, -0.00, -1.00, 926.2, 54.0)">e</text><text xml:space="preserve" font-family="Menlo-Regular" font-size="56.0" fill="#858484" transform="matrix(1.00, 0.00, -0.00, -1.00, 959.9, 54.0)">l</text><text xml:space="preserve" font-family="Menlo-Regular" font-size="56.0" fill="#858484" transform="matrix(1.00, 0.00, -0.00, -1.00, 993.6, 54.0)">e</text><text xml:space="preserve" font-family="Menlo-Regular" font-size="56.0" fill="#858484" transform="matrix(1.00, 0.00, -0.00, -1.00, 1027.4, 54.0)">v</text><text xml:space="preserve" font-family="Menlo-Regular" font-size="56.0" fill="#858484" transform="matrix(1.00, 0.00, -0.00, -1.00, 1061.1, 54.0)">a</text><text xml:space="preserve" font-family="Menlo-Regular" font-size="56.0" fill="#858484" transform="matrix(1.00, 0.00, -0.00, -1.00, 1094.8, 54.0)">n</text><text xml:space="preserve" font-family="Menlo-Regular" font-size="56.0" fill="#858484" transform="matrix(1.00, 0.00, -0.00, -1.00, 1128.5, 54.0)">t</text><text xml:space="preserve" font-family="Menlo-Regular" font-size="56.0" fill="#858484" transform="matrix(1.00, 0.00, -0.00, -1.00, 1162.2, 54.0)"> </text><text xml:space="preserve" font-family="Menlo-Regular" font-size="56.0" fill="#858484" transform="matrix(1.00, 0.00, -0.00, -1.00, 1196.0, 54.0)">x</text><text xml:space="preserve" font-family="Menlo-Regular" font-size="56.0" fill="#858484" transform="matrix(1.00, 0.00, -0.00, -1.00, 1229.7, 54.0)">k</text><text xml:space="preserve" font-family="Menlo-Regular" font-size="56.0" fill="#858484" transform="matrix(1.00, 0.00, -0.00, -1.00, 1263.4, 54.0)">c</text><text xml:space="preserve" font-family="Menlo-Regular" font-size="56.0" fill="#858484" transform="matrix(1.00, 0.00, -0.00, -1.00, 1297.1, 54.0)">d</text></g></svg>