<?xml version="1.0" encoding="UTF-8" standalone="no"?><svg xmlns="http://www.w3.org/2000/svg" xmlns:xlink="http://www.w3.org/1999/xlink" clip-rule="evenodd" stroke-miterlimit="4.00" viewBox="0 0 740 111"><desc>SVG generated by Keynote</desc><defs></defs><g transform="matrix(1.00, 0.00, -0.00, -1.00, 0.0, 111.0)"><text xml:space="preserve" font-family="Menlo-Regular" font-size="112.0" fill="#45A6DE" transform="matrix(1.00, 0.00, -0.00, -1.00, 2.0, 24.0)">w</text><text xml:space="preserve" font-family="Menlo-Regular" font-size="112.0" fill="#45A6DE" transform="matrix(1.00, 0.00, -0.00, -1.00, 69.4, 24.0)">h</text><text xml:space="preserve" font-family="Menlo-Regular" font-size="112.0" fill="#45A6DE" transform="matrix(1.00, 0.00, -0.00, -1.00, 136.9, 24.0)">y</text><text xml:space="preserve" font-family="Menlo-Regular" font-size="112.0" fill="#45A6DE" transform="matrix(1.00, 0.00, -0.00, -1.00, 204.3, 24.0)">y</text><text xml:space="preserve" font-family="Menlo-Regular" font-size="112.0" fill="#45A6DE" transform="matrix(1.00, 0.00, -0.00, -1.00, 271.8, 24.0)">y</text><text xml:space="preserve" font-family="Menlo-Regular" font-size="112.0" fill="#45A6DE" transform="matrix(1.00, 0.00, -0.00, -1.00, 339.2, 24.0)">y</text><text xml:space="preserve" font-family="Menlo-Regular" font-size="112.0" fill="#45A6DE" transform="matrix(1.00, 0.00, -0.00, -1.00, 406.6, 24.0)">y</text><text xml:space="preserve" font-family="Menlo-Regular" font-size="112.0" fill="#45A6DE" transform="matrix(1.00, 0.00, -0.00, -1.00, 474.1, 24.0)">y</text><text xml:space="preserve" font-family="Menlo-Regular" font-size="112.0" fill="#45A6DE" transform="matrix(1.00, 0.00, -0.00, -1.00, 541.5, 24.0)">y</text><text xml:space="preserve" font-family="Menlo-Regular" font-size="112.0" fill="#45A6DE" transform="matrix(1.00, 0.00, -0.00, -1.00, 609.0, 24.0)">y</text><text xml:space="preserve" font-family="Menlo-Regular" font-size="112.0" fill="#45A6DE" transform="matrix(1.00, 0.00, -0.00, -1.00, 676.4, 24.0)">y</text></g></svg>