<?xml version="1.0" encoding="UTF-8" standalone="no"?><svg xmlns="http://www.w3.org/2000/svg" xmlns:xlink="http://www.w3.org/1999/xlink" clip-rule="evenodd" stroke-miterlimit="4.00" viewBox="0 0 930 112"><desc>SVG generated by Keynote</desc><defs></defs><g transform="matrix(1.00, 0.00, -0.00, -1.00, 0.0, 112.0)"><text xml:space="preserve" font-family="Menlo-Regular" font-size="112.0" fill="#45A6DE" transform="matrix(1.00, 0.00, -0.00, -1.00, -6.0, 25.0)">d</text><text xml:space="preserve" font-family="Menlo-Regular" font-size="112.0" fill="#45A6DE" transform="matrix(1.00, 0.00, -0.00, -1.00, 61.4, 25.0)">i</text><text xml:space="preserve" font-family="Menlo-Regular" font-size="112.0" fill="#45A6DE" transform="matrix(1.00, 0.00, -0.00, -1.00, 128.9, 25.0)">s</text><text xml:space="preserve" font-family="Menlo-Regular" font-size="112.0" fill="#45A6DE" transform="matrix(1.00, 0.00, -0.00, -1.00, 196.3, 25.0)">a</text><text xml:space="preserve" font-family="Menlo-Regular" font-size="112.0" fill="#45A6DE" transform="matrix(1.00, 0.00, -0.00, -1.00, 263.8, 25.0)">m</text><text xml:space="preserve" font-family="Menlo-Regular" font-size="112.0" fill="#45A6DE" transform="matrix(1.00, 0.00, -0.00, -1.00, 331.2, 25.0)">b</text><text xml:space="preserve" font-family="Menlo-Regular" font-size="112.0" fill="#45A6DE" transform="matrix(1.00, 0.00, -0.00, -1.00, 398.6, 25.0)">i</text><text xml:space="preserve" font-family="Menlo-Regular" font-size="112.0" fill="#45A6DE" transform="matrix(1.00, 0.00, -0.00, -1.00, 466.1, 25.0)">g</text><text xml:space="preserve" font-family="Menlo-Regular" font-size="112.0" fill="#45A6DE" transform="matrix(1.00, 0.00, -0.00, -1.00, 533.5, 25.0)">u</text><text xml:space="preserve" font-family="Menlo-Regular" font-size="112.0" fill="#45A6DE" transform="matrix(1.00, 0.00, -0.00, -1.00, 601.0, 25.0)">a</text><text xml:space="preserve" font-family="Menlo-Regular" font-size="112.0" fill="#45A6DE" transform="matrix(1.00, 0.00, -0.00, -1.00, 668.4, 25.0)">t</text><text xml:space="preserve" font-family="Menlo-Regular" font-size="112.0" fill="#45A6DE" transform="matrix(1.00, 0.00, -0.00, -1.00, 735.8, 25.0)">i</text><text xml:space="preserve" font-family="Menlo-Regular" font-size="112.0" fill="#45A6DE" transform="matrix(1.00, 0.00, -0.00, -1.00, 803.3, 25.0)">o</text><text xml:space="preserve" font-family="Menlo-Regular" font-size="112.0" fill="#45A6DE" transform="matrix(1.00, 0.00, -0.00, -1.00, 870.7, 25.0)">n</text></g></svg>