<?xml version="1.0" encoding="UTF-8" standalone="no"?><svg xmlns="http://www.w3.org/2000/svg" xmlns:xlink="http://www.w3.org/1999/xlink" clip-rule="evenodd" stroke-miterlimit="4.00" viewBox="0 0 1920 1080"><desc>SVG generated by Keynote</desc><defs></defs><g transform="matrix(1.00, 0.00, -0.00, -1.00, 0.0, 1080.0)"><g><clipPath id="clip-144"><path d="M 0.0 1080.0 L 1920.0 1080.0 L 1920.0 0.0 L 0.0 0.0 Z M 0.0 1080.0 "></path></clipPath><g clip-path="url(#clip-144)"><image xlink:href="../../1666277D-D3DF-4E49-BA3E-8D52C1CD64F2/assets/1FDA5CC772C925BAEF499BC77EF4DAF8.jpeg" width="1365.00" height="767.00" transform="matrix(1.41, 0.00, -0.00, -1.41, 0.0, 1080.0)"></image></g></g><text xml:space="preserve" font-family="Menlo-Regular" font-size="112.0" fill="#45A6DE" transform="matrix(1.00, 0.00, -0.00, -1.00, 286.0, 940.0)">d</text><text xml:space="preserve" font-family="Menlo-Regular" font-size="112.0" fill="#45A6DE" transform="matrix(1.00, 0.00, -0.00, -1.00, 353.4, 940.0)">e</text><text xml:space="preserve" font-family="Menlo-Regular" font-size="112.0" fill="#45A6DE" transform="matrix(1.00, 0.00, -0.00, -1.00, 420.9, 940.0)">c</text><text xml:space="preserve" font-family="Menlo-Regular" font-size="112.0" fill="#45A6DE" transform="matrix(1.00, 0.00, -0.00, -1.00, 488.3, 940.0)">l</text><text xml:space="preserve" font-family="Menlo-Regular" font-size="112.0" fill="#45A6DE" transform="matrix(1.00, 0.00, -0.00, -1.00, 555.8, 940.0)">a</text><text xml:space="preserve" font-family="Menlo-Regular" font-size="112.0" fill="#45A6DE" transform="matrix(1.00, 0.00, -0.00, -1.00, 623.2, 940.0)">r</text><text xml:space="preserve" font-family="Menlo-Regular" font-size="112.0" fill="#45A6DE" transform="matrix(1.00, 0.00, -0.00, -1.00, 690.6, 940.0)">a</text><text xml:space="preserve" font-family="Menlo-Regular" font-size="112.0" fill="#45A6DE" transform="matrix(1.00, 0.00, -0.00, -1.00, 758.1, 940.0)">t</text><text xml:space="preserve" font-family="Menlo-Regular" font-size="112.0" fill="#45A6DE" transform="matrix(1.00, 0.00, -0.00, -1.00, 825.5, 940.0)">i</text><text xml:space="preserve" font-family="Menlo-Regular" font-size="112.0" fill="#45A6DE" transform="matrix(1.00, 0.00, -0.00, -1.00, 893.0, 940.0)">v</text><text xml:space="preserve" font-family="Menlo-Regular" font-size="112.0" fill="#45A6DE" transform="matrix(1.00, 0.00, -0.00, -1.00, 960.4, 940.0)">e</text><text xml:space="preserve" font-family="Menlo-Regular" font-size="112.0" fill="#45A6DE" transform="matrix(1.00, 0.00, -0.00, -1.00, 1027.8, 940.0)"> </text><text xml:space="preserve" font-family="Menlo-Regular" font-size="112.0" fill="#45A6DE" transform="matrix(1.00, 0.00, -0.00, -1.00, 1095.3, 940.0)">p</text><text xml:space="preserve" font-family="Menlo-Regular" font-size="112.0" fill="#45A6DE" transform="matrix(1.00, 0.00, -0.00, -1.00, 1162.7, 940.0)">i</text><text xml:space="preserve" font-family="Menlo-Regular" font-size="112.0" fill="#45A6DE" transform="matrix(1.00, 0.00, -0.00, -1.00, 1230.2, 940.0)">p</text><text xml:space="preserve" font-family="Menlo-Regular" font-size="112.0" fill="#45A6DE" transform="matrix(1.00, 0.00, -0.00, -1.00, 1297.6, 940.0)">e</text><text xml:space="preserve" font-family="Menlo-Regular" font-size="112.0" fill="#45A6DE" transform="matrix(1.00, 0.00, -0.00, -1.00, 1365.1, 940.0)">l</text><text xml:space="preserve" font-family="Menlo-Regular" font-size="112.0" fill="#45A6DE" transform="matrix(1.00, 0.00, -0.00, -1.00, 1432.5, 940.0)">i</text><text xml:space="preserve" font-family="Menlo-Regular" font-size="112.0" fill="#45A6DE" transform="matrix(1.00, 0.00, -0.00, -1.00, 1499.9, 940.0)">n</text><text xml:space="preserve" font-family="Menlo-Regular" font-size="112.0" fill="#45A6DE" transform="matrix(1.00, 0.00, -0.00, -1.00, 1567.4, 940.0)">e</text><g><clipPath id="clip-145"><path d="M 192.0 505.7 L 229.5 505.7 L 229.5 540.8 L 192.0 540.8 Z M 192.0 505.7 "></path></clipPath><g clip-path="url(#clip-145)"><path d="M 229.0 518.3 C 229.4 517.8 229.5 517.2 229.5 516.6 C 229.5 515.5 228.9 514.5 227.7 513.6 C 226.4 512.6 225.0 512.1 223.5 512.1 C 221.4 512.1 219.0 513.6 216.3 516.6 C 216.3 516.6 216.3 512.1 216.3 512.1 C 216.3 511.7 216.4 511.2 216.7 510.5 C 216.9 509.9 217.1 509.4 217.1 509.2 C 217.1 508.2 216.6 507.4 215.6 506.7 C 214.7 506.1 213.7 505.7 212.8 505.7 C 211.1 505.7 209.6 506.5 208.3 507.9 C 208.0 508.4 207.9 509.6 208.0 511.6 C 208.1 513.6 208.2 515.7 208.3 517.7 C 207.3 517.0 205.3 515.9 202.4 514.3 C 202.0 513.7 200.8 513.1 198.8 512.4 C 197.4 512.3 195.9 512.6 194.3 513.3 C 192.8 514.0 192.0 514.9 192.0 516.1 C 192.0 516.4 192.1 516.7 192.2 517.0 C 192.5 517.6 193.1 518.1 194.1 518.4 C 195.6 518.9 196.5 519.2 196.6 519.3 C 196.6 519.3 204.9 523.8 204.9 523.8 C 204.9 523.8 199.1 526.7 199.1 526.7 C 198.2 526.7 197.0 527.1 195.6 527.9 C 195.3 528.3 195.2 528.8 195.2 529.3 C 195.2 530.7 196.0 532.1 197.7 533.4 C 199.3 534.7 201.0 535.4 202.7 535.4 C 203.2 535.4 203.8 535.3 204.3 535.1 C 204.9 534.9 205.4 534.4 205.8 533.6 C 206.3 532.6 207.2 531.7 208.3 531.0 C 208.3 531.0 208.6 536.2 208.6 536.2 C 208.3 537.0 208.3 538.0 208.6 539.4 C 209.2 540.3 210.7 540.8 213.1 540.8 C 215.2 540.8 216.7 540.1 217.4 538.9 C 217.7 538.4 217.7 537.2 217.5 535.3 C 217.4 533.6 217.2 531.9 217.0 530.2 C 217.0 530.2 220.0 531.7 220.0 531.7 C 220.6 532.4 221.8 533.1 223.5 533.8 C 224.6 533.9 225.8 533.4 226.9 532.4 C 228.1 531.5 228.7 530.4 228.7 529.2 C 228.7 528.7 228.5 528.2 228.2 527.8 C 227.9 527.3 227.4 527.0 226.7 526.9 C 225.7 526.7 225.1 526.4 224.8 526.2 C 224.8 526.2 220.3 523.0 220.3 523.0 C 220.3 523.0 226.1 519.8 226.1 519.8 C 226.9 519.6 227.8 519.1 229.0 518.3 Z M 229.0 518.3 " fill="#3995D6"></path></g></g><text xml:space="preserve" font-family="Menlo-Regular" font-size="64.0" fill="#858585" transform="matrix(1.00, 0.00, -0.00, -1.00, 262.0, 501.0)">n</text><text xml:space="preserve" font-family="Menlo-Regular" font-size="64.0" fill="#858585" transform="matrix(1.00, 0.00, -0.00, -1.00, 300.5, 501.0)">e</text><text xml:space="preserve" font-family="Menlo-Regular" font-size="64.0" fill="#858585" transform="matrix(1.00, 0.00, -0.00, -1.00, 339.1, 501.0)">w</text><text xml:space="preserve" font-family="Menlo-Regular" font-size="64.0" fill="#858585" transform="matrix(1.00, 0.00, -0.00, -1.00, 377.6, 501.0)"> </text><text xml:space="preserve" font-family="Menlo-Regular" font-size="64.0" fill="#858585" transform="matrix(1.00, 0.00, -0.00, -1.00, 416.2, 501.0)">&amp;</text><text xml:space="preserve" font-family="Menlo-Regular" font-size="64.0" fill="#858585" transform="matrix(1.00, 0.00, -0.00, -1.00, 454.7, 501.0)"> </text><text xml:space="preserve" font-family="Menlo-Regular" font-size="64.0" fill="#858585" transform="matrix(1.00, 0.00, -0.00, -1.00, 493.2, 501.0)">n</text><text xml:space="preserve" font-family="Menlo-Regular" font-size="64.0" fill="#858585" transform="matrix(1.00, 0.00, -0.00, -1.00, 531.8, 501.0)">e</text><text xml:space="preserve" font-family="Menlo-Regular" font-size="64.0" fill="#858585" transform="matrix(1.00, 0.00, -0.00, -1.00, 570.3, 501.0)">a</text><text xml:space="preserve" font-family="Menlo-Regular" font-size="64.0" fill="#858585" transform="matrix(1.00, 0.00, -0.00, -1.00, 608.8, 501.0)">t</text><text xml:space="preserve" font-family="Menlo-Regular" font-size="64.0" fill="#858585" transform="matrix(1.00, 0.00, -0.00, -1.00, 647.4, 501.0)">o</text><text xml:space="preserve" font-family="Menlo-Regular" font-size="64.0" fill="#858585" transform="matrix(1.00, 0.00, -0.00, -1.00, 685.9, 501.0)"> </text><g><clipPath id="clip-146"><path d="M 192.0 372.7 L 229.5 372.7 L 229.5 407.8 L 192.0 407.8 Z M 192.0 372.7 "></path></clipPath><g clip-path="url(#clip-146)"><path d="M 229.0 385.3 C 229.4 384.8 229.5 384.2 229.5 383.6 C 229.5 382.5 228.9 381.5 227.7 380.6 C 226.4 379.6 225.0 379.1 223.5 379.1 C 221.4 379.1 219.0 380.6 216.3 383.6 C 216.3 383.6 216.3 379.1 216.3 379.1 C 216.3 378.7 216.4 378.2 216.7 377.5 C 216.9 376.9 217.1 376.4 217.1 376.2 C 217.1 375.2 216.6 374.4 215.6 373.7 C 214.7 373.1 213.7 372.7 212.8 372.7 C 211.1 372.7 209.6 373.5 208.3 374.9 C 208.0 375.4 207.9 376.6 208.0 378.6 C 208.1 380.6 208.2 382.7 208.3 384.7 C 207.3 384.0 205.3 382.9 202.4 381.3 C 202.0 380.7 200.8 380.1 198.8 379.4 C 197.4 379.3 195.9 379.6 194.3 380.3 C 192.8 381.0 192.0 381.9 192.0 383.1 C 192.0 383.4 192.1 383.7 192.2 384.0 C 192.5 384.6 193.1 385.1 194.1 385.4 C 195.6 385.9 196.5 386.2 196.6 386.3 C 196.6 386.3 204.9 390.8 204.9 390.8 C 204.9 390.8 199.1 393.7 199.1 393.7 C 198.2 393.7 197.0 394.1 195.6 394.9 C 195.3 395.3 195.2 395.8 195.2 396.3 C 195.2 397.7 196.0 399.1 197.7 400.4 C 199.3 401.7 201.0 402.4 202.7 402.4 C 203.2 402.4 203.8 402.3 204.3 402.1 C 204.9 401.9 205.4 401.4 205.8 400.6 C 206.3 399.6 207.2 398.7 208.3 398.0 C 208.3 398.0 208.6 403.2 208.6 403.2 C 208.3 404.0 208.3 405.0 208.6 406.4 C 209.2 407.3 210.7 407.8 213.1 407.8 C 215.2 407.8 216.7 407.1 217.4 405.9 C 217.7 405.4 217.7 404.2 217.5 402.3 C 217.4 400.6 217.2 398.9 217.0 397.2 C 217.0 397.2 220.0 398.7 220.0 398.7 C 220.6 399.4 221.8 400.1 223.5 400.8 C 224.6 400.9 225.8 400.4 226.9 399.4 C 228.1 398.5 228.7 397.4 228.7 396.2 C 228.7 395.7 228.5 395.2 228.2 394.8 C 227.9 394.3 227.4 394.0 226.7 393.9 C 225.7 393.7 225.1 393.4 224.8 393.2 C 224.8 393.2 220.3 390.0 220.3 390.0 C 220.3 390.0 226.1 386.8 226.1 386.8 C 226.9 386.6 227.8 386.1 229.0 385.3 Z M 229.0 385.3 " fill="#3995D6"></path></g></g><text xml:space="preserve" font-family="Menlo-Regular" font-size="64.0" fill="#858585" transform="matrix(1.00, 0.00, -0.00, -1.00, 262.0, 368.0)">l</text><text xml:space="preserve" font-family="Menlo-Regular" font-size="64.0" fill="#858585" transform="matrix(1.00, 0.00, -0.00, -1.00, 300.5, 368.0)">o</text><text xml:space="preserve" font-family="Menlo-Regular" font-size="64.0" fill="#858585" transform="matrix(1.00, 0.00, -0.00, -1.00, 339.1, 368.0)">o</text><text xml:space="preserve" font-family="Menlo-Regular" font-size="64.0" fill="#858585" transform="matrix(1.00, 0.00, -0.00, -1.00, 377.6, 368.0)">k</text><text xml:space="preserve" font-family="Menlo-Regular" font-size="64.0" fill="#858585" transform="matrix(1.00, 0.00, -0.00, -1.00, 416.2, 368.0)"> </text><text xml:space="preserve" font-family="Menlo-Regular" font-size="64.0" fill="#858585" transform="matrix(1.00, 0.00, -0.00, -1.00, 454.7, 368.0)">f</text><text xml:space="preserve" font-family="Menlo-Regular" font-size="64.0" fill="#858585" transform="matrix(1.00, 0.00, -0.00, -1.00, 493.2, 368.0)">a</text><text xml:space="preserve" font-family="Menlo-Regular" font-size="64.0" fill="#858585" transform="matrix(1.00, 0.00, -0.00, -1.00, 531.8, 368.0)">m</text><text xml:space="preserve" font-family="Menlo-Regular" font-size="64.0" fill="#858585" transform="matrix(1.00, 0.00, -0.00, -1.00, 570.3, 368.0)">i</text><text xml:space="preserve" font-family="Menlo-Regular" font-size="64.0" fill="#858585" transform="matrix(1.00, 0.00, -0.00, -1.00, 608.8, 368.0)">l</text><text xml:space="preserve" font-family="Menlo-Regular" font-size="64.0" fill="#858585" transform="matrix(1.00, 0.00, -0.00, -1.00, 647.4, 368.0)">i</text><text xml:space="preserve" font-family="Menlo-Regular" font-size="64.0" fill="#858585" transform="matrix(1.00, 0.00, -0.00, -1.00, 685.9, 368.0)">a</text><text xml:space="preserve" font-family="Menlo-Regular" font-size="64.0" fill="#858585" transform="matrix(1.00, 0.00, -0.00, -1.00, 724.5, 368.0)">r</text><text xml:space="preserve" font-family="Menlo-Regular" font-size="64.0" fill="#858585" transform="matrix(1.00, 0.00, -0.00, -1.00, 763.0, 368.0)">?</text><text xml:space="preserve" font-family="Monaco" font-size="33.4" fill="#000000" transform="matrix(1.00, 0.00, -0.00, -1.00, 946.0, 846.0)">p</text><text xml:space="preserve" font-family="Monaco" font-size="33.4" fill="#000000" transform="matrix(1.00, 0.00, -0.00, -1.00, 966.1, 846.0)">i</text><text xml:space="preserve" font-family="Monaco" font-size="33.4" fill="#000000" transform="matrix(1.00, 0.00, -0.00, -1.00, 986.1, 846.0)">p</text><text xml:space="preserve" font-family="Monaco" font-size="33.4" fill="#000000" transform="matrix(1.00, 0.00, -0.00, -1.00, 1006.2, 846.0)">e</text><text xml:space="preserve" font-family="Monaco" font-size="33.4" fill="#000000" transform="matrix(1.00, 0.00, -0.00, -1.00, 1026.3, 846.0)">l</text><text xml:space="preserve" font-family="Monaco" font-size="33.4" fill="#000000" transform="matrix(1.00, 0.00, -0.00, -1.00, 1046.4, 846.0)">i</text><text xml:space="preserve" font-family="Monaco" font-size="33.4" fill="#000000" transform="matrix(1.00, 0.00, -0.00, -1.00, 1066.4, 846.0)">n</text><text xml:space="preserve" font-family="Monaco" font-size="33.4" fill="#000000" transform="matrix(1.00, 0.00, -0.00, -1.00, 1086.5, 846.0)">e</text><text xml:space="preserve" font-family="Monaco" font-size="33.4" fill="#000000" transform="matrix(1.00, 0.00, -0.00, -1.00, 1106.6, 846.0)"> </text><text xml:space="preserve" font-family="Monaco" font-size="33.4" fill="#000000" transform="matrix(1.00, 0.00, -0.00, -1.00, 1126.6, 846.0)">{</text><text xml:space="preserve" font-family="Monaco" font-size="33.4" fill="#000000" transform="matrix(1.00, 0.00, -0.00, -1.00, 946.0, 802.0)"> </text><text xml:space="preserve" font-family="Monaco" font-size="33.4" fill="#000000" transform="matrix(1.00, 0.00, -0.00, -1.00, 966.1, 802.0)"> </text><text xml:space="preserve" font-family="Monaco" font-size="33.4" fill="#000000" transform="matrix(1.00, 0.00, -0.00, -1.00, 986.1, 802.0)">a</text><text xml:space="preserve" font-family="Monaco" font-size="33.4" fill="#000000" transform="matrix(1.00, 0.00, -0.00, -1.00, 1006.2, 802.0)">g</text><text xml:space="preserve" font-family="Monaco" font-size="33.4" fill="#000000" transform="matrix(1.00, 0.00, -0.00, -1.00, 1026.3, 802.0)">e</text><text xml:space="preserve" font-family="Monaco" font-size="33.4" fill="#000000" transform="matrix(1.00, 0.00, -0.00, -1.00, 1046.4, 802.0)">n</text><text xml:space="preserve" font-family="Monaco" font-size="33.4" fill="#000000" transform="matrix(1.00, 0.00, -0.00, -1.00, 1066.4, 802.0)">t</text><text xml:space="preserve" font-family="Monaco" font-size="33.4" fill="#000000" transform="matrix(1.00, 0.00, -0.00, -1.00, 1086.5, 802.0)"> </text><text xml:space="preserve" font-family="Monaco" font-size="33.4" fill="#000000" transform="matrix(1.00, 0.00, -0.00, -1.00, 1106.6, 802.0)">{</text><text xml:space="preserve" font-family="Monaco" font-size="33.4" fill="#000000" transform="matrix(1.00, 0.00, -0.00, -1.00, 946.0, 758.0)"> </text><text xml:space="preserve" font-family="Monaco" font-size="33.4" fill="#000000" transform="matrix(1.00, 0.00, -0.00, -1.00, 966.1, 758.0)"> </text><text xml:space="preserve" font-family="Monaco" font-size="33.4" fill="#000000" transform="matrix(1.00, 0.00, -0.00, -1.00, 986.1, 758.0)"> </text><text xml:space="preserve" font-family="Monaco" font-size="33.4" fill="#000000" transform="matrix(1.00, 0.00, -0.00, -1.00, 1006.2, 758.0)"> </text><text xml:space="preserve" font-family="Monaco" font-size="33.4" fill="#000000" transform="matrix(1.00, 0.00, -0.00, -1.00, 1026.3, 758.0)">l</text><text xml:space="preserve" font-family="Monaco" font-size="33.4" fill="#000000" transform="matrix(1.00, 0.00, -0.00, -1.00, 1046.4, 758.0)">a</text><text xml:space="preserve" font-family="Monaco" font-size="33.4" fill="#000000" transform="matrix(1.00, 0.00, -0.00, -1.00, 1066.4, 758.0)">b</text><text xml:space="preserve" font-family="Monaco" font-size="33.4" fill="#000000" transform="matrix(1.00, 0.00, -0.00, -1.00, 1086.5, 758.0)">e</text><text xml:space="preserve" font-family="Monaco" font-size="33.4" fill="#000000" transform="matrix(1.00, 0.00, -0.00, -1.00, 1106.6, 758.0)">l</text><text xml:space="preserve" font-family="Monaco" font-size="33.4" fill="#000000" transform="matrix(1.00, 0.00, -0.00, -1.00, 1126.6, 758.0)"> </text><text xml:space="preserve" font-family="Monaco" font-size="33.4" fill="#C8352B" transform="matrix(1.00, 0.00, -0.00, -1.00, 1146.7, 758.0)">'</text><text xml:space="preserve" font-family="Monaco" font-size="33.4" fill="#C8352B" transform="matrix(1.00, 0.00, -0.00, -1.00, 1166.7, 758.0)">d</text><text xml:space="preserve" font-family="Monaco" font-size="33.4" fill="#C8352B" transform="matrix(1.00, 0.00, -0.00, -1.00, 1186.8, 758.0)">o</text><text xml:space="preserve" font-family="Monaco" font-size="33.4" fill="#C8352B" transform="matrix(1.00, 0.00, -0.00, -1.00, 1206.9, 758.0)">c</text><text xml:space="preserve" font-family="Monaco" font-size="33.4" fill="#C8352B" transform="matrix(1.00, 0.00, -0.00, -1.00, 1227.0, 758.0)">k</text><text xml:space="preserve" font-family="Monaco" font-size="33.4" fill="#C8352B" transform="matrix(1.00, 0.00, -0.00, -1.00, 1247.0, 758.0)">e</text><text xml:space="preserve" font-family="Monaco" font-size="33.4" fill="#C8352B" transform="matrix(1.00, 0.00, -0.00, -1.00, 1267.1, 758.0)">r</text><text xml:space="preserve" font-family="Monaco" font-size="33.4" fill="#C8352B" transform="matrix(1.00, 0.00, -0.00, -1.00, 1287.2, 758.0)">'</text><text xml:space="preserve" font-family="Monaco" font-size="33.4" fill="#000000" transform="matrix(1.00, 0.00, -0.00, -1.00, 946.0, 714.0)"> </text><text xml:space="preserve" font-family="Monaco" font-size="33.4" fill="#000000" transform="matrix(1.00, 0.00, -0.00, -1.00, 966.1, 714.0)"> </text><text xml:space="preserve" font-family="Monaco" font-size="33.4" fill="#000000" transform="matrix(1.00, 0.00, -0.00, -1.00, 986.1, 714.0)">}</text><text xml:space="preserve" font-family="Monaco" font-size="33.4" fill="#000000" transform="matrix(1.00, 0.00, -0.00, -1.00, 946.0, 670.0)"> </text><text xml:space="preserve" font-family="Monaco" font-size="33.4" fill="#000000" transform="matrix(1.00, 0.00, -0.00, -1.00, 966.1, 670.0)"> </text><text xml:space="preserve" font-family="Monaco" font-size="33.4" fill="#000000" transform="matrix(1.00, 0.00, -0.00, -1.00, 986.1, 670.0)">e</text><text xml:space="preserve" font-family="Monaco" font-size="33.4" fill="#000000" transform="matrix(1.00, 0.00, -0.00, -1.00, 1006.2, 670.0)">n</text><text xml:space="preserve" font-family="Monaco" font-size="33.4" fill="#000000" transform="matrix(1.00, 0.00, -0.00, -1.00, 1026.3, 670.0)">v</text><text xml:space="preserve" font-family="Monaco" font-size="33.4" fill="#000000" transform="matrix(1.00, 0.00, -0.00, -1.00, 1046.4, 670.0)">i</text><text xml:space="preserve" font-family="Monaco" font-size="33.4" fill="#000000" transform="matrix(1.00, 0.00, -0.00, -1.00, 1066.4, 670.0)">r</text><text xml:space="preserve" font-family="Monaco" font-size="33.4" fill="#000000" transform="matrix(1.00, 0.00, -0.00, -1.00, 1086.5, 670.0)">o</text><text xml:space="preserve" font-family="Monaco" font-size="33.4" fill="#000000" transform="matrix(1.00, 0.00, -0.00, -1.00, 1106.6, 670.0)">n</text><text xml:space="preserve" font-family="Monaco" font-size="33.4" fill="#000000" transform="matrix(1.00, 0.00, -0.00, -1.00, 1126.6, 670.0)">m</text><text xml:space="preserve" font-family="Monaco" font-size="33.4" fill="#000000" transform="matrix(1.00, 0.00, -0.00, -1.00, 1146.7, 670.0)">e</text><text xml:space="preserve" font-family="Monaco" font-size="33.4" fill="#000000" transform="matrix(1.00, 0.00, -0.00, -1.00, 1166.8, 670.0)">n</text><text xml:space="preserve" font-family="Monaco" font-size="33.4" fill="#000000" transform="matrix(1.00, 0.00, -0.00, -1.00, 1186.8, 670.0)">t</text><text xml:space="preserve" font-family="Monaco" font-size="33.4" fill="#000000" transform="matrix(1.00, 0.00, -0.00, -1.00, 1206.9, 670.0)"> </text><text xml:space="preserve" font-family="Monaco" font-size="33.4" fill="#000000" transform="matrix(1.00, 0.00, -0.00, -1.00, 1227.0, 670.0)">{</text><text xml:space="preserve" font-family="Monaco" font-size="33.4" fill="#000000" transform="matrix(1.00, 0.00, -0.00, -1.00, 946.0, 626.0)"> </text><text xml:space="preserve" font-family="Monaco" font-size="33.4" fill="#000000" transform="matrix(1.00, 0.00, -0.00, -1.00, 966.1, 626.0)"> </text><text xml:space="preserve" font-family="Monaco" font-size="33.4" fill="#000000" transform="matrix(1.00, 0.00, -0.00, -1.00, 986.1, 626.0)"> </text><text xml:space="preserve" font-family="Monaco" font-size="33.4" fill="#000000" transform="matrix(1.00, 0.00, -0.00, -1.00, 1006.2, 626.0)"> </text><text xml:space="preserve" font-family="Monaco" font-size="33.4" fill="#000000" transform="matrix(1.00, 0.00, -0.00, -1.00, 1026.3, 626.0)">P</text><text xml:space="preserve" font-family="Monaco" font-size="33.4" fill="#000000" transform="matrix(1.00, 0.00, -0.00, -1.00, 1046.4, 626.0)">O</text><text xml:space="preserve" font-family="Monaco" font-size="33.4" fill="#000000" transform="matrix(1.00, 0.00, -0.00, -1.00, 1066.4, 626.0)">R</text><text xml:space="preserve" font-family="Monaco" font-size="33.4" fill="#000000" transform="matrix(1.00, 0.00, -0.00, -1.00, 1086.5, 626.0)">T</text><text xml:space="preserve" font-family="Monaco" font-size="33.4" fill="#797979" transform="matrix(1.00, 0.00, -0.00, -1.00, 1106.5, 626.0)">=</text><text xml:space="preserve" font-family="Monaco" font-size="33.4" fill="#C8352B" transform="matrix(1.00, 0.00, -0.00, -1.00, 1126.6, 626.0)">"</text><text xml:space="preserve" font-family="Monaco" font-size="33.4" fill="#C8352B" transform="matrix(1.00, 0.00, -0.00, -1.00, 1146.7, 626.0)">8</text><text xml:space="preserve" font-family="Monaco" font-size="33.4" fill="#C8352B" transform="matrix(1.00, 0.00, -0.00, -1.00, 1166.7, 626.0)">0</text><text xml:space="preserve" font-family="Monaco" font-size="33.4" fill="#C8352B" transform="matrix(1.00, 0.00, -0.00, -1.00, 1186.8, 626.0)">8</text><text xml:space="preserve" font-family="Monaco" font-size="33.4" fill="#C8352B" transform="matrix(1.00, 0.00, -0.00, -1.00, 1206.9, 626.0)">0</text><text xml:space="preserve" font-family="Monaco" font-size="33.4" fill="#C8352B" transform="matrix(1.00, 0.00, -0.00, -1.00, 1227.0, 626.0)">"</text><text xml:space="preserve" font-family="Monaco" font-size="33.4" fill="#000000" transform="matrix(1.00, 0.00, -0.00, -1.00, 946.0, 582.0)"> </text><text xml:space="preserve" font-family="Monaco" font-size="33.4" fill="#000000" transform="matrix(1.00, 0.00, -0.00, -1.00, 966.1, 582.0)"> </text><text xml:space="preserve" font-family="Monaco" font-size="33.4" fill="#000000" transform="matrix(1.00, 0.00, -0.00, -1.00, 986.1, 582.0)">}</text><text xml:space="preserve" font-family="Monaco" font-size="33.4" fill="#000000" transform="matrix(1.00, 0.00, -0.00, -1.00, 946.0, 538.0)"> </text><text xml:space="preserve" font-family="Monaco" font-size="33.4" fill="#000000" transform="matrix(1.00, 0.00, -0.00, -1.00, 966.1, 538.0)"> </text><text xml:space="preserve" font-family="Monaco" font-size="33.4" fill="#000000" transform="matrix(1.00, 0.00, -0.00, -1.00, 986.1, 538.0)">s</text><text xml:space="preserve" font-family="Monaco" font-size="33.4" fill="#000000" transform="matrix(1.00, 0.00, -0.00, -1.00, 1006.2, 538.0)">t</text><text xml:space="preserve" font-family="Monaco" font-size="33.4" fill="#000000" transform="matrix(1.00, 0.00, -0.00, -1.00, 1026.3, 538.0)">a</text><text xml:space="preserve" font-family="Monaco" font-size="33.4" fill="#000000" transform="matrix(1.00, 0.00, -0.00, -1.00, 1046.4, 538.0)">g</text><text xml:space="preserve" font-family="Monaco" font-size="33.4" fill="#000000" transform="matrix(1.00, 0.00, -0.00, -1.00, 1066.4, 538.0)">e</text><text xml:space="preserve" font-family="Monaco" font-size="33.4" fill="#000000" transform="matrix(1.00, 0.00, -0.00, -1.00, 1086.5, 538.0)">s</text><text xml:space="preserve" font-family="Monaco" font-size="33.4" fill="#000000" transform="matrix(1.00, 0.00, -0.00, -1.00, 1106.6, 538.0)"> </text><text xml:space="preserve" font-family="Monaco" font-size="33.4" fill="#000000" transform="matrix(1.00, 0.00, -0.00, -1.00, 1126.6, 538.0)">{</text><text xml:space="preserve" font-family="Monaco" font-size="33.4" fill="#000000" transform="matrix(1.00, 0.00, -0.00, -1.00, 946.0, 494.0)"> </text><text xml:space="preserve" font-family="Monaco" font-size="33.4" fill="#000000" transform="matrix(1.00, 0.00, -0.00, -1.00, 966.1, 494.0)"> </text><text xml:space="preserve" font-family="Monaco" font-size="33.4" fill="#000000" transform="matrix(1.00, 0.00, -0.00, -1.00, 986.1, 494.0)"> </text><text xml:space="preserve" font-family="Monaco" font-size="33.4" fill="#000000" transform="matrix(1.00, 0.00, -0.00, -1.00, 1006.2, 494.0)"> </text><text xml:space="preserve" font-family="Monaco" font-size="33.4" fill="#000000" transform="matrix(1.00, 0.00, -0.00, -1.00, 1026.3, 494.0)">s</text><text xml:space="preserve" font-family="Monaco" font-size="33.4" fill="#000000" transform="matrix(1.00, 0.00, -0.00, -1.00, 1046.4, 494.0)">t</text><text xml:space="preserve" font-family="Monaco" font-size="33.4" fill="#000000" transform="matrix(1.00, 0.00, -0.00, -1.00, 1066.4, 494.0)">a</text><text xml:space="preserve" font-family="Monaco" font-size="33.4" fill="#000000" transform="matrix(1.00, 0.00, -0.00, -1.00, 1086.5, 494.0)">g</text><text xml:space="preserve" font-family="Monaco" font-size="33.4" fill="#000000" transform="matrix(1.00, 0.00, -0.00, -1.00, 1106.6, 494.0)">e</text><text xml:space="preserve" font-family="Monaco" font-size="33.4" fill="#000000" transform="matrix(1.00, 0.00, -0.00, -1.00, 1126.6, 494.0)">(</text><text xml:space="preserve" font-family="Monaco" font-size="33.4" fill="#C8352B" transform="matrix(1.00, 0.00, -0.00, -1.00, 1146.7, 494.0)">'</text><text xml:space="preserve" font-family="Monaco" font-size="33.4" fill="#C8352B" transform="matrix(1.00, 0.00, -0.00, -1.00, 1166.7, 494.0)">T</text><text xml:space="preserve" font-family="Monaco" font-size="33.4" fill="#C8352B" transform="matrix(1.00, 0.00, -0.00, -1.00, 1186.8, 494.0)">e</text><text xml:space="preserve" font-family="Monaco" font-size="33.4" fill="#C8352B" transform="matrix(1.00, 0.00, -0.00, -1.00, 1206.9, 494.0)">s</text><text xml:space="preserve" font-family="Monaco" font-size="33.4" fill="#C8352B" transform="matrix(1.00, 0.00, -0.00, -1.00, 1227.0, 494.0)">t</text><text xml:space="preserve" font-family="Monaco" font-size="33.4" fill="#C8352B" transform="matrix(1.00, 0.00, -0.00, -1.00, 1247.0, 494.0)">'</text><text xml:space="preserve" font-family="Monaco" font-size="33.4" fill="#000000" transform="matrix(1.00, 0.00, -0.00, -1.00, 1267.1, 494.0)">)</text><text xml:space="preserve" font-family="Monaco" font-size="33.4" fill="#000000" transform="matrix(1.00, 0.00, -0.00, -1.00, 1287.1, 494.0)"> </text><text xml:space="preserve" font-family="Monaco" font-size="33.4" fill="#000000" transform="matrix(1.00, 0.00, -0.00, -1.00, 1307.2, 494.0)">{</text><text xml:space="preserve" font-family="Monaco" font-size="33.4" fill="#000000" transform="matrix(1.00, 0.00, -0.00, -1.00, 946.0, 450.0)"> </text><text xml:space="preserve" font-family="Monaco" font-size="33.4" fill="#000000" transform="matrix(1.00, 0.00, -0.00, -1.00, 966.1, 450.0)"> </text><text xml:space="preserve" font-family="Monaco" font-size="33.4" fill="#000000" transform="matrix(1.00, 0.00, -0.00, -1.00, 986.1, 450.0)"> </text><text xml:space="preserve" font-family="Monaco" font-size="33.4" fill="#000000" transform="matrix(1.00, 0.00, -0.00, -1.00, 1006.2, 450.0)"> </text><text xml:space="preserve" font-family="Monaco" font-size="33.4" fill="#000000" transform="matrix(1.00, 0.00, -0.00, -1.00, 1026.3, 450.0)"> </text><text xml:space="preserve" font-family="Monaco" font-size="33.4" fill="#000000" transform="matrix(1.00, 0.00, -0.00, -1.00, 1046.4, 450.0)"> </text><text xml:space="preserve" font-family="Monaco" font-size="33.4" fill="#000000" transform="matrix(1.00, 0.00, -0.00, -1.00, 1066.4, 450.0)">s</text><text xml:space="preserve" font-family="Monaco" font-size="33.4" fill="#000000" transform="matrix(1.00, 0.00, -0.00, -1.00, 1086.5, 450.0)">t</text><text xml:space="preserve" font-family="Monaco" font-size="33.4" fill="#000000" transform="matrix(1.00, 0.00, -0.00, -1.00, 1106.6, 450.0)">e</text><text xml:space="preserve" font-family="Monaco" font-size="33.4" fill="#000000" transform="matrix(1.00, 0.00, -0.00, -1.00, 1126.6, 450.0)">p</text><text xml:space="preserve" font-family="Monaco" font-size="33.4" fill="#000000" transform="matrix(1.00, 0.00, -0.00, -1.00, 1146.7, 450.0)">s</text><text xml:space="preserve" font-family="Monaco" font-size="33.4" fill="#000000" transform="matrix(1.00, 0.00, -0.00, -1.00, 1166.8, 450.0)"> </text><text xml:space="preserve" font-family="Monaco" font-size="33.4" fill="#000000" transform="matrix(1.00, 0.00, -0.00, -1.00, 1186.8, 450.0)">{</text><text xml:space="preserve" font-family="Monaco" font-size="33.4" fill="#000000" transform="matrix(1.00, 0.00, -0.00, -1.00, 946.0, 406.0)"> </text><text xml:space="preserve" font-family="Monaco" font-size="33.4" fill="#000000" transform="matrix(1.00, 0.00, -0.00, -1.00, 966.1, 406.0)"> </text><text xml:space="preserve" font-family="Monaco" font-size="33.4" fill="#000000" transform="matrix(1.00, 0.00, -0.00, -1.00, 986.1, 406.0)"> </text><text xml:space="preserve" font-family="Monaco" font-size="33.4" fill="#000000" transform="matrix(1.00, 0.00, -0.00, -1.00, 1006.2, 406.0)"> </text><text xml:space="preserve" font-family="Monaco" font-size="33.4" fill="#000000" transform="matrix(1.00, 0.00, -0.00, -1.00, 1026.3, 406.0)"> </text><text xml:space="preserve" font-family="Monaco" font-size="33.4" fill="#000000" transform="matrix(1.00, 0.00, -0.00, -1.00, 1046.4, 406.0)"> </text><text xml:space="preserve" font-family="Monaco" font-size="33.4" fill="#000000" transform="matrix(1.00, 0.00, -0.00, -1.00, 1066.4, 406.0)"> </text><text xml:space="preserve" font-family="Monaco" font-size="33.4" fill="#000000" transform="matrix(1.00, 0.00, -0.00, -1.00, 1086.5, 406.0)"> </text><text xml:space="preserve" font-family="Monaco" font-size="33.4" fill="#000000" transform="matrix(1.00, 0.00, -0.00, -1.00, 1106.6, 406.0)">s</text><text xml:space="preserve" font-family="Monaco" font-size="33.4" fill="#000000" transform="matrix(1.00, 0.00, -0.00, -1.00, 1126.6, 406.0)">h</text><text xml:space="preserve" font-family="Monaco" font-size="33.4" fill="#000000" transform="matrix(1.00, 0.00, -0.00, -1.00, 1146.7, 406.0)"> </text><text xml:space="preserve" font-family="Monaco" font-size="33.4" fill="#C8352B" transform="matrix(1.00, 0.00, -0.00, -1.00, 1166.7, 406.0)">'</text><text xml:space="preserve" font-family="Monaco" font-size="33.4" fill="#C8352B" transform="matrix(1.00, 0.00, -0.00, -1.00, 1186.8, 406.0)">n</text><text xml:space="preserve" font-family="Monaco" font-size="33.4" fill="#C8352B" transform="matrix(1.00, 0.00, -0.00, -1.00, 1206.9, 406.0)">p</text><text xml:space="preserve" font-family="Monaco" font-size="33.4" fill="#C8352B" transform="matrix(1.00, 0.00, -0.00, -1.00, 1227.0, 406.0)">m</text><text xml:space="preserve" font-family="Monaco" font-size="33.4" fill="#C8352B" transform="matrix(1.00, 0.00, -0.00, -1.00, 1247.0, 406.0)"> </text><text xml:space="preserve" font-family="Monaco" font-size="33.4" fill="#C8352B" transform="matrix(1.00, 0.00, -0.00, -1.00, 1267.1, 406.0)">r</text><text xml:space="preserve" font-family="Monaco" font-size="33.4" fill="#C8352B" transform="matrix(1.00, 0.00, -0.00, -1.00, 1287.2, 406.0)">u</text><text xml:space="preserve" font-family="Monaco" font-size="33.4" fill="#C8352B" transform="matrix(1.00, 0.00, -0.00, -1.00, 1307.2, 406.0)">n</text><text xml:space="preserve" font-family="Monaco" font-size="33.4" fill="#C8352B" transform="matrix(1.00, 0.00, -0.00, -1.00, 1327.3, 406.0)"> </text><text xml:space="preserve" font-family="Monaco" font-size="33.4" fill="#C8352B" transform="matrix(1.00, 0.00, -0.00, -1.00, 1347.4, 406.0)">t</text><text xml:space="preserve" font-family="Monaco" font-size="33.4" fill="#C8352B" transform="matrix(1.00, 0.00, -0.00, -1.00, 1367.4, 406.0)">e</text><text xml:space="preserve" font-family="Monaco" font-size="33.4" fill="#C8352B" transform="matrix(1.00, 0.00, -0.00, -1.00, 1387.5, 406.0)">s</text><text xml:space="preserve" font-family="Monaco" font-size="33.4" fill="#C8352B" transform="matrix(1.00, 0.00, -0.00, -1.00, 1407.6, 406.0)">t</text><text xml:space="preserve" font-family="Monaco" font-size="33.4" fill="#C8352B" transform="matrix(1.00, 0.00, -0.00, -1.00, 1427.7, 406.0)">'</text><text xml:space="preserve" font-family="Monaco" font-size="33.4" fill="#000000" transform="matrix(1.00, 0.00, -0.00, -1.00, 946.0, 362.0)"> </text><text xml:space="preserve" font-family="Monaco" font-size="33.4" fill="#000000" transform="matrix(1.00, 0.00, -0.00, -1.00, 966.1, 362.0)"> </text><text xml:space="preserve" font-family="Monaco" font-size="33.4" fill="#000000" transform="matrix(1.00, 0.00, -0.00, -1.00, 986.1, 362.0)"> </text><text xml:space="preserve" font-family="Monaco" font-size="33.4" fill="#000000" transform="matrix(1.00, 0.00, -0.00, -1.00, 1006.2, 362.0)"> </text><text xml:space="preserve" font-family="Monaco" font-size="33.4" fill="#000000" transform="matrix(1.00, 0.00, -0.00, -1.00, 1026.3, 362.0)"> </text><text xml:space="preserve" font-family="Monaco" font-size="33.4" fill="#000000" transform="matrix(1.00, 0.00, -0.00, -1.00, 1046.4, 362.0)"> </text><text xml:space="preserve" font-family="Monaco" font-size="33.4" fill="#000000" transform="matrix(1.00, 0.00, -0.00, -1.00, 1066.4, 362.0)">}</text><text xml:space="preserve" font-family="Monaco" font-size="33.4" fill="#000000" transform="matrix(1.00, 0.00, -0.00, -1.00, 946.0, 318.0)"> </text><text xml:space="preserve" font-family="Monaco" font-size="33.4" fill="#000000" transform="matrix(1.00, 0.00, -0.00, -1.00, 966.1, 318.0)"> </text><text xml:space="preserve" font-family="Monaco" font-size="33.4" fill="#000000" transform="matrix(1.00, 0.00, -0.00, -1.00, 986.1, 318.0)"> </text><text xml:space="preserve" font-family="Monaco" font-size="33.4" fill="#000000" transform="matrix(1.00, 0.00, -0.00, -1.00, 1006.2, 318.0)"> </text><text xml:space="preserve" font-family="Monaco" font-size="33.4" fill="#000000" transform="matrix(1.00, 0.00, -0.00, -1.00, 1026.3, 318.0)">}</text><text xml:space="preserve" font-family="Monaco" font-size="33.4" fill="#000000" transform="matrix(1.00, 0.00, -0.00, -1.00, 946.0, 274.0)"> </text><text xml:space="preserve" font-family="Monaco" font-size="33.4" fill="#000000" transform="matrix(1.00, 0.00, -0.00, -1.00, 966.1, 274.0)"> </text><text xml:space="preserve" font-family="Monaco" font-size="33.4" fill="#000000" transform="matrix(1.00, 0.00, -0.00, -1.00, 986.1, 274.0)">}</text><text xml:space="preserve" font-family="Monaco" font-size="33.4" fill="#000000" transform="matrix(1.00, 0.00, -0.00, -1.00, 946.0, 230.0)"> </text><text xml:space="preserve" font-family="Monaco" font-size="33.4" fill="#000000" transform="matrix(1.00, 0.00, -0.00, -1.00, 966.1, 230.0)"> </text><text xml:space="preserve" font-family="Monaco" font-size="33.4" fill="#000000" transform="matrix(1.00, 0.00, -0.00, -1.00, 986.1, 230.0)">p</text><text xml:space="preserve" font-family="Monaco" font-size="33.4" fill="#000000" transform="matrix(1.00, 0.00, -0.00, -1.00, 1006.2, 230.0)">o</text><text xml:space="preserve" font-family="Monaco" font-size="33.4" fill="#000000" transform="matrix(1.00, 0.00, -0.00, -1.00, 1026.3, 230.0)">s</text><text xml:space="preserve" font-family="Monaco" font-size="33.4" fill="#000000" transform="matrix(1.00, 0.00, -0.00, -1.00, 1046.4, 230.0)">t</text><text xml:space="preserve" font-family="Monaco" font-size="33.4" fill="#000000" transform="matrix(1.00, 0.00, -0.00, -1.00, 1066.4, 230.0)"> </text><text xml:space="preserve" font-family="Monaco" font-size="33.4" fill="#000000" transform="matrix(1.00, 0.00, -0.00, -1.00, 1086.5, 230.0)">{</text><text xml:space="preserve" font-family="Monaco" font-size="33.4" fill="#000000" transform="matrix(1.00, 0.00, -0.00, -1.00, 946.0, 186.0)"> </text><text xml:space="preserve" font-family="Monaco" font-size="33.4" fill="#000000" transform="matrix(1.00, 0.00, -0.00, -1.00, 966.1, 186.0)"> </text><text xml:space="preserve" font-family="Monaco" font-size="33.4" fill="#000000" transform="matrix(1.00, 0.00, -0.00, -1.00, 986.1, 186.0)"> </text><text xml:space="preserve" font-family="Monaco" font-size="33.4" fill="#000000" transform="matrix(1.00, 0.00, -0.00, -1.00, 1006.2, 186.0)"> </text><text xml:space="preserve" font-family="Monaco" font-size="33.4" fill="#000000" transform="matrix(1.00, 0.00, -0.00, -1.00, 1026.3, 186.0)">f</text><text xml:space="preserve" font-family="Monaco" font-size="33.4" fill="#000000" transform="matrix(1.00, 0.00, -0.00, -1.00, 1046.4, 186.0)">a</text><text xml:space="preserve" font-family="Monaco" font-size="33.4" fill="#000000" transform="matrix(1.00, 0.00, -0.00, -1.00, 1066.4, 186.0)">i</text><text xml:space="preserve" font-family="Monaco" font-size="33.4" fill="#000000" transform="matrix(1.00, 0.00, -0.00, -1.00, 1086.5, 186.0)">l</text><text xml:space="preserve" font-family="Monaco" font-size="33.4" fill="#000000" transform="matrix(1.00, 0.00, -0.00, -1.00, 1106.6, 186.0)">u</text><text xml:space="preserve" font-family="Monaco" font-size="33.4" fill="#000000" transform="matrix(1.00, 0.00, -0.00, -1.00, 1126.6, 186.0)">r</text><text xml:space="preserve" font-family="Monaco" font-size="33.4" fill="#000000" transform="matrix(1.00, 0.00, -0.00, -1.00, 1146.7, 186.0)">e</text><text xml:space="preserve" font-family="Monaco" font-size="33.4" fill="#000000" transform="matrix(1.00, 0.00, -0.00, -1.00, 1166.8, 186.0)"> </text><text xml:space="preserve" font-family="Monaco" font-size="33.4" fill="#000000" transform="matrix(1.00, 0.00, -0.00, -1.00, 1186.8, 186.0)">{</text><text xml:space="preserve" font-family="Monaco" font-size="33.4" fill="#000000" transform="matrix(1.00, 0.00, -0.00, -1.00, 946.0, 142.0)"> </text><text xml:space="preserve" font-family="Monaco" font-size="33.4" fill="#000000" transform="matrix(1.00, 0.00, -0.00, -1.00, 966.1, 142.0)"> </text><text xml:space="preserve" font-family="Monaco" font-size="33.4" fill="#000000" transform="matrix(1.00, 0.00, -0.00, -1.00, 986.1, 142.0)"> </text><text xml:space="preserve" font-family="Monaco" font-size="33.4" fill="#000000" transform="matrix(1.00, 0.00, -0.00, -1.00, 1006.2, 142.0)"> </text><text xml:space="preserve" font-family="Monaco" font-size="33.4" fill="#000000" transform="matrix(1.00, 0.00, -0.00, -1.00, 1026.3, 142.0)"> </text><text xml:space="preserve" font-family="Monaco" font-size="33.4" fill="#000000" transform="matrix(1.00, 0.00, -0.00, -1.00, 1046.4, 142.0)"> </text><text xml:space="preserve" font-family="Monaco" font-size="33.4" fill="#000000" transform="matrix(1.00, 0.00, -0.00, -1.00, 1066.4, 142.0)">s</text><text xml:space="preserve" font-family="Monaco" font-size="33.4" fill="#000000" transform="matrix(1.00, 0.00, -0.00, -1.00, 1086.5, 142.0)">h</text><text xml:space="preserve" font-family="Monaco" font-size="33.4" fill="#000000" transform="matrix(1.00, 0.00, -0.00, -1.00, 1106.6, 142.0)"> </text><text xml:space="preserve" font-family="Monaco" font-size="33.4" fill="#C8352B" transform="matrix(1.00, 0.00, -0.00, -1.00, 1126.6, 142.0)">'</text><text xml:space="preserve" font-family="Monaco" font-size="33.4" fill="#C8352B" transform="matrix(1.00, 0.00, -0.00, -1.00, 1146.7, 142.0)">e</text><text xml:space="preserve" font-family="Monaco" font-size="33.4" fill="#C8352B" transform="matrix(1.00, 0.00, -0.00, -1.00, 1166.7, 142.0)">c</text><text xml:space="preserve" font-family="Monaco" font-size="33.4" fill="#C8352B" transform="matrix(1.00, 0.00, -0.00, -1.00, 1186.8, 142.0)">h</text><text xml:space="preserve" font-family="Monaco" font-size="33.4" fill="#C8352B" transform="matrix(1.00, 0.00, -0.00, -1.00, 1206.9, 142.0)">o</text><text xml:space="preserve" font-family="Monaco" font-size="33.4" fill="#C8352B" transform="matrix(1.00, 0.00, -0.00, -1.00, 1227.0, 142.0)"> </text><text xml:space="preserve" font-family="Monaco" font-size="33.4" fill="#C8352B" transform="matrix(1.00, 0.00, -0.00, -1.00, 1247.0, 142.0)">u</text><text xml:space="preserve" font-family="Monaco" font-size="33.4" fill="#C8352B" transform="matrix(1.00, 0.00, -0.00, -1.00, 1267.1, 142.0)">h</text><text xml:space="preserve" font-family="Monaco" font-size="33.4" fill="#C8352B" transform="matrix(1.00, 0.00, -0.00, -1.00, 1287.2, 142.0)">-</text><text xml:space="preserve" font-family="Monaco" font-size="33.4" fill="#C8352B" transform="matrix(1.00, 0.00, -0.00, -1.00, 1307.2, 142.0)">o</text><text xml:space="preserve" font-family="Monaco" font-size="33.4" fill="#C8352B" transform="matrix(1.00, 0.00, -0.00, -1.00, 1327.3, 142.0)">h</text><text xml:space="preserve" font-family="Monaco" font-size="33.4" fill="#C8352B" transform="matrix(1.00, 0.00, -0.00, -1.00, 1347.4, 142.0)">.</text><text xml:space="preserve" font-family="Monaco" font-size="33.4" fill="#C8352B" transform="matrix(1.00, 0.00, -0.00, -1.00, 1367.5, 142.0)">.</text><text xml:space="preserve" font-family="Monaco" font-size="33.4" fill="#C8352B" transform="matrix(1.00, 0.00, -0.00, -1.00, 1387.5, 142.0)">.</text><text xml:space="preserve" font-family="Monaco" font-size="33.4" fill="#C8352B" transform="matrix(1.00, 0.00, -0.00, -1.00, 1407.6, 142.0)">'</text><text xml:space="preserve" font-family="Monaco" font-size="33.4" fill="#000000" transform="matrix(1.00, 0.00, -0.00, -1.00, 946.0, 98.0)"> </text><text xml:space="preserve" font-family="Monaco" font-size="33.4" fill="#000000" transform="matrix(1.00, 0.00, -0.00, -1.00, 966.1, 98.0)"> </text><text xml:space="preserve" font-family="Monaco" font-size="33.4" fill="#000000" transform="matrix(1.00, 0.00, -0.00, -1.00, 986.1, 98.0)"> </text><text xml:space="preserve" font-family="Monaco" font-size="33.4" fill="#000000" transform="matrix(1.00, 0.00, -0.00, -1.00, 1006.2, 98.0)"> </text><text xml:space="preserve" font-family="Monaco" font-size="33.4" fill="#000000" transform="matrix(1.00, 0.00, -0.00, -1.00, 1026.3, 98.0)">}</text><text xml:space="preserve" font-family="Monaco" font-size="33.4" fill="#000000" transform="matrix(1.00, 0.00, -0.00, -1.00, 946.0, 54.0)"> </text><text xml:space="preserve" font-family="Monaco" font-size="33.4" fill="#000000" transform="matrix(1.00, 0.00, -0.00, -1.00, 966.1, 54.0)"> </text><text xml:space="preserve" font-family="Monaco" font-size="33.4" fill="#000000" transform="matrix(1.00, 0.00, -0.00, -1.00, 986.1, 54.0)">}</text><text xml:space="preserve" font-family="Monaco" font-size="33.4" fill="#000000" transform="matrix(1.00, 0.00, -0.00, -1.00, 946.0, 10.0)">}</text></g></svg>