<?xml version="1.0" encoding="UTF-8" standalone="no"?><svg xmlns="http://www.w3.org/2000/svg" xmlns:xlink="http://www.w3.org/1999/xlink" clip-rule="evenodd" stroke-miterlimit="4.00" viewBox="0 0 504 873"><desc>SVG generated by Keynote</desc><defs></defs><g transform="matrix(1.00, 0.00, -0.00, -1.00, 0.0, 873.0)"><text xml:space="preserve" font-family="Monaco" font-size="33.4" fill="#000000" transform="matrix(1.00, 0.00, -0.00, -1.00, 1.0, 843.0)">p</text><text xml:space="preserve" font-family="Monaco" font-size="33.4" fill="#000000" transform="matrix(1.00, 0.00, -0.00, -1.00, 21.1, 843.0)">i</text><text xml:space="preserve" font-family="Monaco" font-size="33.4" fill="#000000" transform="matrix(1.00, 0.00, -0.00, -1.00, 41.1, 843.0)">p</text><text xml:space="preserve" font-family="Monaco" font-size="33.4" fill="#000000" transform="matrix(1.00, 0.00, -0.00, -1.00, 61.2, 843.0)">e</text><text xml:space="preserve" font-family="Monaco" font-size="33.4" fill="#000000" transform="matrix(1.00, 0.00, -0.00, -1.00, 81.3, 843.0)">l</text><text xml:space="preserve" font-family="Monaco" font-size="33.4" fill="#000000" transform="matrix(1.00, 0.00, -0.00, -1.00, 101.4, 843.0)">i</text><text xml:space="preserve" font-family="Monaco" font-size="33.4" fill="#000000" transform="matrix(1.00, 0.00, -0.00, -1.00, 121.4, 843.0)">n</text><text xml:space="preserve" font-family="Monaco" font-size="33.4" fill="#000000" transform="matrix(1.00, 0.00, -0.00, -1.00, 141.5, 843.0)">e</text><text xml:space="preserve" font-family="Monaco" font-size="33.4" fill="#000000" transform="matrix(1.00, 0.00, -0.00, -1.00, 161.6, 843.0)"> </text><text xml:space="preserve" font-family="Monaco" font-size="33.4" fill="#000000" transform="matrix(1.00, 0.00, -0.00, -1.00, 181.6, 843.0)">{</text><text xml:space="preserve" font-family="Monaco" font-size="33.4" fill="#000000" transform="matrix(1.00, 0.00, -0.00, -1.00, 1.0, 799.0)"> </text><text xml:space="preserve" font-family="Monaco" font-size="33.4" fill="#000000" transform="matrix(1.00, 0.00, -0.00, -1.00, 21.1, 799.0)"> </text><text xml:space="preserve" font-family="Monaco" font-size="33.4" fill="#000000" transform="matrix(1.00, 0.00, -0.00, -1.00, 41.1, 799.0)">a</text><text xml:space="preserve" font-family="Monaco" font-size="33.4" fill="#000000" transform="matrix(1.00, 0.00, -0.00, -1.00, 61.2, 799.0)">g</text><text xml:space="preserve" font-family="Monaco" font-size="33.4" fill="#000000" transform="matrix(1.00, 0.00, -0.00, -1.00, 81.3, 799.0)">e</text><text xml:space="preserve" font-family="Monaco" font-size="33.4" fill="#000000" transform="matrix(1.00, 0.00, -0.00, -1.00, 101.4, 799.0)">n</text><text xml:space="preserve" font-family="Monaco" font-size="33.4" fill="#000000" transform="matrix(1.00, 0.00, -0.00, -1.00, 121.4, 799.0)">t</text><text xml:space="preserve" font-family="Monaco" font-size="33.4" fill="#000000" transform="matrix(1.00, 0.00, -0.00, -1.00, 141.5, 799.0)"> </text><text xml:space="preserve" font-family="Monaco" font-size="33.4" fill="#000000" transform="matrix(1.00, 0.00, -0.00, -1.00, 161.6, 799.0)">{</text><text xml:space="preserve" font-family="Monaco" font-size="33.4" fill="#000000" transform="matrix(1.00, 0.00, -0.00, -1.00, 1.0, 755.0)"> </text><text xml:space="preserve" font-family="Monaco" font-size="33.4" fill="#000000" transform="matrix(1.00, 0.00, -0.00, -1.00, 21.1, 755.0)"> </text><text xml:space="preserve" font-family="Monaco" font-size="33.4" fill="#000000" transform="matrix(1.00, 0.00, -0.00, -1.00, 41.1, 755.0)"> </text><text xml:space="preserve" font-family="Monaco" font-size="33.4" fill="#000000" transform="matrix(1.00, 0.00, -0.00, -1.00, 61.2, 755.0)"> </text><text xml:space="preserve" font-family="Monaco" font-size="33.4" fill="#000000" transform="matrix(1.00, 0.00, -0.00, -1.00, 81.3, 755.0)">l</text><text xml:space="preserve" font-family="Monaco" font-size="33.4" fill="#000000" transform="matrix(1.00, 0.00, -0.00, -1.00, 101.4, 755.0)">a</text><text xml:space="preserve" font-family="Monaco" font-size="33.4" fill="#000000" transform="matrix(1.00, 0.00, -0.00, -1.00, 121.4, 755.0)">b</text><text xml:space="preserve" font-family="Monaco" font-size="33.4" fill="#000000" transform="matrix(1.00, 0.00, -0.00, -1.00, 141.5, 755.0)">e</text><text xml:space="preserve" font-family="Monaco" font-size="33.4" fill="#000000" transform="matrix(1.00, 0.00, -0.00, -1.00, 161.6, 755.0)">l</text><text xml:space="preserve" font-family="Monaco" font-size="33.4" fill="#000000" transform="matrix(1.00, 0.00, -0.00, -1.00, 181.6, 755.0)"> </text><text xml:space="preserve" font-family="Monaco" font-size="33.4" fill="#C8352B" transform="matrix(1.00, 0.00, -0.00, -1.00, 201.7, 755.0)">'</text><text xml:space="preserve" font-family="Monaco" font-size="33.4" fill="#C8352B" transform="matrix(1.00, 0.00, -0.00, -1.00, 221.7, 755.0)">d</text><text xml:space="preserve" font-family="Monaco" font-size="33.4" fill="#C8352B" transform="matrix(1.00, 0.00, -0.00, -1.00, 241.8, 755.0)">o</text><text xml:space="preserve" font-family="Monaco" font-size="33.4" fill="#C8352B" transform="matrix(1.00, 0.00, -0.00, -1.00, 261.9, 755.0)">c</text><text xml:space="preserve" font-family="Monaco" font-size="33.4" fill="#C8352B" transform="matrix(1.00, 0.00, -0.00, -1.00, 282.0, 755.0)">k</text><text xml:space="preserve" font-family="Monaco" font-size="33.4" fill="#C8352B" transform="matrix(1.00, 0.00, -0.00, -1.00, 302.0, 755.0)">e</text><text xml:space="preserve" font-family="Monaco" font-size="33.4" fill="#C8352B" transform="matrix(1.00, 0.00, -0.00, -1.00, 322.1, 755.0)">r</text><text xml:space="preserve" font-family="Monaco" font-size="33.4" fill="#C8352B" transform="matrix(1.00, 0.00, -0.00, -1.00, 342.2, 755.0)">'</text><text xml:space="preserve" font-family="Monaco" font-size="33.4" fill="#000000" transform="matrix(1.00, 0.00, -0.00, -1.00, 1.0, 711.0)"> </text><text xml:space="preserve" font-family="Monaco" font-size="33.4" fill="#000000" transform="matrix(1.00, 0.00, -0.00, -1.00, 21.1, 711.0)"> </text><text xml:space="preserve" font-family="Monaco" font-size="33.4" fill="#000000" transform="matrix(1.00, 0.00, -0.00, -1.00, 41.1, 711.0)">}</text><text xml:space="preserve" font-family="Monaco" font-size="33.4" fill="#000000" transform="matrix(1.00, 0.00, -0.00, -1.00, 1.0, 667.0)"> </text><text xml:space="preserve" font-family="Monaco" font-size="33.4" fill="#000000" transform="matrix(1.00, 0.00, -0.00, -1.00, 21.1, 667.0)"> </text><text xml:space="preserve" font-family="Monaco" font-size="33.4" fill="#000000" transform="matrix(1.00, 0.00, -0.00, -1.00, 41.1, 667.0)">e</text><text xml:space="preserve" font-family="Monaco" font-size="33.4" fill="#000000" transform="matrix(1.00, 0.00, -0.00, -1.00, 61.2, 667.0)">n</text><text xml:space="preserve" font-family="Monaco" font-size="33.4" fill="#000000" transform="matrix(1.00, 0.00, -0.00, -1.00, 81.3, 667.0)">v</text><text xml:space="preserve" font-family="Monaco" font-size="33.4" fill="#000000" transform="matrix(1.00, 0.00, -0.00, -1.00, 101.4, 667.0)">i</text><text xml:space="preserve" font-family="Monaco" font-size="33.4" fill="#000000" transform="matrix(1.00, 0.00, -0.00, -1.00, 121.4, 667.0)">r</text><text xml:space="preserve" font-family="Monaco" font-size="33.4" fill="#000000" transform="matrix(1.00, 0.00, -0.00, -1.00, 141.5, 667.0)">o</text><text xml:space="preserve" font-family="Monaco" font-size="33.4" fill="#000000" transform="matrix(1.00, 0.00, -0.00, -1.00, 161.6, 667.0)">n</text><text xml:space="preserve" font-family="Monaco" font-size="33.4" fill="#000000" transform="matrix(1.00, 0.00, -0.00, -1.00, 181.6, 667.0)">m</text><text xml:space="preserve" font-family="Monaco" font-size="33.4" fill="#000000" transform="matrix(1.00, 0.00, -0.00, -1.00, 201.7, 667.0)">e</text><text xml:space="preserve" font-family="Monaco" font-size="33.4" fill="#000000" transform="matrix(1.00, 0.00, -0.00, -1.00, 221.8, 667.0)">n</text><text xml:space="preserve" font-family="Monaco" font-size="33.4" fill="#000000" transform="matrix(1.00, 0.00, -0.00, -1.00, 241.8, 667.0)">t</text><text xml:space="preserve" font-family="Monaco" font-size="33.4" fill="#000000" transform="matrix(1.00, 0.00, -0.00, -1.00, 261.9, 667.0)"> </text><text xml:space="preserve" font-family="Monaco" font-size="33.4" fill="#000000" transform="matrix(1.00, 0.00, -0.00, -1.00, 282.0, 667.0)">{</text><text xml:space="preserve" font-family="Monaco" font-size="33.4" fill="#000000" transform="matrix(1.00, 0.00, -0.00, -1.00, 1.0, 623.0)"> </text><text xml:space="preserve" font-family="Monaco" font-size="33.4" fill="#000000" transform="matrix(1.00, 0.00, -0.00, -1.00, 21.1, 623.0)"> </text><text xml:space="preserve" font-family="Monaco" font-size="33.4" fill="#000000" transform="matrix(1.00, 0.00, -0.00, -1.00, 41.1, 623.0)"> </text><text xml:space="preserve" font-family="Monaco" font-size="33.4" fill="#000000" transform="matrix(1.00, 0.00, -0.00, -1.00, 61.2, 623.0)"> </text><text xml:space="preserve" font-family="Monaco" font-size="33.4" fill="#000000" transform="matrix(1.00, 0.00, -0.00, -1.00, 81.3, 623.0)">P</text><text xml:space="preserve" font-family="Monaco" font-size="33.4" fill="#000000" transform="matrix(1.00, 0.00, -0.00, -1.00, 101.4, 623.0)">O</text><text xml:space="preserve" font-family="Monaco" font-size="33.4" fill="#000000" transform="matrix(1.00, 0.00, -0.00, -1.00, 121.4, 623.0)">R</text><text xml:space="preserve" font-family="Monaco" font-size="33.4" fill="#000000" transform="matrix(1.00, 0.00, -0.00, -1.00, 141.5, 623.0)">T</text><text xml:space="preserve" font-family="Monaco" font-size="33.4" fill="#797979" transform="matrix(1.00, 0.00, -0.00, -1.00, 161.5, 623.0)">=</text><text xml:space="preserve" font-family="Monaco" font-size="33.4" fill="#C8352B" transform="matrix(1.00, 0.00, -0.00, -1.00, 181.6, 623.0)">"</text><text xml:space="preserve" font-family="Monaco" font-size="33.4" fill="#C8352B" transform="matrix(1.00, 0.00, -0.00, -1.00, 201.7, 623.0)">8</text><text xml:space="preserve" font-family="Monaco" font-size="33.4" fill="#C8352B" transform="matrix(1.00, 0.00, -0.00, -1.00, 221.7, 623.0)">0</text><text xml:space="preserve" font-family="Monaco" font-size="33.4" fill="#C8352B" transform="matrix(1.00, 0.00, -0.00, -1.00, 241.8, 623.0)">8</text><text xml:space="preserve" font-family="Monaco" font-size="33.4" fill="#C8352B" transform="matrix(1.00, 0.00, -0.00, -1.00, 261.9, 623.0)">0</text><text xml:space="preserve" font-family="Monaco" font-size="33.4" fill="#C8352B" transform="matrix(1.00, 0.00, -0.00, -1.00, 282.0, 623.0)">"</text><text xml:space="preserve" font-family="Monaco" font-size="33.4" fill="#000000" transform="matrix(1.00, 0.00, -0.00, -1.00, 1.0, 579.0)"> </text><text xml:space="preserve" font-family="Monaco" font-size="33.4" fill="#000000" transform="matrix(1.00, 0.00, -0.00, -1.00, 21.1, 579.0)"> </text><text xml:space="preserve" font-family="Monaco" font-size="33.4" fill="#000000" transform="matrix(1.00, 0.00, -0.00, -1.00, 41.1, 579.0)">}</text><text xml:space="preserve" font-family="Monaco" font-size="33.4" fill="#000000" transform="matrix(1.00, 0.00, -0.00, -1.00, 1.0, 535.0)"> </text><text xml:space="preserve" font-family="Monaco" font-size="33.4" fill="#000000" transform="matrix(1.00, 0.00, -0.00, -1.00, 21.1, 535.0)"> </text><text xml:space="preserve" font-family="Monaco" font-size="33.4" fill="#000000" transform="matrix(1.00, 0.00, -0.00, -1.00, 41.1, 535.0)">s</text><text xml:space="preserve" font-family="Monaco" font-size="33.4" fill="#000000" transform="matrix(1.00, 0.00, -0.00, -1.00, 61.2, 535.0)">t</text><text xml:space="preserve" font-family="Monaco" font-size="33.4" fill="#000000" transform="matrix(1.00, 0.00, -0.00, -1.00, 81.3, 535.0)">a</text><text xml:space="preserve" font-family="Monaco" font-size="33.4" fill="#000000" transform="matrix(1.00, 0.00, -0.00, -1.00, 101.4, 535.0)">g</text><text xml:space="preserve" font-family="Monaco" font-size="33.4" fill="#000000" transform="matrix(1.00, 0.00, -0.00, -1.00, 121.4, 535.0)">e</text><text xml:space="preserve" font-family="Monaco" font-size="33.4" fill="#000000" transform="matrix(1.00, 0.00, -0.00, -1.00, 141.5, 535.0)">s</text><text xml:space="preserve" font-family="Monaco" font-size="33.4" fill="#000000" transform="matrix(1.00, 0.00, -0.00, -1.00, 161.6, 535.0)"> </text><text xml:space="preserve" font-family="Monaco" font-size="33.4" fill="#000000" transform="matrix(1.00, 0.00, -0.00, -1.00, 181.6, 535.0)">{</text><text xml:space="preserve" font-family="Monaco" font-size="33.4" fill="#000000" transform="matrix(1.00, 0.00, -0.00, -1.00, 1.0, 491.0)"> </text><text xml:space="preserve" font-family="Monaco" font-size="33.4" fill="#000000" transform="matrix(1.00, 0.00, -0.00, -1.00, 21.1, 491.0)"> </text><text xml:space="preserve" font-family="Monaco" font-size="33.4" fill="#000000" transform="matrix(1.00, 0.00, -0.00, -1.00, 41.1, 491.0)"> </text><text xml:space="preserve" font-family="Monaco" font-size="33.4" fill="#000000" transform="matrix(1.00, 0.00, -0.00, -1.00, 61.2, 491.0)"> </text><text xml:space="preserve" font-family="Monaco" font-size="33.4" fill="#000000" transform="matrix(1.00, 0.00, -0.00, -1.00, 81.3, 491.0)">s</text><text xml:space="preserve" font-family="Monaco" font-size="33.4" fill="#000000" transform="matrix(1.00, 0.00, -0.00, -1.00, 101.4, 491.0)">t</text><text xml:space="preserve" font-family="Monaco" font-size="33.4" fill="#000000" transform="matrix(1.00, 0.00, -0.00, -1.00, 121.4, 491.0)">a</text><text xml:space="preserve" font-family="Monaco" font-size="33.4" fill="#000000" transform="matrix(1.00, 0.00, -0.00, -1.00, 141.5, 491.0)">g</text><text xml:space="preserve" font-family="Monaco" font-size="33.4" fill="#000000" transform="matrix(1.00, 0.00, -0.00, -1.00, 161.6, 491.0)">e</text><text xml:space="preserve" font-family="Monaco" font-size="33.4" fill="#000000" transform="matrix(1.00, 0.00, -0.00, -1.00, 181.6, 491.0)">(</text><text xml:space="preserve" font-family="Monaco" font-size="33.4" fill="#C8352B" transform="matrix(1.00, 0.00, -0.00, -1.00, 201.7, 491.0)">'</text><text xml:space="preserve" font-family="Monaco" font-size="33.4" fill="#C8352B" transform="matrix(1.00, 0.00, -0.00, -1.00, 221.7, 491.0)">T</text><text xml:space="preserve" font-family="Monaco" font-size="33.4" fill="#C8352B" transform="matrix(1.00, 0.00, -0.00, -1.00, 241.8, 491.0)">e</text><text xml:space="preserve" font-family="Monaco" font-size="33.4" fill="#C8352B" transform="matrix(1.00, 0.00, -0.00, -1.00, 261.9, 491.0)">s</text><text xml:space="preserve" font-family="Monaco" font-size="33.4" fill="#C8352B" transform="matrix(1.00, 0.00, -0.00, -1.00, 282.0, 491.0)">t</text><text xml:space="preserve" font-family="Monaco" font-size="33.4" fill="#C8352B" transform="matrix(1.00, 0.00, -0.00, -1.00, 302.0, 491.0)">'</text><text xml:space="preserve" font-family="Monaco" font-size="33.4" fill="#000000" transform="matrix(1.00, 0.00, -0.00, -1.00, 322.1, 491.0)">)</text><text xml:space="preserve" font-family="Monaco" font-size="33.4" fill="#000000" transform="matrix(1.00, 0.00, -0.00, -1.00, 342.1, 491.0)"> </text><text xml:space="preserve" font-family="Monaco" font-size="33.4" fill="#000000" transform="matrix(1.00, 0.00, -0.00, -1.00, 362.2, 491.0)">{</text><text xml:space="preserve" font-family="Monaco" font-size="33.4" fill="#000000" transform="matrix(1.00, 0.00, -0.00, -1.00, 1.0, 447.0)"> </text><text xml:space="preserve" font-family="Monaco" font-size="33.4" fill="#000000" transform="matrix(1.00, 0.00, -0.00, -1.00, 21.1, 447.0)"> </text><text xml:space="preserve" font-family="Monaco" font-size="33.4" fill="#000000" transform="matrix(1.00, 0.00, -0.00, -1.00, 41.1, 447.0)"> </text><text xml:space="preserve" font-family="Monaco" font-size="33.4" fill="#000000" transform="matrix(1.00, 0.00, -0.00, -1.00, 61.2, 447.0)"> </text><text xml:space="preserve" font-family="Monaco" font-size="33.4" fill="#000000" transform="matrix(1.00, 0.00, -0.00, -1.00, 81.3, 447.0)"> </text><text xml:space="preserve" font-family="Monaco" font-size="33.4" fill="#000000" transform="matrix(1.00, 0.00, -0.00, -1.00, 101.4, 447.0)"> </text><text xml:space="preserve" font-family="Monaco" font-size="33.4" fill="#000000" transform="matrix(1.00, 0.00, -0.00, -1.00, 121.4, 447.0)">s</text><text xml:space="preserve" font-family="Monaco" font-size="33.4" fill="#000000" transform="matrix(1.00, 0.00, -0.00, -1.00, 141.5, 447.0)">t</text><text xml:space="preserve" font-family="Monaco" font-size="33.4" fill="#000000" transform="matrix(1.00, 0.00, -0.00, -1.00, 161.6, 447.0)">e</text><text xml:space="preserve" font-family="Monaco" font-size="33.4" fill="#000000" transform="matrix(1.00, 0.00, -0.00, -1.00, 181.6, 447.0)">p</text><text xml:space="preserve" font-family="Monaco" font-size="33.4" fill="#000000" transform="matrix(1.00, 0.00, -0.00, -1.00, 201.7, 447.0)">s</text><text xml:space="preserve" font-family="Monaco" font-size="33.4" fill="#000000" transform="matrix(1.00, 0.00, -0.00, -1.00, 221.8, 447.0)"> </text><text xml:space="preserve" font-family="Monaco" font-size="33.4" fill="#000000" transform="matrix(1.00, 0.00, -0.00, -1.00, 241.8, 447.0)">{</text><text xml:space="preserve" font-family="Monaco" font-size="33.4" fill="#000000" transform="matrix(1.00, 0.00, -0.00, -1.00, 1.0, 403.0)"> </text><text xml:space="preserve" font-family="Monaco" font-size="33.4" fill="#000000" transform="matrix(1.00, 0.00, -0.00, -1.00, 21.1, 403.0)"> </text><text xml:space="preserve" font-family="Monaco" font-size="33.4" fill="#000000" transform="matrix(1.00, 0.00, -0.00, -1.00, 41.1, 403.0)"> </text><text xml:space="preserve" font-family="Monaco" font-size="33.4" fill="#000000" transform="matrix(1.00, 0.00, -0.00, -1.00, 61.2, 403.0)"> </text><text xml:space="preserve" font-family="Monaco" font-size="33.4" fill="#000000" transform="matrix(1.00, 0.00, -0.00, -1.00, 81.3, 403.0)"> </text><text xml:space="preserve" font-family="Monaco" font-size="33.4" fill="#000000" transform="matrix(1.00, 0.00, -0.00, -1.00, 101.4, 403.0)"> </text><text xml:space="preserve" font-family="Monaco" font-size="33.4" fill="#000000" transform="matrix(1.00, 0.00, -0.00, -1.00, 121.4, 403.0)"> </text><text xml:space="preserve" font-family="Monaco" font-size="33.4" fill="#000000" transform="matrix(1.00, 0.00, -0.00, -1.00, 141.5, 403.0)"> </text><text xml:space="preserve" font-family="Monaco" font-size="33.4" fill="#000000" transform="matrix(1.00, 0.00, -0.00, -1.00, 161.6, 403.0)">s</text><text xml:space="preserve" font-family="Monaco" font-size="33.4" fill="#000000" transform="matrix(1.00, 0.00, -0.00, -1.00, 181.6, 403.0)">h</text><text xml:space="preserve" font-family="Monaco" font-size="33.4" fill="#000000" transform="matrix(1.00, 0.00, -0.00, -1.00, 201.7, 403.0)"> </text><text xml:space="preserve" font-family="Monaco" font-size="33.4" fill="#C8352B" transform="matrix(1.00, 0.00, -0.00, -1.00, 221.7, 403.0)">'</text><text xml:space="preserve" font-family="Monaco" font-size="33.4" fill="#C8352B" transform="matrix(1.00, 0.00, -0.00, -1.00, 241.8, 403.0)">n</text><text xml:space="preserve" font-family="Monaco" font-size="33.4" fill="#C8352B" transform="matrix(1.00, 0.00, -0.00, -1.00, 261.9, 403.0)">p</text><text xml:space="preserve" font-family="Monaco" font-size="33.4" fill="#C8352B" transform="matrix(1.00, 0.00, -0.00, -1.00, 282.0, 403.0)">m</text><text xml:space="preserve" font-family="Monaco" font-size="33.4" fill="#C8352B" transform="matrix(1.00, 0.00, -0.00, -1.00, 302.0, 403.0)"> </text><text xml:space="preserve" font-family="Monaco" font-size="33.4" fill="#C8352B" transform="matrix(1.00, 0.00, -0.00, -1.00, 322.1, 403.0)">r</text><text xml:space="preserve" font-family="Monaco" font-size="33.4" fill="#C8352B" transform="matrix(1.00, 0.00, -0.00, -1.00, 342.2, 403.0)">u</text><text xml:space="preserve" font-family="Monaco" font-size="33.4" fill="#C8352B" transform="matrix(1.00, 0.00, -0.00, -1.00, 362.2, 403.0)">n</text><text xml:space="preserve" font-family="Monaco" font-size="33.4" fill="#C8352B" transform="matrix(1.00, 0.00, -0.00, -1.00, 382.3, 403.0)"> </text><text xml:space="preserve" font-family="Monaco" font-size="33.4" fill="#C8352B" transform="matrix(1.00, 0.00, -0.00, -1.00, 402.4, 403.0)">t</text><text xml:space="preserve" font-family="Monaco" font-size="33.4" fill="#C8352B" transform="matrix(1.00, 0.00, -0.00, -1.00, 422.4, 403.0)">e</text><text xml:space="preserve" font-family="Monaco" font-size="33.4" fill="#C8352B" transform="matrix(1.00, 0.00, -0.00, -1.00, 442.5, 403.0)">s</text><text xml:space="preserve" font-family="Monaco" font-size="33.4" fill="#C8352B" transform="matrix(1.00, 0.00, -0.00, -1.00, 462.6, 403.0)">t</text><text xml:space="preserve" font-family="Monaco" font-size="33.4" fill="#C8352B" transform="matrix(1.00, 0.00, -0.00, -1.00, 482.7, 403.0)">'</text><text xml:space="preserve" font-family="Monaco" font-size="33.4" fill="#000000" transform="matrix(1.00, 0.00, -0.00, -1.00, 1.0, 359.0)"> </text><text xml:space="preserve" font-family="Monaco" font-size="33.4" fill="#000000" transform="matrix(1.00, 0.00, -0.00, -1.00, 21.1, 359.0)"> </text><text xml:space="preserve" font-family="Monaco" font-size="33.4" fill="#000000" transform="matrix(1.00, 0.00, -0.00, -1.00, 41.1, 359.0)"> </text><text xml:space="preserve" font-family="Monaco" font-size="33.4" fill="#000000" transform="matrix(1.00, 0.00, -0.00, -1.00, 61.2, 359.0)"> </text><text xml:space="preserve" font-family="Monaco" font-size="33.4" fill="#000000" transform="matrix(1.00, 0.00, -0.00, -1.00, 81.3, 359.0)"> </text><text xml:space="preserve" font-family="Monaco" font-size="33.4" fill="#000000" transform="matrix(1.00, 0.00, -0.00, -1.00, 101.4, 359.0)"> </text><text xml:space="preserve" font-family="Monaco" font-size="33.4" fill="#000000" transform="matrix(1.00, 0.00, -0.00, -1.00, 121.4, 359.0)">}</text><text xml:space="preserve" font-family="Monaco" font-size="33.4" fill="#000000" transform="matrix(1.00, 0.00, -0.00, -1.00, 1.0, 315.0)"> </text><text xml:space="preserve" font-family="Monaco" font-size="33.4" fill="#000000" transform="matrix(1.00, 0.00, -0.00, -1.00, 21.1, 315.0)"> </text><text xml:space="preserve" font-family="Monaco" font-size="33.4" fill="#000000" transform="matrix(1.00, 0.00, -0.00, -1.00, 41.1, 315.0)"> </text><text xml:space="preserve" font-family="Monaco" font-size="33.4" fill="#000000" transform="matrix(1.00, 0.00, -0.00, -1.00, 61.2, 315.0)"> </text><text xml:space="preserve" font-family="Monaco" font-size="33.4" fill="#000000" transform="matrix(1.00, 0.00, -0.00, -1.00, 81.3, 315.0)">}</text><text xml:space="preserve" font-family="Monaco" font-size="33.4" fill="#000000" transform="matrix(1.00, 0.00, -0.00, -1.00, 1.0, 271.0)"> </text><text xml:space="preserve" font-family="Monaco" font-size="33.4" fill="#000000" transform="matrix(1.00, 0.00, -0.00, -1.00, 21.1, 271.0)"> </text><text xml:space="preserve" font-family="Monaco" font-size="33.4" fill="#000000" transform="matrix(1.00, 0.00, -0.00, -1.00, 41.1, 271.0)">}</text><text xml:space="preserve" font-family="Monaco" font-size="33.4" fill="#000000" transform="matrix(1.00, 0.00, -0.00, -1.00, 1.0, 227.0)"> </text><text xml:space="preserve" font-family="Monaco" font-size="33.4" fill="#000000" transform="matrix(1.00, 0.00, -0.00, -1.00, 21.1, 227.0)"> </text><text xml:space="preserve" font-family="Monaco" font-size="33.4" fill="#000000" transform="matrix(1.00, 0.00, -0.00, -1.00, 41.1, 227.0)">p</text><text xml:space="preserve" font-family="Monaco" font-size="33.4" fill="#000000" transform="matrix(1.00, 0.00, -0.00, -1.00, 61.2, 227.0)">o</text><text xml:space="preserve" font-family="Monaco" font-size="33.4" fill="#000000" transform="matrix(1.00, 0.00, -0.00, -1.00, 81.3, 227.0)">s</text><text xml:space="preserve" font-family="Monaco" font-size="33.4" fill="#000000" transform="matrix(1.00, 0.00, -0.00, -1.00, 101.4, 227.0)">t</text><text xml:space="preserve" font-family="Monaco" font-size="33.4" fill="#000000" transform="matrix(1.00, 0.00, -0.00, -1.00, 121.4, 227.0)"> </text><text xml:space="preserve" font-family="Monaco" font-size="33.4" fill="#000000" transform="matrix(1.00, 0.00, -0.00, -1.00, 141.5, 227.0)">{</text><text xml:space="preserve" font-family="Monaco" font-size="33.4" fill="#000000" transform="matrix(1.00, 0.00, -0.00, -1.00, 1.0, 183.0)"> </text><text xml:space="preserve" font-family="Monaco" font-size="33.4" fill="#000000" transform="matrix(1.00, 0.00, -0.00, -1.00, 21.1, 183.0)"> </text><text xml:space="preserve" font-family="Monaco" font-size="33.4" fill="#000000" transform="matrix(1.00, 0.00, -0.00, -1.00, 41.1, 183.0)"> </text><text xml:space="preserve" font-family="Monaco" font-size="33.4" fill="#000000" transform="matrix(1.00, 0.00, -0.00, -1.00, 61.2, 183.0)"> </text><text xml:space="preserve" font-family="Monaco" font-size="33.4" fill="#000000" transform="matrix(1.00, 0.00, -0.00, -1.00, 81.3, 183.0)">f</text><text xml:space="preserve" font-family="Monaco" font-size="33.4" fill="#000000" transform="matrix(1.00, 0.00, -0.00, -1.00, 101.4, 183.0)">a</text><text xml:space="preserve" font-family="Monaco" font-size="33.4" fill="#000000" transform="matrix(1.00, 0.00, -0.00, -1.00, 121.4, 183.0)">i</text><text xml:space="preserve" font-family="Monaco" font-size="33.4" fill="#000000" transform="matrix(1.00, 0.00, -0.00, -1.00, 141.5, 183.0)">l</text><text xml:space="preserve" font-family="Monaco" font-size="33.4" fill="#000000" transform="matrix(1.00, 0.00, -0.00, -1.00, 161.6, 183.0)">u</text><text xml:space="preserve" font-family="Monaco" font-size="33.4" fill="#000000" transform="matrix(1.00, 0.00, -0.00, -1.00, 181.6, 183.0)">r</text><text xml:space="preserve" font-family="Monaco" font-size="33.4" fill="#000000" transform="matrix(1.00, 0.00, -0.00, -1.00, 201.7, 183.0)">e</text><text xml:space="preserve" font-family="Monaco" font-size="33.4" fill="#000000" transform="matrix(1.00, 0.00, -0.00, -1.00, 221.8, 183.0)"> </text><text xml:space="preserve" font-family="Monaco" font-size="33.4" fill="#000000" transform="matrix(1.00, 0.00, -0.00, -1.00, 241.8, 183.0)">{</text><text xml:space="preserve" font-family="Monaco" font-size="33.4" fill="#000000" transform="matrix(1.00, 0.00, -0.00, -1.00, 1.0, 139.0)"> </text><text xml:space="preserve" font-family="Monaco" font-size="33.4" fill="#000000" transform="matrix(1.00, 0.00, -0.00, -1.00, 21.1, 139.0)"> </text><text xml:space="preserve" font-family="Monaco" font-size="33.4" fill="#000000" transform="matrix(1.00, 0.00, -0.00, -1.00, 41.1, 139.0)"> </text><text xml:space="preserve" font-family="Monaco" font-size="33.4" fill="#000000" transform="matrix(1.00, 0.00, -0.00, -1.00, 61.2, 139.0)"> </text><text xml:space="preserve" font-family="Monaco" font-size="33.4" fill="#000000" transform="matrix(1.00, 0.00, -0.00, -1.00, 81.3, 139.0)"> </text><text xml:space="preserve" font-family="Monaco" font-size="33.4" fill="#000000" transform="matrix(1.00, 0.00, -0.00, -1.00, 101.4, 139.0)"> </text><text xml:space="preserve" font-family="Monaco" font-size="33.4" fill="#000000" transform="matrix(1.00, 0.00, -0.00, -1.00, 121.4, 139.0)">s</text><text xml:space="preserve" font-family="Monaco" font-size="33.4" fill="#000000" transform="matrix(1.00, 0.00, -0.00, -1.00, 141.5, 139.0)">h</text><text xml:space="preserve" font-family="Monaco" font-size="33.4" fill="#000000" transform="matrix(1.00, 0.00, -0.00, -1.00, 161.6, 139.0)"> </text><text xml:space="preserve" font-family="Monaco" font-size="33.4" fill="#C8352B" transform="matrix(1.00, 0.00, -0.00, -1.00, 181.6, 139.0)">'</text><text xml:space="preserve" font-family="Monaco" font-size="33.4" fill="#C8352B" transform="matrix(1.00, 0.00, -0.00, -1.00, 201.7, 139.0)">e</text><text xml:space="preserve" font-family="Monaco" font-size="33.4" fill="#C8352B" transform="matrix(1.00, 0.00, -0.00, -1.00, 221.7, 139.0)">c</text><text xml:space="preserve" font-family="Monaco" font-size="33.4" fill="#C8352B" transform="matrix(1.00, 0.00, -0.00, -1.00, 241.8, 139.0)">h</text><text xml:space="preserve" font-family="Monaco" font-size="33.4" fill="#C8352B" transform="matrix(1.00, 0.00, -0.00, -1.00, 261.9, 139.0)">o</text><text xml:space="preserve" font-family="Monaco" font-size="33.4" fill="#C8352B" transform="matrix(1.00, 0.00, -0.00, -1.00, 282.0, 139.0)"> </text><text xml:space="preserve" font-family="Monaco" font-size="33.4" fill="#C8352B" transform="matrix(1.00, 0.00, -0.00, -1.00, 302.0, 139.0)">u</text><text xml:space="preserve" font-family="Monaco" font-size="33.4" fill="#C8352B" transform="matrix(1.00, 0.00, -0.00, -1.00, 322.1, 139.0)">h</text><text xml:space="preserve" font-family="Monaco" font-size="33.4" fill="#C8352B" transform="matrix(1.00, 0.00, -0.00, -1.00, 342.2, 139.0)">-</text><text xml:space="preserve" font-family="Monaco" font-size="33.4" fill="#C8352B" transform="matrix(1.00, 0.00, -0.00, -1.00, 362.2, 139.0)">o</text><text xml:space="preserve" font-family="Monaco" font-size="33.4" fill="#C8352B" transform="matrix(1.00, 0.00, -0.00, -1.00, 382.3, 139.0)">h</text><text xml:space="preserve" font-family="Monaco" font-size="33.4" fill="#C8352B" transform="matrix(1.00, 0.00, -0.00, -1.00, 402.4, 139.0)">.</text><text xml:space="preserve" font-family="Monaco" font-size="33.4" fill="#C8352B" transform="matrix(1.00, 0.00, -0.00, -1.00, 422.5, 139.0)">.</text><text xml:space="preserve" font-family="Monaco" font-size="33.4" fill="#C8352B" transform="matrix(1.00, 0.00, -0.00, -1.00, 442.5, 139.0)">.</text><text xml:space="preserve" font-family="Monaco" font-size="33.4" fill="#C8352B" transform="matrix(1.00, 0.00, -0.00, -1.00, 462.6, 139.0)">'</text><text xml:space="preserve" font-family="Monaco" font-size="33.4" fill="#000000" transform="matrix(1.00, 0.00, -0.00, -1.00, 1.0, 95.0)"> </text><text xml:space="preserve" font-family="Monaco" font-size="33.4" fill="#000000" transform="matrix(1.00, 0.00, -0.00, -1.00, 21.1, 95.0)"> </text><text xml:space="preserve" font-family="Monaco" font-size="33.4" fill="#000000" transform="matrix(1.00, 0.00, -0.00, -1.00, 41.1, 95.0)"> </text><text xml:space="preserve" font-family="Monaco" font-size="33.4" fill="#000000" transform="matrix(1.00, 0.00, -0.00, -1.00, 61.2, 95.0)"> </text><text xml:space="preserve" font-family="Monaco" font-size="33.4" fill="#000000" transform="matrix(1.00, 0.00, -0.00, -1.00, 81.3, 95.0)">}</text><text xml:space="preserve" font-family="Monaco" font-size="33.4" fill="#000000" transform="matrix(1.00, 0.00, -0.00, -1.00, 1.0, 51.0)"> </text><text xml:space="preserve" font-family="Monaco" font-size="33.4" fill="#000000" transform="matrix(1.00, 0.00, -0.00, -1.00, 21.1, 51.0)"> </text><text xml:space="preserve" font-family="Monaco" font-size="33.4" fill="#000000" transform="matrix(1.00, 0.00, -0.00, -1.00, 41.1, 51.0)">}</text><text xml:space="preserve" font-family="Monaco" font-size="33.4" fill="#000000" transform="matrix(1.00, 0.00, -0.00, -1.00, 1.0, 7.0)">}</text></g></svg>