<?xml version="1.0" encoding="UTF-8" standalone="no"?><svg xmlns="http://www.w3.org/2000/svg" xmlns:xlink="http://www.w3.org/1999/xlink" clip-rule="evenodd" stroke-miterlimit="4.00" viewBox="0 0 605 184"><desc>SVG generated by Keynote</desc><defs></defs><g transform="matrix(1.00, 0.00, -0.00, -1.00, 0.0, 184.0)"><g><clipPath id="clip-142"><path d="M 0.0 139.7 L 37.5 139.7 L 37.5 174.8 L 0.0 174.8 Z M 0.0 139.7 "></path></clipPath><g clip-path="url(#clip-142)"><path d="M 37.0 152.3 C 37.4 151.8 37.5 151.2 37.5 150.6 C 37.5 149.5 36.9 148.5 35.7 147.6 C 34.4 146.6 33.0 146.1 31.5 146.1 C 29.4 146.1 27.0 147.6 24.3 150.6 C 24.3 150.6 24.3 146.1 24.3 146.1 C 24.3 145.7 24.4 145.2 24.7 144.5 C 24.9 143.9 25.1 143.4 25.1 143.2 C 25.1 142.2 24.6 141.4 23.6 140.7 C 22.7 140.1 21.7 139.7 20.8 139.7 C 19.1 139.7 17.6 140.5 16.3 141.9 C 16.0 142.4 15.9 143.6 16.0 145.6 C 16.1 147.6 16.2 149.7 16.3 151.7 C 15.3 151.0 13.3 149.9 10.4 148.3 C 10.0 147.7 8.8 147.1 6.8 146.4 C 5.4 146.3 3.9 146.6 2.3 147.3 C 0.8 148.0 0.0 148.9 0.0 150.1 C 0.0 150.4 0.1 150.7 0.2 151.0 C 0.5 151.6 1.1 152.1 2.1 152.4 C 3.6 152.9 4.5 153.2 4.6 153.3 C 4.6 153.3 12.9 157.8 12.9 157.8 C 12.9 157.8 7.1 160.7 7.1 160.7 C 6.2 160.7 5.0 161.1 3.6 161.9 C 3.3 162.3 3.2 162.8 3.2 163.3 C 3.2 164.7 4.0 166.1 5.7 167.4 C 7.3 168.7 9.0 169.4 10.7 169.4 C 11.2 169.4 11.8 169.3 12.3 169.1 C 12.9 168.9 13.4 168.4 13.8 167.6 C 14.3 166.6 15.2 165.7 16.3 165.0 C 16.3 165.0 16.6 170.2 16.6 170.2 C 16.3 171.0 16.3 172.0 16.6 173.4 C 17.2 174.3 18.7 174.8 21.1 174.8 C 23.2 174.8 24.7 174.1 25.4 172.9 C 25.7 172.4 25.7 171.2 25.5 169.3 C 25.4 167.6 25.2 165.9 25.0 164.2 C 25.0 164.2 28.0 165.7 28.0 165.7 C 28.6 166.4 29.8 167.1 31.5 167.8 C 32.6 167.9 33.8 167.4 34.9 166.4 C 36.1 165.5 36.7 164.4 36.7 163.2 C 36.7 162.7 36.5 162.2 36.2 161.8 C 35.9 161.3 35.4 161.0 34.7 160.9 C 33.7 160.7 33.1 160.4 32.8 160.2 C 32.8 160.2 28.3 157.0 28.3 157.0 C 28.3 157.0 34.1 153.8 34.1 153.8 C 34.9 153.6 35.8 153.1 37.0 152.3 Z M 37.0 152.3 " fill="#3995D6"></path></g></g><text xml:space="preserve" font-family="Menlo-Regular" font-size="64.0" fill="#858585" transform="matrix(1.00, 0.00, -0.00, -1.00, 70.0, 135.0)">n</text><text xml:space="preserve" font-family="Menlo-Regular" font-size="64.0" fill="#858585" transform="matrix(1.00, 0.00, -0.00, -1.00, 108.5, 135.0)">e</text><text xml:space="preserve" font-family="Menlo-Regular" font-size="64.0" fill="#858585" transform="matrix(1.00, 0.00, -0.00, -1.00, 147.1, 135.0)">w</text><text xml:space="preserve" font-family="Menlo-Regular" font-size="64.0" fill="#858585" transform="matrix(1.00, 0.00, -0.00, -1.00, 185.6, 135.0)"> </text><text xml:space="preserve" font-family="Menlo-Regular" font-size="64.0" fill="#858585" transform="matrix(1.00, 0.00, -0.00, -1.00, 224.2, 135.0)">&amp;</text><text xml:space="preserve" font-family="Menlo-Regular" font-size="64.0" fill="#858585" transform="matrix(1.00, 0.00, -0.00, -1.00, 262.7, 135.0)"> </text><text xml:space="preserve" font-family="Menlo-Regular" font-size="64.0" fill="#858585" transform="matrix(1.00, 0.00, -0.00, -1.00, 301.2, 135.0)">n</text><text xml:space="preserve" font-family="Menlo-Regular" font-size="64.0" fill="#858585" transform="matrix(1.00, 0.00, -0.00, -1.00, 339.8, 135.0)">e</text><text xml:space="preserve" font-family="Menlo-Regular" font-size="64.0" fill="#858585" transform="matrix(1.00, 0.00, -0.00, -1.00, 378.3, 135.0)">a</text><text xml:space="preserve" font-family="Menlo-Regular" font-size="64.0" fill="#858585" transform="matrix(1.00, 0.00, -0.00, -1.00, 416.8, 135.0)">t</text><text xml:space="preserve" font-family="Menlo-Regular" font-size="64.0" fill="#858585" transform="matrix(1.00, 0.00, -0.00, -1.00, 455.4, 135.0)">o</text><text xml:space="preserve" font-family="Menlo-Regular" font-size="64.0" fill="#858585" transform="matrix(1.00, 0.00, -0.00, -1.00, 493.9, 135.0)"> </text><g><clipPath id="clip-143"><path d="M 0.0 6.7 L 37.5 6.7 L 37.5 41.8 L 0.0 41.8 Z M 0.0 6.7 "></path></clipPath><g clip-path="url(#clip-143)"><path d="M 37.0 19.3 C 37.4 18.8 37.5 18.2 37.5 17.6 C 37.5 16.5 36.9 15.5 35.7 14.6 C 34.4 13.6 33.0 13.1 31.5 13.1 C 29.4 13.1 27.0 14.6 24.3 17.6 C 24.3 17.6 24.3 13.1 24.3 13.1 C 24.3 12.7 24.4 12.2 24.7 11.5 C 24.9 10.9 25.1 10.4 25.1 10.2 C 25.1 9.2 24.6 8.4 23.6 7.7 C 22.7 7.1 21.7 6.7 20.8 6.7 C 19.1 6.7 17.6 7.5 16.3 8.9 C 16.0 9.4 15.9 10.6 16.0 12.6 C 16.1 14.6 16.2 16.7 16.3 18.7 C 15.3 18.0 13.3 16.9 10.4 15.3 C 10.0 14.7 8.8 14.1 6.8 13.4 C 5.4 13.3 3.9 13.6 2.3 14.3 C 0.8 15.0 0.0 15.9 0.0 17.1 C 0.0 17.4 0.1 17.7 0.2 18.0 C 0.5 18.6 1.1 19.1 2.1 19.4 C 3.6 19.9 4.5 20.2 4.6 20.3 C 4.6 20.3 12.9 24.8 12.9 24.8 C 12.9 24.8 7.1 27.7 7.1 27.7 C 6.2 27.7 5.0 28.1 3.6 28.9 C 3.3 29.3 3.2 29.8 3.2 30.3 C 3.2 31.7 4.0 33.1 5.7 34.4 C 7.3 35.7 9.0 36.4 10.7 36.4 C 11.2 36.4 11.8 36.3 12.3 36.1 C 12.9 35.9 13.4 35.4 13.8 34.6 C 14.3 33.6 15.2 32.7 16.3 32.0 C 16.3 32.0 16.6 37.2 16.6 37.2 C 16.3 38.0 16.3 39.0 16.6 40.4 C 17.2 41.3 18.7 41.8 21.1 41.8 C 23.2 41.8 24.7 41.1 25.4 39.9 C 25.7 39.4 25.7 38.2 25.5 36.3 C 25.4 34.6 25.2 32.9 25.0 31.2 C 25.0 31.2 28.0 32.7 28.0 32.7 C 28.6 33.4 29.8 34.1 31.5 34.8 C 32.6 34.9 33.8 34.4 34.9 33.4 C 36.1 32.5 36.7 31.4 36.7 30.2 C 36.7 29.7 36.5 29.2 36.2 28.8 C 35.9 28.3 35.4 28.0 34.7 27.9 C 33.7 27.7 33.1 27.4 32.8 27.2 C 32.8 27.2 28.3 24.0 28.3 24.0 C 28.3 24.0 34.1 20.8 34.1 20.8 C 34.9 20.6 35.8 20.1 37.0 19.3 Z M 37.0 19.3 " fill="#3995D6"></path></g></g><text xml:space="preserve" font-family="Menlo-Regular" font-size="64.0" fill="#858585" transform="matrix(1.00, 0.00, -0.00, -1.00, 70.0, 2.0)">l</text><text xml:space="preserve" font-family="Menlo-Regular" font-size="64.0" fill="#858585" transform="matrix(1.00, 0.00, -0.00, -1.00, 108.5, 2.0)">o</text><text xml:space="preserve" font-family="Menlo-Regular" font-size="64.0" fill="#858585" transform="matrix(1.00, 0.00, -0.00, -1.00, 147.1, 2.0)">o</text><text xml:space="preserve" font-family="Menlo-Regular" font-size="64.0" fill="#858585" transform="matrix(1.00, 0.00, -0.00, -1.00, 185.6, 2.0)">k</text><text xml:space="preserve" font-family="Menlo-Regular" font-size="64.0" fill="#858585" transform="matrix(1.00, 0.00, -0.00, -1.00, 224.2, 2.0)"> </text><text xml:space="preserve" font-family="Menlo-Regular" font-size="64.0" fill="#858585" transform="matrix(1.00, 0.00, -0.00, -1.00, 262.7, 2.0)">f</text><text xml:space="preserve" font-family="Menlo-Regular" font-size="64.0" fill="#858585" transform="matrix(1.00, 0.00, -0.00, -1.00, 301.2, 2.0)">a</text><text xml:space="preserve" font-family="Menlo-Regular" font-size="64.0" fill="#858585" transform="matrix(1.00, 0.00, -0.00, -1.00, 339.8, 2.0)">m</text><text xml:space="preserve" font-family="Menlo-Regular" font-size="64.0" fill="#858585" transform="matrix(1.00, 0.00, -0.00, -1.00, 378.3, 2.0)">i</text><text xml:space="preserve" font-family="Menlo-Regular" font-size="64.0" fill="#858585" transform="matrix(1.00, 0.00, -0.00, -1.00, 416.8, 2.0)">l</text><text xml:space="preserve" font-family="Menlo-Regular" font-size="64.0" fill="#858585" transform="matrix(1.00, 0.00, -0.00, -1.00, 455.4, 2.0)">i</text><text xml:space="preserve" font-family="Menlo-Regular" font-size="64.0" fill="#858585" transform="matrix(1.00, 0.00, -0.00, -1.00, 493.9, 2.0)">a</text><text xml:space="preserve" font-family="Menlo-Regular" font-size="64.0" fill="#858585" transform="matrix(1.00, 0.00, -0.00, -1.00, 532.5, 2.0)">r</text><text xml:space="preserve" font-family="Menlo-Regular" font-size="64.0" fill="#858585" transform="matrix(1.00, 0.00, -0.00, -1.00, 571.0, 2.0)">?</text></g></svg>