<?xml version="1.0" encoding="UTF-8" standalone="no"?><svg xmlns="http://www.w3.org/2000/svg" xmlns:xlink="http://www.w3.org/1999/xlink" clip-rule="evenodd" stroke-miterlimit="4.00" viewBox="0 0 854 136"><desc>SVG generated by Keynote</desc><defs></defs><g transform="matrix(1.00, 0.00, -0.00, -1.00, 0.0, 136.0)"><g><clipPath id="clip-30"><path d="M 0.0 91.7 L 36.4 91.7 L 36.4 125.7 L 0.0 125.7 Z M 0.0 91.7 "></path></clipPath><g clip-path="url(#clip-30)"><path d="M 35.9 103.9 C 36.2 103.4 36.4 102.8 36.4 102.3 C 36.4 101.2 35.8 100.2 34.6 99.3 C 33.4 98.3 32.0 97.9 30.5 97.9 C 28.5 97.9 26.2 99.3 23.6 102.3 C 23.6 102.3 23.6 97.9 23.6 97.9 C 23.6 97.5 23.7 96.9 23.9 96.3 C 24.2 95.7 24.3 95.3 24.3 95.0 C 24.3 94.1 23.8 93.3 22.9 92.7 C 22.0 92.0 21.1 91.7 20.1 91.7 C 18.5 91.7 17.1 92.4 15.8 93.8 C 15.5 94.3 15.4 95.4 15.5 97.4 C 15.6 99.3 15.7 101.3 15.8 103.3 C 14.8 102.6 12.9 101.5 10.1 100.0 C 9.7 99.4 8.6 98.8 6.6 98.2 C 5.2 98.0 3.7 98.3 2.2 99.0 C 0.7 99.7 0.0 100.6 0.0 101.7 C 0.0 102.0 0.1 102.3 0.2 102.6 C 0.5 103.2 1.1 103.7 2.0 104.0 C 3.5 104.5 4.4 104.8 4.5 104.8 C 4.5 104.8 12.5 109.2 12.5 109.2 C 12.5 109.2 6.9 112.0 6.9 112.0 C 6.0 112.0 4.9 112.4 3.5 113.2 C 3.2 113.6 3.1 114.0 3.1 114.5 C 3.1 115.9 3.9 117.2 5.5 118.5 C 7.1 119.8 8.7 120.4 10.4 120.4 C 10.9 120.4 11.4 120.3 11.9 120.2 C 12.5 120.0 13.0 119.5 13.4 118.7 C 13.9 117.7 14.7 116.9 15.8 116.1 C 15.8 116.1 16.1 121.3 16.1 121.3 C 15.8 122.0 15.8 123.0 16.1 124.4 C 16.7 125.2 18.2 125.7 20.5 125.7 C 22.5 125.7 23.9 125.0 24.6 123.8 C 24.9 123.3 25.0 122.2 24.7 120.3 C 24.6 118.7 24.4 117.0 24.2 115.4 C 24.2 115.4 27.2 116.9 27.2 116.9 C 27.8 117.5 28.9 118.2 30.5 118.9 C 31.7 119.0 32.8 118.6 33.9 117.6 C 35.0 116.6 35.6 115.6 35.6 114.4 C 35.6 113.9 35.4 113.5 35.1 113.1 C 34.8 112.6 34.3 112.3 33.6 112.2 C 32.7 112.0 32.1 111.8 31.8 111.6 C 31.8 111.6 27.4 108.5 27.4 108.5 C 27.4 108.5 33.1 105.4 33.1 105.4 C 33.8 105.1 34.7 104.7 35.9 103.9 Z M 35.9 103.9 " fill="#3995D6"></path></g></g><text xml:space="preserve" font-family="Menlo-Regular" font-size="62.1" fill="#858585" transform="matrix(1.00, 0.00, -0.00, -1.00, 68.0, 87.0)">k</text><text xml:space="preserve" font-family="Menlo-Regular" font-size="62.1" fill="#858585" transform="matrix(1.00, 0.00, -0.00, -1.00, 105.4, 87.0)">e</text><text xml:space="preserve" font-family="Menlo-Regular" font-size="62.1" fill="#858585" transform="matrix(1.00, 0.00, -0.00, -1.00, 142.8, 87.0)">e</text><text xml:space="preserve" font-family="Menlo-Regular" font-size="62.1" fill="#858585" transform="matrix(1.00, 0.00, -0.00, -1.00, 180.1, 87.0)">p</text><text xml:space="preserve" font-family="Menlo-Regular" font-size="62.1" fill="#858585" transform="matrix(1.00, 0.00, -0.00, -1.00, 217.5, 87.0)"> </text><text xml:space="preserve" font-family="Menlo-Regular" font-size="62.1" fill="#858585" transform="matrix(1.00, 0.00, -0.00, -1.00, 254.9, 87.0)">d</text><text xml:space="preserve" font-family="Menlo-Regular" font-size="62.1" fill="#858585" transform="matrix(1.00, 0.00, -0.00, -1.00, 292.3, 87.0)">e</text><text xml:space="preserve" font-family="Menlo-Regular" font-size="62.1" fill="#858585" transform="matrix(1.00, 0.00, -0.00, -1.00, 329.7, 87.0)">v</text><text xml:space="preserve" font-family="Menlo-Regular" font-size="62.1" fill="#858585" transform="matrix(1.00, 0.00, -0.00, -1.00, 367.1, 87.0)">e</text><text xml:space="preserve" font-family="Menlo-Regular" font-size="62.1" fill="#858585" transform="matrix(1.00, 0.00, -0.00, -1.00, 404.4, 87.0)">l</text><text xml:space="preserve" font-family="Menlo-Regular" font-size="62.1" fill="#858585" transform="matrix(1.00, 0.00, -0.00, -1.00, 441.8, 87.0)">o</text><text xml:space="preserve" font-family="Menlo-Regular" font-size="62.1" fill="#858585" transform="matrix(1.00, 0.00, -0.00, -1.00, 479.2, 87.0)">p</text><text xml:space="preserve" font-family="Menlo-Regular" font-size="62.1" fill="#858585" transform="matrix(1.00, 0.00, -0.00, -1.00, 516.6, 87.0)">e</text><text xml:space="preserve" font-family="Menlo-Regular" font-size="62.1" fill="#858585" transform="matrix(1.00, 0.00, -0.00, -1.00, 554.0, 87.0)">r</text><text xml:space="preserve" font-family="Menlo-Regular" font-size="62.1" fill="#858585" transform="matrix(1.00, 0.00, -0.00, -1.00, 591.3, 87.0)">s</text><text xml:space="preserve" font-family="Menlo-Regular" font-size="62.1" fill="#858585" transform="matrix(1.00, 0.00, -0.00, -1.00, 628.7, 87.0)"> </text><text xml:space="preserve" font-family="Menlo-Regular" font-size="62.1" fill="#858585" transform="matrix(1.00, 0.00, -0.00, -1.00, 666.1, 87.0)">d</text><text xml:space="preserve" font-family="Menlo-Regular" font-size="62.1" fill="#858585" transform="matrix(1.00, 0.00, -0.00, -1.00, 703.5, 87.0)">o</text><text xml:space="preserve" font-family="Menlo-Regular" font-size="62.1" fill="#858585" transform="matrix(1.00, 0.00, -0.00, -1.00, 740.9, 87.0)">i</text><text xml:space="preserve" font-family="Menlo-Regular" font-size="62.1" fill="#858585" transform="matrix(1.00, 0.00, -0.00, -1.00, 778.2, 87.0)">n</text><text xml:space="preserve" font-family="Menlo-Regular" font-size="62.1" fill="#858585" transform="matrix(1.00, 0.00, -0.00, -1.00, 815.6, 87.0)">g</text><text xml:space="preserve" font-family="Menlo-Regular" font-size="62.1" fill="#858585" transform="matrix(1.00, 0.00, -0.00, -1.00, 853.0, 87.0)"> </text><text xml:space="preserve" font-family="Menlo-Regular" font-size="62.1" fill="#858585" transform="matrix(1.00, 0.00, -0.00, -1.00, 68.0, 14.0)">w</text><text xml:space="preserve" font-family="Menlo-Regular" font-size="62.1" fill="#858585" transform="matrix(1.00, 0.00, -0.00, -1.00, 105.4, 14.0)">h</text><text xml:space="preserve" font-family="Menlo-Regular" font-size="62.1" fill="#858585" transform="matrix(1.00, 0.00, -0.00, -1.00, 142.8, 14.0)">a</text><text xml:space="preserve" font-family="Menlo-Regular" font-size="62.1" fill="#858585" transform="matrix(1.00, 0.00, -0.00, -1.00, 180.1, 14.0)">t</text><text xml:space="preserve" font-family="Menlo-Regular" font-size="62.1" fill="#858585" transform="matrix(1.00, 0.00, -0.00, -1.00, 217.5, 14.0)"> </text><text xml:space="preserve" font-family="Menlo-Regular" font-size="62.1" fill="#858585" transform="matrix(1.00, 0.00, -0.00, -1.00, 254.9, 14.0)">t</text><text xml:space="preserve" font-family="Menlo-Regular" font-size="62.1" fill="#858585" transform="matrix(1.00, 0.00, -0.00, -1.00, 292.3, 14.0)">h</text><text xml:space="preserve" font-family="Menlo-Regular" font-size="62.1" fill="#858585" transform="matrix(1.00, 0.00, -0.00, -1.00, 329.7, 14.0)">e</text><text xml:space="preserve" font-family="Menlo-Regular" font-size="62.1" fill="#858585" transform="matrix(1.00, 0.00, -0.00, -1.00, 367.1, 14.0)">y</text><text xml:space="preserve" font-family="Menlo-Regular" font-size="62.1" fill="#858585" transform="matrix(1.00, 0.00, -0.00, -1.00, 404.4, 14.0)"> </text><text xml:space="preserve" font-family="Menlo-Regular" font-size="62.1" fill="#858585" transform="matrix(1.00, 0.00, -0.00, -1.00, 441.8, 14.0)">d</text><text xml:space="preserve" font-family="Menlo-Regular" font-size="62.1" fill="#858585" transform="matrix(1.00, 0.00, -0.00, -1.00, 479.2, 14.0)">o</text><text xml:space="preserve" font-family="Menlo-Regular" font-size="62.1" fill="#858585" transform="matrix(1.00, 0.00, -0.00, -1.00, 516.6, 14.0)"> </text><text xml:space="preserve" font-family="Menlo-Regular" font-size="62.1" fill="#858585" transform="matrix(1.00, 0.00, -0.00, -1.00, 554.0, 14.0)">b</text><text xml:space="preserve" font-family="Menlo-Regular" font-size="62.1" fill="#858585" transform="matrix(1.00, 0.00, -0.00, -1.00, 591.3, 14.0)">e</text><text xml:space="preserve" font-family="Menlo-Regular" font-size="62.1" fill="#858585" transform="matrix(1.00, 0.00, -0.00, -1.00, 628.7, 14.0)">s</text><text xml:space="preserve" font-family="Menlo-Regular" font-size="62.1" fill="#858585" transform="matrix(1.00, 0.00, -0.00, -1.00, 666.1, 14.0)">t</text><text xml:space="preserve" font-family="Menlo-Regular" font-size="62.1" fill="#858585" transform="matrix(1.00, 0.00, -0.00, -1.00, 703.5, 14.0)">.</text></g></svg>