<?xml version="1.0" encoding="UTF-8" standalone="no"?><svg xmlns="http://www.w3.org/2000/svg" xmlns:xlink="http://www.w3.org/1999/xlink" clip-rule="evenodd" stroke-miterlimit="4.00" viewBox="0 0 562 64"><desc>SVG generated by Keynote</desc><defs></defs><g transform="matrix(1.00, 0.00, -0.00, -1.00, 0.0, 64.0)"><g><clipPath id="clip-100"><path d="M 1.0 63.0 L 561.0 63.0 L 561.0 2.0 L 1.0 2.0 Z M 1.1 62.9 "></path></clipPath><g clip-path="url(#clip-100)"><g><clipPath id="clip-101"><path d="M 417.0 6.6 C 416.3 9.4 415.6 22.0 416.0 34.5 L 417.0 57.0 L 483.0 57.0 L 549.0 57.0 L 550.0 34.5 C 550.4 22.0 549.7 9.4 549.0 6.6 L 547.7 2.0 L 483.0 2.0 L 418.3 2.0 L 417.0 6.6 M 651.0 16.7 C 650.2 17.5 649.5 22.1 649.5 26.9 C 649.5 34.2 650.3 35.6 654.3 35.6 C 656.9 35.6 661.1 36.7 663.5 38.0 C 666.6 39.6 669.2 39.5 672.4 37.5 C 676.1 35.3 678.2 35.3 682.8 37.8 C 686.9 39.9 689.6 40.2 691.6 38.6 C 697.2 34.2 706.5 33.4 711.0 36.7 C 717.0 41.2 718.1 41.0 719.7 35.3 C 720.6 31.6 721.7 30.9 724.0 32.7 C 725.6 34.0 734.6 35.0 743.9 34.9 C 754.7 34.9 761.5 35.8 762.6 37.5 C 763.8 39.5 766.3 39.6 771.1 38.1 C 783.2 34.2 806.4 33.6 809.3 37.0 C 810.7 38.7 813.1 39.4 814.6 38.5 C 816.0 37.6 819.2 36.6 821.6 36.2 C 824.1 35.9 827.5 34.4 829.2 33.0 C 831.6 31.0 833.8 31.1 838.0 33.4 C 842.4 35.7 844.4 35.7 847.0 33.6 C 848.9 32.0 850.9 31.8 851.6 32.9 C 852.3 34.1 862.3 35.0 873.7 35.0 C 886.7 35.0 895.8 36.0 897.9 37.7 C 900.5 39.8 902.5 39.9 906.2 37.9 C 911.9 34.9 952.3 33.9 956.8 36.6 C 960.6 38.9 961.1 38.2 962.1 29.4 C 962.7 23.2 961.8 21.2 958.8 22.2 C 955.4 23.3 946.2 23.4 944.4 22.3 C 940.2 19.9 935.4 19.9 932.3 22.4 C 930.2 24.1 928.5 24.1 926.2 22.3 C 924.5 20.9 922.4 20.4 921.6 21.3 C 919.6 23.2 896.7 23.9 893.5 22.2 C 889.1 19.9 881.1 19.6 879.8 21.7 C 879.0 23.0 875.6 22.5 871.6 20.5 C 866.8 18.2 863.5 17.8 860.6 19.4 C 858.2 20.6 852.6 21.1 848.1 20.5 C 841.9 19.7 839.4 20.3 838.4 23.0 C 836.6 27.6 830.7 27.6 828.1 23.0 C 825.8 18.9 816.2 19.4 810.7 23.9 C 807.8 26.3 806.8 26.1 805.0 23.0 C 803.4 20.2 802.3 19.9 801.1 21.8 C 799.8 23.8 798.6 23.8 796.0 21.7 C 793.3 19.5 791.6 19.4 788.1 21.6 C 784.6 23.7 782.7 23.7 779.2 21.5 C 775.4 19.2 773.8 19.5 770.0 23.0 C 765.4 27.0 765.2 27.0 762.9 20.9 C 760.8 15.6 759.9 15.1 756.9 17.5 C 755.0 19.1 749.8 20.3 745.5 20.1 C 741.1 20.0 737.0 20.8 736.2 22.0 C 735.4 23.3 733.2 23.1 730.5 21.5 C 727.2 19.5 725.4 19.5 723.0 21.5 C 720.6 23.4 719.0 23.5 717.1 21.6 C 715.7 20.2 712.8 19.8 710.4 20.9 C 706.6 22.5 699.0 23.2 697.5 22.1 C 695.5 20.7 676.1 20.1 674.0 21.4 C 669.8 24.1 664.8 23.4 658.5 19.2 C 655.2 17.1 651.8 15.9 651.0 16.7 M 599.6 21.5 C 593.0 27.0 594.4 41.5 601.8 43.3 C 607.2 44.7 616.9 42.9 617.4 40.5 C 619.2 31.8 617.9 24.9 613.8 21.5 C 607.8 16.6 605.6 16.6 599.6 21.5 "></path></clipPath><g clip-path="url(#clip-101)"><image xlink:href="05B1CE08E89372D1CE4B2685B02E5095.png" width="337.00" height="37.00" transform="matrix(1.66, 0.00, -0.00, -1.68, 411.0, 63.0)"></image></g></g></g></g></g></svg>