<?xml version="1.0" encoding="UTF-8" standalone="no"?><svg xmlns="http://www.w3.org/2000/svg" xmlns:xlink="http://www.w3.org/1999/xlink" clip-rule="evenodd" stroke-miterlimit="4.00" viewBox="0 0 990 52"><desc>SVG generated by Keynote</desc><defs></defs><g transform="matrix(1.00, 0.00, -0.00, -1.00, 0.0, 52.0)"><g><clipPath id="clip-41"><path d="M 0.0 6.7 L 37.5 6.7 L 37.5 41.8 L 0.0 41.8 Z M 0.0 6.7 "></path></clipPath><g clip-path="url(#clip-41)"><path d="M 37.0 19.3 C 37.4 18.8 37.5 18.2 37.5 17.6 C 37.5 16.5 36.9 15.5 35.7 14.6 C 34.4 13.6 33.0 13.1 31.5 13.1 C 29.4 13.1 27.0 14.6 24.3 17.6 C 24.3 17.6 24.3 13.1 24.3 13.1 C 24.3 12.7 24.4 12.2 24.7 11.5 C 24.9 10.9 25.1 10.4 25.1 10.2 C 25.1 9.2 24.6 8.4 23.6 7.7 C 22.7 7.1 21.7 6.7 20.8 6.7 C 19.1 6.7 17.6 7.5 16.3 8.9 C 16.0 9.4 15.9 10.6 16.0 12.6 C 16.1 14.6 16.2 16.7 16.3 18.7 C 15.3 18.0 13.3 16.9 10.4 15.3 C 10.0 14.7 8.8 14.1 6.8 13.4 C 5.4 13.3 3.9 13.6 2.3 14.3 C 0.8 15.0 0.0 15.9 0.0 17.1 C 0.0 17.4 0.1 17.7 0.2 18.0 C 0.5 18.6 1.1 19.1 2.1 19.4 C 3.6 19.9 4.5 20.2 4.6 20.3 C 4.6 20.3 12.9 24.8 12.9 24.8 C 12.9 24.8 7.1 27.7 7.1 27.7 C 6.2 27.7 5.0 28.1 3.6 28.9 C 3.3 29.3 3.2 29.8 3.2 30.3 C 3.2 31.7 4.0 33.1 5.7 34.4 C 7.3 35.7 9.0 36.4 10.7 36.4 C 11.2 36.4 11.8 36.3 12.3 36.1 C 12.9 35.9 13.4 35.4 13.8 34.6 C 14.3 33.6 15.2 32.7 16.3 32.0 C 16.3 32.0 16.6 37.2 16.6 37.2 C 16.3 38.0 16.3 39.0 16.6 40.4 C 17.2 41.3 18.7 41.8 21.1 41.8 C 23.2 41.8 24.7 41.1 25.4 39.9 C 25.7 39.4 25.7 38.2 25.5 36.3 C 25.4 34.6 25.2 32.9 25.0 31.2 C 25.0 31.2 28.0 32.7 28.0 32.7 C 28.6 33.4 29.8 34.1 31.5 34.8 C 32.6 34.9 33.8 34.4 34.9 33.4 C 36.1 32.5 36.7 31.4 36.7 30.2 C 36.7 29.7 36.5 29.2 36.2 28.8 C 35.9 28.3 35.4 28.0 34.7 27.9 C 33.7 27.7 33.1 27.4 32.8 27.2 C 32.8 27.2 28.3 24.0 28.3 24.0 C 28.3 24.0 34.1 20.8 34.1 20.8 C 34.9 20.6 35.8 20.1 37.0 19.3 Z M 37.0 19.3 " fill="#3995D6"></path></g></g><text xml:space="preserve" font-family="Menlo-Regular" font-size="64.0" fill="#858585" transform="matrix(1.00, 0.00, -0.00, -1.00, 70.0, 2.0)">k</text><text xml:space="preserve" font-family="Menlo-Regular" font-size="64.0" fill="#858585" transform="matrix(1.00, 0.00, -0.00, -1.00, 108.5, 2.0)">n</text><text xml:space="preserve" font-family="Menlo-Regular" font-size="64.0" fill="#858585" transform="matrix(1.00, 0.00, -0.00, -1.00, 147.1, 2.0)">o</text><text xml:space="preserve" font-family="Menlo-Regular" font-size="64.0" fill="#858585" transform="matrix(1.00, 0.00, -0.00, -1.00, 185.6, 2.0)">w</text><text xml:space="preserve" font-family="Menlo-Regular" font-size="64.0" fill="#858585" transform="matrix(1.00, 0.00, -0.00, -1.00, 224.2, 2.0)"> </text><text xml:space="preserve" font-family="Menlo-Regular" font-size="64.0" fill="#858585" transform="matrix(1.00, 0.00, -0.00, -1.00, 262.7, 2.0)">w</text><text xml:space="preserve" font-family="Menlo-Regular" font-size="64.0" fill="#858585" transform="matrix(1.00, 0.00, -0.00, -1.00, 301.2, 2.0)">h</text><text xml:space="preserve" font-family="Menlo-Regular" font-size="64.0" fill="#858585" transform="matrix(1.00, 0.00, -0.00, -1.00, 339.8, 2.0)">e</text><text xml:space="preserve" font-family="Menlo-Regular" font-size="64.0" fill="#858585" transform="matrix(1.00, 0.00, -0.00, -1.00, 378.3, 2.0)">n</text><text xml:space="preserve" font-family="Menlo-Regular" font-size="64.0" fill="#858585" transform="matrix(1.00, 0.00, -0.00, -1.00, 416.8, 2.0)"> </text><text xml:space="preserve" font-family="Menlo-Regular" font-size="64.0" fill="#858585" transform="matrix(1.00, 0.00, -0.00, -1.00, 455.4, 2.0)">i</text><text xml:space="preserve" font-family="Menlo-Regular" font-size="64.0" fill="#858585" transform="matrix(1.00, 0.00, -0.00, -1.00, 493.9, 2.0)">t</text><text xml:space="preserve" font-family="Menlo-Regular" font-size="64.0" fill="#858585" transform="matrix(1.00, 0.00, -0.00, -1.00, 532.5, 2.0)"> </text><text xml:space="preserve" font-family="Menlo-Regular" font-size="64.0" fill="#858585" transform="matrix(1.00, 0.00, -0.00, -1.00, 571.0, 2.0)">i</text><text xml:space="preserve" font-family="Menlo-Regular" font-size="64.0" fill="#858585" transform="matrix(1.00, 0.00, -0.00, -1.00, 609.5, 2.0)">s</text><text xml:space="preserve" font-family="Menlo-Regular" font-size="64.0" fill="#858585" transform="matrix(1.00, 0.00, -0.00, -1.00, 648.1, 2.0)"> </text><text xml:space="preserve" font-family="Menlo-Regular" font-size="64.0" fill="#858585" transform="matrix(1.00, 0.00, -0.00, -1.00, 686.6, 2.0)">w</text><text xml:space="preserve" font-family="Menlo-Regular" font-size="64.0" fill="#858585" transform="matrix(1.00, 0.00, -0.00, -1.00, 725.1, 2.0)">o</text><text xml:space="preserve" font-family="Menlo-Regular" font-size="64.0" fill="#858585" transform="matrix(1.00, 0.00, -0.00, -1.00, 763.7, 2.0)">r</text><text xml:space="preserve" font-family="Menlo-Regular" font-size="64.0" fill="#858585" transform="matrix(1.00, 0.00, -0.00, -1.00, 802.2, 2.0)">t</text><text xml:space="preserve" font-family="Menlo-Regular" font-size="64.0" fill="#858585" transform="matrix(1.00, 0.00, -0.00, -1.00, 840.8, 2.0)">h</text><text xml:space="preserve" font-family="Menlo-Regular" font-size="64.0" fill="#858585" transform="matrix(1.00, 0.00, -0.00, -1.00, 879.3, 2.0)"> </text><text xml:space="preserve" font-family="Menlo-Regular" font-size="64.0" fill="#858585" transform="matrix(1.00, 0.00, -0.00, -1.00, 917.8, 2.0)">i</text><text xml:space="preserve" font-family="Menlo-Regular" font-size="64.0" fill="#858585" transform="matrix(1.00, 0.00, -0.00, -1.00, 956.4, 2.0)">t</text></g></svg>