<?xml version="1.0" encoding="UTF-8" standalone="no"?><svg xmlns="http://www.w3.org/2000/svg" xmlns:xlink="http://www.w3.org/1999/xlink" clip-rule="evenodd" stroke-miterlimit="4.00" viewBox="0 0 568 57"><desc>SVG generated by Keynote</desc><defs></defs><g transform="matrix(1.00, 0.00, -0.00, -1.00, 0.0, 57.0)"><text xml:space="preserve" font-family="Menlo-Regular" font-size="48.0" fill="#858585" transform="matrix(1.00, 0.00, -0.00, -1.00, 0.4, 11.8)">•</text><text xml:space="preserve" font-family="Menlo-Regular" font-size="64.0" fill="#858585" transform="matrix(1.00, 0.00, -0.00, -1.00, 70.0, 7.0)">c</text><text xml:space="preserve" font-family="Menlo-Regular" font-size="64.0" fill="#858585" transform="matrix(1.00, 0.00, -0.00, -1.00, 108.5, 7.0)">u</text><text xml:space="preserve" font-family="Menlo-Regular" font-size="64.0" fill="#858585" transform="matrix(1.00, 0.00, -0.00, -1.00, 147.1, 7.0)">s</text><text xml:space="preserve" font-family="Menlo-Regular" font-size="64.0" fill="#858585" transform="matrix(1.00, 0.00, -0.00, -1.00, 185.6, 7.0)">t</text><text xml:space="preserve" font-family="Menlo-Regular" font-size="64.0" fill="#858585" transform="matrix(1.00, 0.00, -0.00, -1.00, 224.2, 7.0)">o</text><text xml:space="preserve" font-family="Menlo-Regular" font-size="64.0" fill="#858585" transform="matrix(1.00, 0.00, -0.00, -1.00, 262.7, 7.0)">m</text><text xml:space="preserve" font-family="Menlo-Regular" font-size="64.0" fill="#858585" transform="matrix(1.00, 0.00, -0.00, -1.00, 301.2, 7.0)">i</text><text xml:space="preserve" font-family="Menlo-Regular" font-size="64.0" fill="#858585" transform="matrix(1.00, 0.00, -0.00, -1.00, 339.8, 7.0)">z</text><text xml:space="preserve" font-family="Menlo-Regular" font-size="64.0" fill="#858585" transform="matrix(1.00, 0.00, -0.00, -1.00, 378.3, 7.0)">a</text><text xml:space="preserve" font-family="Menlo-Regular" font-size="64.0" fill="#858585" transform="matrix(1.00, 0.00, -0.00, -1.00, 416.8, 7.0)">t</text><text xml:space="preserve" font-family="Menlo-Regular" font-size="64.0" fill="#858585" transform="matrix(1.00, 0.00, -0.00, -1.00, 455.4, 7.0)">i</text><text xml:space="preserve" font-family="Menlo-Regular" font-size="64.0" fill="#858585" transform="matrix(1.00, 0.00, -0.00, -1.00, 493.9, 7.0)">o</text><text xml:space="preserve" font-family="Menlo-Regular" font-size="64.0" fill="#858585" transform="matrix(1.00, 0.00, -0.00, -1.00, 532.5, 7.0)">n</text></g></svg>