<?xml version="1.0" encoding="UTF-8" standalone="no"?><svg xmlns="http://www.w3.org/2000/svg" xmlns:xlink="http://www.w3.org/1999/xlink" clip-rule="evenodd" stroke-miterlimit="4.00" viewBox="0 0 1920 1080"><desc>SVG generated by Keynote</desc><defs></defs><g transform="matrix(1.00, 0.00, -0.00, -1.00, 0.0, 1080.0)"><g><clipPath id="clip-200"><path d="M 0.0 1080.0 L 1920.0 1080.0 L 1920.0 0.0 L 0.0 0.0 Z M 0.0 1080.0 "></path></clipPath><g clip-path="url(#clip-200)"><image xlink:href="../../1666277D-D3DF-4E49-BA3E-8D52C1CD64F2/assets/1FDA5CC772C925BAEF499BC77EF4DAF8.jpeg" width="1365.00" height="767.00" transform="matrix(1.41, 0.00, -0.00, -1.41, 0.0, 1080.0)"></image></g></g><g><clipPath id="clip-201"><path d="M 192.0 787.7 L 229.5 787.7 L 229.5 822.8 L 192.0 822.8 Z M 192.0 787.7 "></path></clipPath><g clip-path="url(#clip-201)"><path d="M 229.0 800.3 C 229.4 799.8 229.5 799.2 229.5 798.6 C 229.5 797.5 228.9 796.5 227.7 795.6 C 226.4 794.6 225.0 794.1 223.5 794.1 C 221.4 794.1 219.0 795.6 216.3 798.6 C 216.3 798.6 216.3 794.1 216.3 794.1 C 216.3 793.7 216.4 793.2 216.7 792.5 C 216.9 791.9 217.1 791.4 217.1 791.2 C 217.1 790.2 216.6 789.4 215.6 788.7 C 214.7 788.1 213.7 787.7 212.8 787.7 C 211.1 787.7 209.6 788.5 208.3 789.9 C 208.0 790.4 207.9 791.6 208.0 793.6 C 208.1 795.6 208.2 797.7 208.3 799.7 C 207.3 799.0 205.3 797.9 202.4 796.3 C 202.0 795.7 200.8 795.1 198.8 794.4 C 197.4 794.3 195.9 794.6 194.3 795.3 C 192.8 796.0 192.0 796.9 192.0 798.1 C 192.0 798.4 192.1 798.7 192.2 799.0 C 192.5 799.6 193.1 800.1 194.1 800.4 C 195.6 800.9 196.5 801.2 196.6 801.3 C 196.6 801.3 204.9 805.8 204.9 805.8 C 204.9 805.8 199.1 808.7 199.1 808.7 C 198.2 808.7 197.0 809.1 195.6 809.9 C 195.3 810.3 195.2 810.8 195.2 811.3 C 195.2 812.7 196.0 814.1 197.7 815.4 C 199.3 816.7 201.0 817.4 202.7 817.4 C 203.2 817.4 203.8 817.3 204.3 817.1 C 204.9 816.9 205.4 816.4 205.8 815.6 C 206.3 814.6 207.2 813.7 208.3 813.0 C 208.3 813.0 208.6 818.2 208.6 818.2 C 208.3 819.0 208.3 820.0 208.6 821.4 C 209.2 822.3 210.7 822.8 213.1 822.8 C 215.2 822.8 216.7 822.1 217.4 820.9 C 217.7 820.4 217.7 819.2 217.5 817.3 C 217.4 815.6 217.2 813.9 217.0 812.2 C 217.0 812.2 220.0 813.7 220.0 813.7 C 220.6 814.4 221.8 815.1 223.5 815.8 C 224.6 815.9 225.8 815.4 226.9 814.4 C 228.1 813.5 228.7 812.4 228.7 811.2 C 228.7 810.7 228.5 810.2 228.2 809.8 C 227.9 809.3 227.4 809.0 226.7 808.9 C 225.7 808.7 225.1 808.4 224.8 808.2 C 224.8 808.2 220.3 805.0 220.3 805.0 C 220.3 805.0 226.1 801.8 226.1 801.8 C 226.9 801.6 227.8 801.1 229.0 800.3 Z M 229.0 800.3 " fill="#3995D6"></path></g></g><text xml:space="preserve" font-family="Menlo-Regular" font-size="64.0" fill="#858585" transform="matrix(1.00, 0.00, -0.00, -1.00, 262.0, 783.0)">t</text><text xml:space="preserve" font-family="Menlo-Regular" font-size="64.0" fill="#858585" transform="matrix(1.00, 0.00, -0.00, -1.00, 300.5, 783.0)">r</text><text xml:space="preserve" font-family="Menlo-Regular" font-size="64.0" fill="#858585" transform="matrix(1.00, 0.00, -0.00, -1.00, 339.1, 783.0)">e</text><text xml:space="preserve" font-family="Menlo-Regular" font-size="64.0" fill="#858585" transform="matrix(1.00, 0.00, -0.00, -1.00, 377.6, 783.0)">v</text><text xml:space="preserve" font-family="Menlo-Regular" font-size="64.0" fill="#858585" transform="matrix(1.00, 0.00, -0.00, -1.00, 416.2, 783.0)">o</text><text xml:space="preserve" font-family="Menlo-Regular" font-size="64.0" fill="#858585" transform="matrix(1.00, 0.00, -0.00, -1.00, 454.7, 783.0)">r</text><text xml:space="preserve" font-family="Menlo-Regular" font-size="64.0" fill="#858585" transform="matrix(1.00, 0.00, -0.00, -1.00, 493.2, 783.0)">.</text><text xml:space="preserve" font-family="Menlo-Regular" font-size="64.0" fill="#858585" transform="matrix(1.00, 0.00, -0.00, -1.00, 531.8, 783.0)">b</text><text xml:space="preserve" font-family="Menlo-Regular" font-size="64.0" fill="#858585" transform="matrix(1.00, 0.00, -0.00, -1.00, 570.3, 783.0)">r</text><text xml:space="preserve" font-family="Menlo-Regular" font-size="64.0" fill="#858585" transform="matrix(1.00, 0.00, -0.00, -1.00, 608.8, 783.0)">i</text><text xml:space="preserve" font-family="Menlo-Regular" font-size="64.0" fill="#858585" transform="matrix(1.00, 0.00, -0.00, -1.00, 647.4, 783.0)">n</text><text xml:space="preserve" font-family="Menlo-Regular" font-size="64.0" fill="#858585" transform="matrix(1.00, 0.00, -0.00, -1.00, 685.9, 783.0)">d</text><text xml:space="preserve" font-family="Menlo-Regular" font-size="64.0" fill="#858585" transform="matrix(1.00, 0.00, -0.00, -1.00, 724.5, 783.0)">l</text><text xml:space="preserve" font-family="Menlo-Regular" font-size="64.0" fill="#858585" transform="matrix(1.00, 0.00, -0.00, -1.00, 763.0, 783.0)">e</text><text xml:space="preserve" font-family="Menlo-Regular" font-size="64.0" fill="#858585" transform="matrix(1.00, 0.00, -0.00, -1.00, 801.5, 783.0)">@</text><text xml:space="preserve" font-family="Menlo-Regular" font-size="64.0" fill="#858585" transform="matrix(1.00, 0.00, -0.00, -1.00, 840.1, 783.0)">m</text><text xml:space="preserve" font-family="Menlo-Regular" font-size="64.0" fill="#858585" transform="matrix(1.00, 0.00, -0.00, -1.00, 878.6, 783.0)">o</text><text xml:space="preserve" font-family="Menlo-Regular" font-size="64.0" fill="#858585" transform="matrix(1.00, 0.00, -0.00, -1.00, 917.1, 783.0)">d</text><text xml:space="preserve" font-family="Menlo-Regular" font-size="64.0" fill="#858585" transform="matrix(1.00, 0.00, -0.00, -1.00, 955.7, 783.0)">u</text><text xml:space="preserve" font-family="Menlo-Regular" font-size="64.0" fill="#858585" transform="matrix(1.00, 0.00, -0.00, -1.00, 994.2, 783.0)">s</text><text xml:space="preserve" font-family="Menlo-Regular" font-size="64.0" fill="#858585" transform="matrix(1.00, 0.00, -0.00, -1.00, 1032.8, 783.0)">c</text><text xml:space="preserve" font-family="Menlo-Regular" font-size="64.0" fill="#858585" transform="matrix(1.00, 0.00, -0.00, -1.00, 1071.3, 783.0)">r</text><text xml:space="preserve" font-family="Menlo-Regular" font-size="64.0" fill="#858585" transform="matrix(1.00, 0.00, -0.00, -1.00, 1109.8, 783.0)">e</text><text xml:space="preserve" font-family="Menlo-Regular" font-size="64.0" fill="#858585" transform="matrix(1.00, 0.00, -0.00, -1.00, 1148.4, 783.0)">a</text><text xml:space="preserve" font-family="Menlo-Regular" font-size="64.0" fill="#858585" transform="matrix(1.00, 0.00, -0.00, -1.00, 1186.9, 783.0)">t</text><text xml:space="preserve" font-family="Menlo-Regular" font-size="64.0" fill="#858585" transform="matrix(1.00, 0.00, -0.00, -1.00, 1225.4, 783.0)">e</text><text xml:space="preserve" font-family="Menlo-Regular" font-size="64.0" fill="#858585" transform="matrix(1.00, 0.00, -0.00, -1.00, 1264.0, 783.0)">.</text><text xml:space="preserve" font-family="Menlo-Regular" font-size="64.0" fill="#858585" transform="matrix(1.00, 0.00, -0.00, -1.00, 1302.5, 783.0)">c</text><text xml:space="preserve" font-family="Menlo-Regular" font-size="64.0" fill="#858585" transform="matrix(1.00, 0.00, -0.00, -1.00, 1341.1, 783.0)">o</text><text xml:space="preserve" font-family="Menlo-Regular" font-size="64.0" fill="#858585" transform="matrix(1.00, 0.00, -0.00, -1.00, 1379.6, 783.0)">m</text><g><clipPath id="clip-202"><path d="M 261.0 776.6 L 1417.9 776.6 L 1417.9 781.4 L 261.0 781.4 Z M 261.0 776.6 "></path></clipPath><g clip-path="url(#clip-202)"><path d="M 74.0 160.0 L 1229.9 160.0 " fill="none" stroke="#858585" stroke-width="2.81" stroke-miterlimit="0.00" transform="matrix(1.00, 0.00, 0.00, -1.00, 188.0, 939.0)"></path></g></g><g><clipPath id="clip-203"><path d="M 192.0 654.7 L 229.5 654.7 L 229.5 689.8 L 192.0 689.8 Z M 192.0 654.7 "></path></clipPath><g clip-path="url(#clip-203)"><path d="M 229.0 667.3 C 229.4 666.8 229.5 666.2 229.5 665.6 C 229.5 664.5 228.9 663.5 227.7 662.6 C 226.4 661.6 225.0 661.1 223.5 661.1 C 221.4 661.1 219.0 662.6 216.3 665.6 C 216.3 665.6 216.3 661.1 216.3 661.1 C 216.3 660.7 216.4 660.2 216.7 659.5 C 216.9 658.9 217.1 658.4 217.1 658.2 C 217.1 657.2 216.6 656.4 215.6 655.7 C 214.7 655.1 213.7 654.7 212.8 654.7 C 211.1 654.7 209.6 655.5 208.3 656.9 C 208.0 657.4 207.9 658.6 208.0 660.6 C 208.1 662.6 208.2 664.7 208.3 666.7 C 207.3 666.0 205.3 664.9 202.4 663.3 C 202.0 662.7 200.8 662.1 198.8 661.4 C 197.4 661.3 195.9 661.6 194.3 662.3 C 192.8 663.0 192.0 663.9 192.0 665.1 C 192.0 665.4 192.1 665.7 192.2 666.0 C 192.5 666.6 193.1 667.1 194.1 667.4 C 195.6 667.9 196.5 668.2 196.6 668.3 C 196.6 668.3 204.9 672.8 204.9 672.8 C 204.9 672.8 199.1 675.7 199.1 675.7 C 198.2 675.7 197.0 676.1 195.6 676.9 C 195.3 677.3 195.2 677.8 195.2 678.3 C 195.2 679.7 196.0 681.1 197.7 682.4 C 199.3 683.7 201.0 684.4 202.7 684.4 C 203.2 684.4 203.8 684.3 204.3 684.1 C 204.9 683.9 205.4 683.4 205.8 682.6 C 206.3 681.6 207.2 680.7 208.3 680.0 C 208.3 680.0 208.6 685.2 208.6 685.2 C 208.3 686.0 208.3 687.0 208.6 688.4 C 209.2 689.3 210.7 689.8 213.1 689.8 C 215.2 689.8 216.7 689.1 217.4 687.9 C 217.7 687.4 217.7 686.2 217.5 684.3 C 217.4 682.6 217.2 680.9 217.0 679.2 C 217.0 679.2 220.0 680.7 220.0 680.7 C 220.6 681.4 221.8 682.1 223.5 682.8 C 224.6 682.9 225.8 682.4 226.9 681.4 C 228.1 680.5 228.7 679.4 228.7 678.2 C 228.7 677.7 228.5 677.2 228.2 676.8 C 227.9 676.3 227.4 676.0 226.7 675.9 C 225.7 675.7 225.1 675.4 224.8 675.2 C 224.8 675.2 220.3 672.0 220.3 672.0 C 220.3 672.0 226.1 668.8 226.1 668.8 C 226.9 668.6 227.8 668.1 229.0 667.3 Z M 229.0 667.3 " fill="#3995D6"></path></g></g><text xml:space="preserve" font-family="Menlo-Regular" font-size="64.0" fill="#858585" transform="matrix(1.00, 0.00, -0.00, -1.00, 262.0, 650.0)">@</text><text xml:space="preserve" font-family="Menlo-Regular" font-size="64.0" fill="#858585" transform="matrix(1.00, 0.00, -0.00, -1.00, 300.5, 650.0)">t</text><text xml:space="preserve" font-family="Menlo-Regular" font-size="64.0" fill="#858585" transform="matrix(1.00, 0.00, -0.00, -1.00, 339.1, 650.0)">r</text><text xml:space="preserve" font-family="Menlo-Regular" font-size="64.0" fill="#858585" transform="matrix(1.00, 0.00, -0.00, -1.00, 377.6, 650.0)">e</text><text xml:space="preserve" font-family="Menlo-Regular" font-size="64.0" fill="#858585" transform="matrix(1.00, 0.00, -0.00, -1.00, 416.2, 650.0)">v</text><text xml:space="preserve" font-family="Menlo-Regular" font-size="64.0" fill="#858585" transform="matrix(1.00, 0.00, -0.00, -1.00, 454.7, 650.0)">o</text><text xml:space="preserve" font-family="Menlo-Regular" font-size="64.0" fill="#858585" transform="matrix(1.00, 0.00, -0.00, -1.00, 493.2, 650.0)">r</text><text xml:space="preserve" font-family="Menlo-Regular" font-size="64.0" fill="#858585" transform="matrix(1.00, 0.00, -0.00, -1.00, 531.8, 650.0)">b</text><text xml:space="preserve" font-family="Menlo-Regular" font-size="64.0" fill="#858585" transform="matrix(1.00, 0.00, -0.00, -1.00, 570.3, 650.0)">r</text><text xml:space="preserve" font-family="Menlo-Regular" font-size="64.0" fill="#858585" transform="matrix(1.00, 0.00, -0.00, -1.00, 608.8, 650.0)">i</text><text xml:space="preserve" font-family="Menlo-Regular" font-size="64.0" fill="#858585" transform="matrix(1.00, 0.00, -0.00, -1.00, 647.4, 650.0)">n</text><text xml:space="preserve" font-family="Menlo-Regular" font-size="64.0" fill="#858585" transform="matrix(1.00, 0.00, -0.00, -1.00, 685.9, 650.0)">d</text><text xml:space="preserve" font-family="Menlo-Regular" font-size="64.0" fill="#858585" transform="matrix(1.00, 0.00, -0.00, -1.00, 724.5, 650.0)">l</text><text xml:space="preserve" font-family="Menlo-Regular" font-size="64.0" fill="#858585" transform="matrix(1.00, 0.00, -0.00, -1.00, 763.0, 650.0)">e</text><text xml:space="preserve" font-family="Menlo-Regular" font-size="64.0" fill="#858585" transform="matrix(1.00, 0.00, -0.00, -1.00, 801.5, 650.0)">j</text><text xml:space="preserve" font-family="Menlo-Regular" font-size="64.0" fill="#858585" transform="matrix(1.00, 0.00, -0.00, -1.00, 840.1, 650.0)">s</text><g><clipPath id="clip-204"><path d="M 192.0 521.7 L 229.5 521.7 L 229.5 556.8 L 192.0 556.8 Z M 192.0 521.7 "></path></clipPath><g clip-path="url(#clip-204)"><path d="M 229.0 534.3 C 229.4 533.8 229.5 533.2 229.5 532.6 C 229.5 531.5 228.9 530.5 227.7 529.6 C 226.4 528.6 225.0 528.1 223.5 528.1 C 221.4 528.1 219.0 529.6 216.3 532.6 C 216.3 532.6 216.3 528.1 216.3 528.1 C 216.3 527.7 216.4 527.2 216.7 526.5 C 216.9 525.9 217.1 525.4 217.1 525.2 C 217.1 524.2 216.6 523.4 215.6 522.7 C 214.7 522.1 213.7 521.7 212.8 521.7 C 211.1 521.7 209.6 522.5 208.3 523.9 C 208.0 524.4 207.9 525.6 208.0 527.6 C 208.1 529.6 208.2 531.7 208.3 533.7 C 207.3 533.0 205.3 531.9 202.4 530.3 C 202.0 529.7 200.8 529.1 198.8 528.4 C 197.4 528.3 195.9 528.6 194.3 529.3 C 192.8 530.0 192.0 530.9 192.0 532.1 C 192.0 532.4 192.1 532.7 192.2 533.0 C 192.5 533.6 193.1 534.1 194.1 534.4 C 195.6 534.9 196.5 535.2 196.6 535.3 C 196.6 535.3 204.9 539.8 204.9 539.8 C 204.9 539.8 199.1 542.7 199.1 542.7 C 198.2 542.7 197.0 543.1 195.6 543.9 C 195.3 544.3 195.2 544.8 195.2 545.3 C 195.2 546.7 196.0 548.1 197.7 549.4 C 199.3 550.7 201.0 551.4 202.7 551.4 C 203.2 551.4 203.8 551.3 204.3 551.1 C 204.9 550.9 205.4 550.4 205.8 549.6 C 206.3 548.6 207.2 547.7 208.3 547.0 C 208.3 547.0 208.6 552.2 208.6 552.2 C 208.3 553.0 208.3 554.0 208.6 555.4 C 209.2 556.3 210.7 556.8 213.1 556.8 C 215.2 556.8 216.7 556.1 217.4 554.9 C 217.7 554.4 217.7 553.2 217.5 551.3 C 217.4 549.6 217.2 547.9 217.0 546.2 C 217.0 546.2 220.0 547.7 220.0 547.7 C 220.6 548.4 221.8 549.1 223.5 549.8 C 224.6 549.9 225.8 549.4 226.9 548.4 C 228.1 547.5 228.7 546.4 228.7 545.2 C 228.7 544.7 228.5 544.2 228.2 543.8 C 227.9 543.3 227.4 543.0 226.7 542.9 C 225.7 542.7 225.1 542.4 224.8 542.2 C 224.8 542.2 220.3 539.0 220.3 539.0 C 220.3 539.0 226.1 535.8 226.1 535.8 C 226.9 535.6 227.8 535.1 229.0 534.3 Z M 229.0 534.3 " fill="#3995D6"></path></g></g><text xml:space="preserve" font-family="Menlo-Regular" font-size="64.0" fill="#858585" transform="matrix(1.00, 0.00, -0.00, -1.00, 262.0, 517.0)">g</text><text xml:space="preserve" font-family="Menlo-Regular" font-size="64.0" fill="#858585" transform="matrix(1.00, 0.00, -0.00, -1.00, 300.5, 517.0)">i</text><text xml:space="preserve" font-family="Menlo-Regular" font-size="64.0" fill="#858585" transform="matrix(1.00, 0.00, -0.00, -1.00, 339.1, 517.0)">t</text><text xml:space="preserve" font-family="Menlo-Regular" font-size="64.0" fill="#858585" transform="matrix(1.00, 0.00, -0.00, -1.00, 377.6, 517.0)">h</text><text xml:space="preserve" font-family="Menlo-Regular" font-size="64.0" fill="#858585" transform="matrix(1.00, 0.00, -0.00, -1.00, 416.2, 517.0)">u</text><text xml:space="preserve" font-family="Menlo-Regular" font-size="64.0" fill="#858585" transform="matrix(1.00, 0.00, -0.00, -1.00, 454.7, 517.0)">b</text><text xml:space="preserve" font-family="Menlo-Regular" font-size="64.0" fill="#858585" transform="matrix(1.00, 0.00, -0.00, -1.00, 493.2, 517.0)">.</text><text xml:space="preserve" font-family="Menlo-Regular" font-size="64.0" fill="#858585" transform="matrix(1.00, 0.00, -0.00, -1.00, 531.8, 517.0)">c</text><text xml:space="preserve" font-family="Menlo-Regular" font-size="64.0" fill="#858585" transform="matrix(1.00, 0.00, -0.00, -1.00, 570.3, 517.0)">o</text><text xml:space="preserve" font-family="Menlo-Regular" font-size="64.0" fill="#858585" transform="matrix(1.00, 0.00, -0.00, -1.00, 608.8, 517.0)">m</text><text xml:space="preserve" font-family="Menlo-Regular" font-size="64.0" fill="#858585" transform="matrix(1.00, 0.00, -0.00, -1.00, 647.4, 517.0)">/</text><text xml:space="preserve" font-family="Menlo-Regular" font-size="64.0" fill="#858585" transform="matrix(1.00, 0.00, -0.00, -1.00, 685.9, 517.0)">t</text><text xml:space="preserve" font-family="Menlo-Regular" font-size="64.0" fill="#858585" transform="matrix(1.00, 0.00, -0.00, -1.00, 724.5, 517.0)">a</text><text xml:space="preserve" font-family="Menlo-Regular" font-size="64.0" fill="#858585" transform="matrix(1.00, 0.00, -0.00, -1.00, 763.0, 517.0)">b</text><text xml:space="preserve" font-family="Menlo-Regular" font-size="64.0" fill="#858585" transform="matrix(1.00, 0.00, -0.00, -1.00, 801.5, 517.0)">r</text><text xml:space="preserve" font-family="Menlo-Regular" font-size="64.0" fill="#858585" transform="matrix(1.00, 0.00, -0.00, -1.00, 840.1, 517.0)">i</text><text xml:space="preserve" font-family="Menlo-Regular" font-size="64.0" fill="#858585" transform="matrix(1.00, 0.00, -0.00, -1.00, 878.6, 517.0)">n</text><text xml:space="preserve" font-family="Menlo-Regular" font-size="64.0" fill="#858585" transform="matrix(1.00, 0.00, -0.00, -1.00, 917.1, 517.0)">d</text><text xml:space="preserve" font-family="Menlo-Regular" font-size="64.0" fill="#858585" transform="matrix(1.00, 0.00, -0.00, -1.00, 955.7, 517.0)">l</text><text xml:space="preserve" font-family="Menlo-Regular" font-size="64.0" fill="#858585" transform="matrix(1.00, 0.00, -0.00, -1.00, 994.2, 517.0)">e</text><g><clipPath id="clip-205"><path d="M 192.0 388.7 L 229.5 388.7 L 229.5 423.8 L 192.0 423.8 Z M 192.0 388.7 "></path></clipPath><g clip-path="url(#clip-205)"><path d="M 229.0 401.3 C 229.4 400.8 229.5 400.2 229.5 399.6 C 229.5 398.5 228.9 397.5 227.7 396.6 C 226.4 395.6 225.0 395.1 223.5 395.1 C 221.4 395.1 219.0 396.6 216.3 399.6 C 216.3 399.6 216.3 395.1 216.3 395.1 C 216.3 394.7 216.4 394.2 216.7 393.5 C 216.9 392.9 217.1 392.4 217.1 392.2 C 217.1 391.2 216.6 390.4 215.6 389.7 C 214.7 389.1 213.7 388.7 212.8 388.7 C 211.1 388.7 209.6 389.5 208.3 390.9 C 208.0 391.4 207.9 392.6 208.0 394.6 C 208.1 396.6 208.2 398.7 208.3 400.7 C 207.3 400.0 205.3 398.9 202.4 397.3 C 202.0 396.7 200.8 396.1 198.8 395.4 C 197.4 395.3 195.9 395.6 194.3 396.3 C 192.8 397.0 192.0 397.9 192.0 399.1 C 192.0 399.4 192.1 399.7 192.2 400.0 C 192.5 400.6 193.1 401.1 194.1 401.4 C 195.6 401.9 196.5 402.2 196.6 402.3 C 196.6 402.3 204.9 406.8 204.9 406.8 C 204.9 406.8 199.1 409.7 199.1 409.7 C 198.2 409.7 197.0 410.1 195.6 410.9 C 195.3 411.3 195.2 411.8 195.2 412.3 C 195.2 413.7 196.0 415.1 197.7 416.4 C 199.3 417.7 201.0 418.4 202.7 418.4 C 203.2 418.4 203.8 418.3 204.3 418.1 C 204.9 417.9 205.4 417.4 205.8 416.6 C 206.3 415.6 207.2 414.7 208.3 414.0 C 208.3 414.0 208.6 419.2 208.6 419.2 C 208.3 420.0 208.3 421.0 208.6 422.4 C 209.2 423.3 210.7 423.8 213.1 423.8 C 215.2 423.8 216.7 423.1 217.4 421.9 C 217.7 421.4 217.7 420.2 217.5 418.3 C 217.4 416.6 217.2 414.9 217.0 413.2 C 217.0 413.2 220.0 414.7 220.0 414.7 C 220.6 415.4 221.8 416.1 223.5 416.8 C 224.6 416.9 225.8 416.4 226.9 415.4 C 228.1 414.5 228.7 413.4 228.7 412.2 C 228.7 411.7 228.5 411.2 228.2 410.8 C 227.9 410.3 227.4 410.0 226.7 409.9 C 225.7 409.7 225.1 409.4 224.8 409.2 C 224.8 409.2 220.3 406.0 220.3 406.0 C 220.3 406.0 226.1 402.8 226.1 402.8 C 226.9 402.6 227.8 402.1 229.0 401.3 Z M 229.0 401.3 " fill="#3995D6"></path></g></g><text xml:space="preserve" font-family="Menlo-Regular" font-size="64.0" fill="#858585" transform="matrix(1.00, 0.00, -0.00, -1.00, 262.0, 384.0)">t</text><text xml:space="preserve" font-family="Menlo-Regular" font-size="64.0" fill="#858585" transform="matrix(1.00, 0.00, -0.00, -1.00, 300.5, 384.0)">r</text><text xml:space="preserve" font-family="Menlo-Regular" font-size="64.0" fill="#858585" transform="matrix(1.00, 0.00, -0.00, -1.00, 339.1, 384.0)">e</text><text xml:space="preserve" font-family="Menlo-Regular" font-size="64.0" fill="#858585" transform="matrix(1.00, 0.00, -0.00, -1.00, 377.6, 384.0)">v</text><text xml:space="preserve" font-family="Menlo-Regular" font-size="64.0" fill="#858585" transform="matrix(1.00, 0.00, -0.00, -1.00, 416.2, 384.0)">o</text><text xml:space="preserve" font-family="Menlo-Regular" font-size="64.0" fill="#858585" transform="matrix(1.00, 0.00, -0.00, -1.00, 454.7, 384.0)">r</text><text xml:space="preserve" font-family="Menlo-Regular" font-size="64.0" fill="#858585" transform="matrix(1.00, 0.00, -0.00, -1.00, 493.2, 384.0)">b</text><text xml:space="preserve" font-family="Menlo-Regular" font-size="64.0" fill="#858585" transform="matrix(1.00, 0.00, -0.00, -1.00, 531.8, 384.0)">r</text><text xml:space="preserve" font-family="Menlo-Regular" font-size="64.0" fill="#858585" transform="matrix(1.00, 0.00, -0.00, -1.00, 570.3, 384.0)">i</text><text xml:space="preserve" font-family="Menlo-Regular" font-size="64.0" fill="#858585" transform="matrix(1.00, 0.00, -0.00, -1.00, 608.8, 384.0)">n</text><text xml:space="preserve" font-family="Menlo-Regular" font-size="64.0" fill="#858585" transform="matrix(1.00, 0.00, -0.00, -1.00, 647.4, 384.0)">d</text><text xml:space="preserve" font-family="Menlo-Regular" font-size="64.0" fill="#858585" transform="matrix(1.00, 0.00, -0.00, -1.00, 685.9, 384.0)">l</text><text xml:space="preserve" font-family="Menlo-Regular" font-size="64.0" fill="#858585" transform="matrix(1.00, 0.00, -0.00, -1.00, 724.5, 384.0)">e</text><text xml:space="preserve" font-family="Menlo-Regular" font-size="64.0" fill="#858585" transform="matrix(1.00, 0.00, -0.00, -1.00, 763.0, 384.0)">.</text><text xml:space="preserve" font-family="Menlo-Regular" font-size="64.0" fill="#858585" transform="matrix(1.00, 0.00, -0.00, -1.00, 801.5, 384.0)">c</text><text xml:space="preserve" font-family="Menlo-Regular" font-size="64.0" fill="#858585" transform="matrix(1.00, 0.00, -0.00, -1.00, 840.1, 384.0)">o</text><text xml:space="preserve" font-family="Menlo-Regular" font-size="64.0" fill="#858585" transform="matrix(1.00, 0.00, -0.00, -1.00, 878.6, 384.0)">m</text><g><clipPath id="clip-206"><path d="M 261.0 377.6 L 917.0 377.6 L 917.0 382.4 L 261.0 382.4 Z M 261.0 377.6 "></path></clipPath><g clip-path="url(#clip-206)"><path d="M 74.0 559.0 L 729.0 559.0 " fill="none" stroke="#858585" stroke-width="2.81" stroke-miterlimit="0.00" transform="matrix(1.00, 0.00, 0.00, -1.00, 188.0, 939.0)"></path></g></g><g><clipPath id="clip-207"><path d="M 192.0 255.7 L 229.5 255.7 L 229.5 290.8 L 192.0 290.8 Z M 192.0 255.7 "></path></clipPath><g clip-path="url(#clip-207)"><path d="M 229.0 268.3 C 229.4 267.8 229.5 267.2 229.5 266.6 C 229.5 265.5 228.9 264.5 227.7 263.6 C 226.4 262.6 225.0 262.1 223.5 262.1 C 221.4 262.1 219.0 263.6 216.3 266.6 C 216.3 266.6 216.3 262.1 216.3 262.1 C 216.3 261.7 216.4 261.2 216.7 260.5 C 216.9 259.9 217.1 259.4 217.1 259.2 C 217.1 258.2 216.6 257.4 215.6 256.7 C 214.7 256.1 213.7 255.7 212.8 255.7 C 211.1 255.7 209.6 256.5 208.3 257.9 C 208.0 258.4 207.9 259.6 208.0 261.6 C 208.1 263.6 208.2 265.7 208.3 267.7 C 207.3 267.0 205.3 265.9 202.4 264.3 C 202.0 263.7 200.8 263.1 198.8 262.4 C 197.4 262.3 195.9 262.6 194.3 263.3 C 192.8 264.0 192.0 264.9 192.0 266.1 C 192.0 266.4 192.1 266.7 192.2 267.0 C 192.5 267.6 193.1 268.1 194.1 268.4 C 195.6 268.9 196.5 269.2 196.6 269.3 C 196.6 269.3 204.9 273.8 204.9 273.8 C 204.9 273.8 199.1 276.7 199.1 276.7 C 198.2 276.7 197.0 277.1 195.6 277.9 C 195.3 278.3 195.2 278.8 195.2 279.3 C 195.2 280.7 196.0 282.1 197.7 283.4 C 199.3 284.7 201.0 285.4 202.7 285.4 C 203.2 285.4 203.8 285.3 204.3 285.1 C 204.9 284.9 205.4 284.4 205.8 283.6 C 206.3 282.6 207.2 281.7 208.3 281.0 C 208.3 281.0 208.6 286.2 208.6 286.2 C 208.3 287.0 208.3 288.0 208.6 289.4 C 209.2 290.3 210.7 290.8 213.1 290.8 C 215.2 290.8 216.7 290.1 217.4 288.9 C 217.7 288.4 217.7 287.2 217.5 285.3 C 217.4 283.6 217.2 281.9 217.0 280.2 C 217.0 280.2 220.0 281.7 220.0 281.7 C 220.6 282.4 221.8 283.1 223.5 283.8 C 224.6 283.9 225.8 283.4 226.9 282.4 C 228.1 281.5 228.7 280.4 228.7 279.2 C 228.7 278.7 228.5 278.2 228.2 277.8 C 227.9 277.3 227.4 277.0 226.7 276.9 C 225.7 276.7 225.1 276.4 224.8 276.2 C 224.8 276.2 220.3 273.0 220.3 273.0 C 220.3 273.0 226.1 269.8 226.1 269.8 C 226.9 269.6 227.8 269.1 229.0 268.3 Z M 229.0 268.3 " fill="#3995D6"></path></g></g><text xml:space="preserve" font-family="Menlo-Regular" font-size="64.0" fill="#858585" transform="matrix(1.00, 0.00, -0.00, -1.00, 262.0, 251.0)">q</text><text xml:space="preserve" font-family="Menlo-Regular" font-size="64.0" fill="#858585" transform="matrix(1.00, 0.00, -0.00, -1.00, 300.5, 251.0)">u</text><text xml:space="preserve" font-family="Menlo-Regular" font-size="64.0" fill="#858585" transform="matrix(1.00, 0.00, -0.00, -1.00, 339.1, 251.0)">e</text><text xml:space="preserve" font-family="Menlo-Regular" font-size="64.0" fill="#858585" transform="matrix(1.00, 0.00, -0.00, -1.00, 377.6, 251.0)">s</text><text xml:space="preserve" font-family="Menlo-Regular" font-size="64.0" fill="#858585" transform="matrix(1.00, 0.00, -0.00, -1.00, 416.2, 251.0)">t</text><text xml:space="preserve" font-family="Menlo-Regular" font-size="64.0" fill="#858585" transform="matrix(1.00, 0.00, -0.00, -1.00, 454.7, 251.0)">i</text><text xml:space="preserve" font-family="Menlo-Regular" font-size="64.0" fill="#858585" transform="matrix(1.00, 0.00, -0.00, -1.00, 493.2, 251.0)">o</text><text xml:space="preserve" font-family="Menlo-Regular" font-size="64.0" fill="#858585" transform="matrix(1.00, 0.00, -0.00, -1.00, 531.8, 251.0)">n</text><text xml:space="preserve" font-family="Menlo-Regular" font-size="64.0" fill="#858585" transform="matrix(1.00, 0.00, -0.00, -1.00, 570.3, 251.0)">s</text><text xml:space="preserve" font-family="Menlo-Regular" font-size="64.0" fill="#858585" transform="matrix(1.00, 0.00, -0.00, -1.00, 608.8, 251.0)">,</text><text xml:space="preserve" font-family="Menlo-Regular" font-size="64.0" fill="#858585" transform="matrix(1.00, 0.00, -0.00, -1.00, 647.4, 251.0)"> </text><text xml:space="preserve" font-family="Menlo-Regular" font-size="64.0" fill="#858585" transform="matrix(1.00, 0.00, -0.00, -1.00, 685.9, 251.0)">c</text><text xml:space="preserve" font-family="Menlo-Regular" font-size="64.0" fill="#858585" transform="matrix(1.00, 0.00, -0.00, -1.00, 724.5, 251.0)">o</text><text xml:space="preserve" font-family="Menlo-Regular" font-size="64.0" fill="#858585" transform="matrix(1.00, 0.00, -0.00, -1.00, 763.0, 251.0)">m</text><text xml:space="preserve" font-family="Menlo-Regular" font-size="64.0" fill="#858585" transform="matrix(1.00, 0.00, -0.00, -1.00, 801.5, 251.0)">m</text><text xml:space="preserve" font-family="Menlo-Regular" font-size="64.0" fill="#858585" transform="matrix(1.00, 0.00, -0.00, -1.00, 840.1, 251.0)">e</text><text xml:space="preserve" font-family="Menlo-Regular" font-size="64.0" fill="#858585" transform="matrix(1.00, 0.00, -0.00, -1.00, 878.6, 251.0)">n</text><text xml:space="preserve" font-family="Menlo-Regular" font-size="64.0" fill="#858585" transform="matrix(1.00, 0.00, -0.00, -1.00, 917.1, 251.0)">t</text><text xml:space="preserve" font-family="Menlo-Regular" font-size="64.0" fill="#858585" transform="matrix(1.00, 0.00, -0.00, -1.00, 955.7, 251.0)">s</text><text xml:space="preserve" font-family="Menlo-Regular" font-size="64.0" fill="#858585" transform="matrix(1.00, 0.00, -0.00, -1.00, 994.2, 251.0)">,</text><text xml:space="preserve" font-family="Menlo-Regular" font-size="64.0" fill="#858585" transform="matrix(1.00, 0.00, -0.00, -1.00, 1032.8, 251.0)"> </text><text xml:space="preserve" font-family="Menlo-Regular" font-size="64.0" fill="#858585" transform="matrix(1.00, 0.00, -0.00, -1.00, 1071.3, 251.0)">s</text><text xml:space="preserve" font-family="Menlo-Regular" font-size="64.0" fill="#858585" transform="matrix(1.00, 0.00, -0.00, -1.00, 1109.8, 251.0)">t</text><text xml:space="preserve" font-family="Menlo-Regular" font-size="64.0" fill="#858585" transform="matrix(1.00, 0.00, -0.00, -1.00, 1148.4, 251.0)">o</text><text xml:space="preserve" font-family="Menlo-Regular" font-size="64.0" fill="#858585" transform="matrix(1.00, 0.00, -0.00, -1.00, 1186.9, 251.0)">r</text><text xml:space="preserve" font-family="Menlo-Regular" font-size="64.0" fill="#858585" transform="matrix(1.00, 0.00, -0.00, -1.00, 1225.4, 251.0)">i</text><text xml:space="preserve" font-family="Menlo-Regular" font-size="64.0" fill="#858585" transform="matrix(1.00, 0.00, -0.00, -1.00, 1264.0, 251.0)">e</text><text xml:space="preserve" font-family="Menlo-Regular" font-size="64.0" fill="#858585" transform="matrix(1.00, 0.00, -0.00, -1.00, 1302.5, 251.0)">s</text></g></svg>