<?xml version="1.0" encoding="UTF-8" standalone="no"?><svg xmlns="http://www.w3.org/2000/svg" xmlns:xlink="http://www.w3.org/1999/xlink" clip-rule="evenodd" stroke-miterlimit="4.00" viewBox="0 0 598 90"><desc>SVG generated by Keynote</desc><defs></defs><g transform="matrix(1.00, 0.00, -0.00, -1.00, 0.0, 90.0)"><text xml:space="preserve" font-family="Menlo-Regular" font-size="112.0" fill="#45A6DE" transform="matrix(1.00, 0.00, -0.00, -1.00, -6.0, 3.0)">t</text><text xml:space="preserve" font-family="Menlo-Regular" font-size="112.0" fill="#45A6DE" transform="matrix(1.00, 0.00, -0.00, -1.00, 61.4, 3.0)">r</text><text xml:space="preserve" font-family="Menlo-Regular" font-size="112.0" fill="#45A6DE" transform="matrix(1.00, 0.00, -0.00, -1.00, 128.9, 3.0)">a</text><text xml:space="preserve" font-family="Menlo-Regular" font-size="112.0" fill="#45A6DE" transform="matrix(1.00, 0.00, -0.00, -1.00, 196.3, 3.0)">v</text><text xml:space="preserve" font-family="Menlo-Regular" font-size="112.0" fill="#45A6DE" transform="matrix(1.00, 0.00, -0.00, -1.00, 263.8, 3.0)">i</text><text xml:space="preserve" font-family="Menlo-Regular" font-size="112.0" fill="#45A6DE" transform="matrix(1.00, 0.00, -0.00, -1.00, 331.2, 3.0)">s</text><text xml:space="preserve" font-family="Menlo-Regular" font-size="112.0" fill="#45A6DE" transform="matrix(1.00, 0.00, -0.00, -1.00, 398.6, 3.0)"> </text><text xml:space="preserve" font-family="Menlo-Regular" font-size="112.0" fill="#45A6DE" transform="matrix(1.00, 0.00, -0.00, -1.00, 466.1, 3.0)">c</text><text xml:space="preserve" font-family="Menlo-Regular" font-size="112.0" fill="#45A6DE" transform="matrix(1.00, 0.00, -0.00, -1.00, 533.5, 3.0)">i</text></g></svg>