<?xml version="1.0" encoding="UTF-8" standalone="no"?><svg xmlns="http://www.w3.org/2000/svg" xmlns:xlink="http://www.w3.org/1999/xlink" clip-rule="evenodd" stroke-miterlimit="4.00" viewBox="0 0 1920 1080"><desc>SVG generated by Keynote</desc><defs></defs><g transform="matrix(1.00, 0.00, -0.00, -1.00, 0.0, 1080.0)"><g><clipPath id="clip-76"><path d="M 0.0 1080.0 L 1920.0 1080.0 L 1920.0 0.0 L 0.0 0.0 Z M 0.0 1080.0 "></path></clipPath><g clip-path="url(#clip-76)"><image xlink:href="../../1666277D-D3DF-4E49-BA3E-8D52C1CD64F2/assets/1FDA5CC772C925BAEF499BC77EF4DAF8.jpeg" width="1365.00" height="767.00" transform="matrix(1.41, 0.00, -0.00, -1.41, 0.0, 1080.0)"></image></g></g><g><clipPath id="clip-77"><path d="M 1045.0 773.0 L 1732.0 773.0 L 1732.0 140.0 L 1045.0 140.0 Z M 1045.0 773.0 "></path></clipPath><g clip-path="url(#clip-77)"><image xlink:href="../../96DFF7F8-24C2-40D9-9E52-C0C6C1A428F1/assets/CFA39DAF675A6EC32BA4D94DBD1586FA.png" width="501.00" height="497.00" transform="matrix(1.10, 0.00, -0.00, -1.10, 1114.0, 729.0)"></image></g></g><text xml:space="preserve" font-family="Menlo-Regular" font-size="112.0" fill="#45A6DE" transform="matrix(1.00, 0.00, -0.00, -1.00, 657.0, 878.0)">t</text><text xml:space="preserve" font-family="Menlo-Regular" font-size="112.0" fill="#45A6DE" transform="matrix(1.00, 0.00, -0.00, -1.00, 724.4, 878.0)">r</text><text xml:space="preserve" font-family="Menlo-Regular" font-size="112.0" fill="#45A6DE" transform="matrix(1.00, 0.00, -0.00, -1.00, 791.9, 878.0)">a</text><text xml:space="preserve" font-family="Menlo-Regular" font-size="112.0" fill="#45A6DE" transform="matrix(1.00, 0.00, -0.00, -1.00, 859.3, 878.0)">v</text><text xml:space="preserve" font-family="Menlo-Regular" font-size="112.0" fill="#45A6DE" transform="matrix(1.00, 0.00, -0.00, -1.00, 926.8, 878.0)">i</text><text xml:space="preserve" font-family="Menlo-Regular" font-size="112.0" fill="#45A6DE" transform="matrix(1.00, 0.00, -0.00, -1.00, 994.2, 878.0)">s</text><text xml:space="preserve" font-family="Menlo-Regular" font-size="112.0" fill="#45A6DE" transform="matrix(1.00, 0.00, -0.00, -1.00, 1061.6, 878.0)"> </text><text xml:space="preserve" font-family="Menlo-Regular" font-size="112.0" fill="#45A6DE" transform="matrix(1.00, 0.00, -0.00, -1.00, 1129.1, 878.0)">c</text><text xml:space="preserve" font-family="Menlo-Regular" font-size="112.0" fill="#45A6DE" transform="matrix(1.00, 0.00, -0.00, -1.00, 1196.5, 878.0)">i</text><g><clipPath id="clip-78"><path d="M 192.0 663.6 L 223.2 663.6 L 223.2 692.7 L 192.0 692.7 Z M 192.0 663.6 "></path></clipPath><g clip-path="url(#clip-78)"><path d="M 222.7 674.0 C 223.0 673.6 223.2 673.1 223.2 672.6 C 223.2 671.7 222.7 670.8 221.6 670.0 C 220.6 669.2 219.4 668.9 218.2 668.9 C 216.4 668.9 214.5 670.1 212.2 672.6 C 212.2 672.6 212.2 668.9 212.2 668.9 C 212.2 668.5 212.3 668.0 212.5 667.5 C 212.7 667.0 212.8 666.6 212.8 666.4 C 212.8 665.6 212.4 664.9 211.6 664.4 C 210.8 663.8 210.0 663.6 209.3 663.6 C 207.8 663.6 206.6 664.2 205.6 665.4 C 205.3 665.7 205.2 666.8 205.3 668.4 C 205.4 670.1 205.5 671.8 205.6 673.5 C 204.7 672.9 203.1 672.0 200.6 670.7 C 200.3 670.2 199.3 669.7 197.7 669.1 C 196.5 669.0 195.2 669.2 193.9 669.8 C 192.6 670.4 192.0 671.2 192.0 672.1 C 192.0 672.4 192.1 672.6 192.2 672.9 C 192.4 673.4 192.9 673.8 193.7 674.1 C 195.0 674.5 195.7 674.7 195.9 674.8 C 195.9 674.8 202.7 678.6 202.7 678.6 C 202.7 678.6 197.9 680.9 197.9 680.9 C 197.1 680.9 196.2 681.3 195.0 681.9 C 194.8 682.3 194.7 682.7 194.7 683.1 C 194.7 684.3 195.3 685.4 196.7 686.5 C 198.1 687.6 199.5 688.2 200.9 688.2 C 201.3 688.2 201.8 688.1 202.2 687.9 C 202.7 687.8 203.1 687.4 203.5 686.7 C 203.9 685.9 204.6 685.1 205.6 684.5 C 205.6 684.5 205.8 688.9 205.8 688.9 C 205.6 689.5 205.6 690.4 205.8 691.6 C 206.3 692.3 207.6 692.7 209.5 692.7 C 211.3 692.7 212.5 692.1 213.1 691.1 C 213.3 690.7 213.4 689.7 213.2 688.1 C 213.1 686.7 212.9 685.3 212.7 683.9 C 212.7 683.9 215.3 685.2 215.3 685.2 C 215.8 685.7 216.7 686.3 218.2 686.9 C 219.1 687.0 220.1 686.6 221.0 685.7 C 222.0 684.9 222.5 684.0 222.5 683.0 C 222.5 682.6 222.3 682.2 222.1 681.9 C 221.9 681.5 221.4 681.2 220.8 681.1 C 220.0 680.9 219.5 680.8 219.3 680.6 C 219.3 680.6 215.5 677.9 215.5 677.9 C 215.5 677.9 220.4 675.3 220.4 675.3 C 221.0 675.1 221.8 674.7 222.7 674.0 Z M 222.7 674.0 " fill="#3995D6"></path></g></g><text xml:space="preserve" font-family="Menlo-Regular" font-size="50.0" fill="#858585" transform="matrix(1.00, 0.00, -0.00, -1.00, 245.0, 661.0)">l</text><text xml:space="preserve" font-family="Menlo-Regular" font-size="50.0" fill="#858585" transform="matrix(1.00, 0.00, -0.00, -1.00, 275.1, 661.0)">o</text><text xml:space="preserve" font-family="Menlo-Regular" font-size="50.0" fill="#858585" transform="matrix(1.00, 0.00, -0.00, -1.00, 305.2, 661.0)">o</text><text xml:space="preserve" font-family="Menlo-Regular" font-size="50.0" fill="#858585" transform="matrix(1.00, 0.00, -0.00, -1.00, 335.3, 661.0)">k</text><text xml:space="preserve" font-family="Menlo-Regular" font-size="50.0" fill="#858585" transform="matrix(1.00, 0.00, -0.00, -1.00, 365.4, 661.0)"> </text><text xml:space="preserve" font-family="Menlo-Regular" font-size="50.0" fill="#858585" transform="matrix(1.00, 0.00, -0.00, -1.00, 395.5, 661.0)">a</text><text xml:space="preserve" font-family="Menlo-Regular" font-size="50.0" fill="#858585" transform="matrix(1.00, 0.00, -0.00, -1.00, 425.6, 661.0)">t</text><text xml:space="preserve" font-family="Menlo-Regular" font-size="50.0" fill="#858585" transform="matrix(1.00, 0.00, -0.00, -1.00, 455.8, 661.0)"> </text><text xml:space="preserve" font-family="Menlo-Regular" font-size="50.0" fill="#858585" transform="matrix(1.00, 0.00, -0.00, -1.00, 485.9, 661.0)">t</text><text xml:space="preserve" font-family="Menlo-Regular" font-size="50.0" fill="#858585" transform="matrix(1.00, 0.00, -0.00, -1.00, 516.0, 661.0)">h</text><text xml:space="preserve" font-family="Menlo-Regular" font-size="50.0" fill="#858585" transform="matrix(1.00, 0.00, -0.00, -1.00, 546.1, 661.0)">i</text><text xml:space="preserve" font-family="Menlo-Regular" font-size="50.0" fill="#858585" transform="matrix(1.00, 0.00, -0.00, -1.00, 576.2, 661.0)">s</text><text xml:space="preserve" font-family="Menlo-Regular" font-size="50.0" fill="#858585" transform="matrix(1.00, 0.00, -0.00, -1.00, 606.3, 661.0)"> </text><text xml:space="preserve" font-family="Menlo-Regular" font-size="50.0" fill="#858585" transform="matrix(1.00, 0.00, -0.00, -1.00, 636.4, 661.0)">g</text><text xml:space="preserve" font-family="Menlo-Regular" font-size="50.0" fill="#858585" transform="matrix(1.00, 0.00, -0.00, -1.00, 666.5, 661.0)">u</text><text xml:space="preserve" font-family="Menlo-Regular" font-size="50.0" fill="#858585" transform="matrix(1.00, 0.00, -0.00, -1.00, 696.6, 661.0)">y</text><text xml:space="preserve" font-family="Menlo-Regular" font-size="50.0" fill="#858585" transform="matrix(1.00, 0.00, -0.00, -1.00, 726.7, 661.0)"> </text><text xml:space="preserve" font-family="Menlo-Regular" font-size="50.0" fill="#858585" transform="matrix(1.00, 0.00, -0.00, -1.00, 756.8, 661.0)">=</text><text xml:space="preserve" font-family="Menlo-Regular" font-size="50.0" fill="#858585" transform="matrix(1.00, 0.00, -0.00, -1.00, 786.9, 661.0)">&gt;</text><g><clipPath id="clip-79"><path d="M 192.0 552.6 L 223.2 552.6 L 223.2 581.7 L 192.0 581.7 Z M 192.0 552.6 "></path></clipPath><g clip-path="url(#clip-79)"><path d="M 222.7 563.0 C 223.0 562.6 223.2 562.1 223.2 561.6 C 223.2 560.7 222.7 559.8 221.6 559.0 C 220.6 558.2 219.4 557.9 218.2 557.9 C 216.4 557.9 214.5 559.1 212.2 561.6 C 212.2 561.6 212.2 557.9 212.2 557.9 C 212.2 557.5 212.3 557.0 212.5 556.5 C 212.7 556.0 212.8 555.6 212.8 555.4 C 212.8 554.6 212.4 553.9 211.6 553.4 C 210.8 552.8 210.0 552.6 209.3 552.6 C 207.8 552.6 206.6 553.2 205.6 554.4 C 205.3 554.7 205.2 555.8 205.3 557.4 C 205.4 559.1 205.5 560.8 205.6 562.5 C 204.7 561.9 203.1 561.0 200.6 559.7 C 200.3 559.2 199.3 558.7 197.7 558.1 C 196.5 558.0 195.2 558.2 193.9 558.8 C 192.6 559.4 192.0 560.2 192.0 561.1 C 192.0 561.4 192.1 561.6 192.2 561.9 C 192.4 562.4 192.9 562.8 193.7 563.1 C 195.0 563.5 195.7 563.7 195.9 563.8 C 195.9 563.8 202.7 567.6 202.7 567.6 C 202.7 567.6 197.9 569.9 197.9 569.9 C 197.1 569.9 196.2 570.3 195.0 570.9 C 194.8 571.3 194.7 571.7 194.7 572.1 C 194.7 573.3 195.3 574.4 196.7 575.5 C 198.1 576.6 199.5 577.2 200.9 577.2 C 201.3 577.2 201.8 577.1 202.2 576.9 C 202.7 576.8 203.1 576.4 203.5 575.7 C 203.9 574.9 204.6 574.1 205.6 573.5 C 205.6 573.5 205.8 577.9 205.8 577.9 C 205.6 578.5 205.6 579.4 205.8 580.6 C 206.3 581.3 207.6 581.7 209.5 581.7 C 211.3 581.7 212.5 581.1 213.1 580.1 C 213.3 579.7 213.4 578.7 213.2 577.1 C 213.1 575.7 212.9 574.3 212.7 572.9 C 212.7 572.9 215.3 574.2 215.3 574.2 C 215.8 574.7 216.7 575.3 218.2 575.9 C 219.1 576.0 220.1 575.6 221.0 574.7 C 222.0 573.9 222.5 573.0 222.5 572.0 C 222.5 571.6 222.3 571.2 222.1 570.9 C 221.9 570.5 221.4 570.2 220.8 570.1 C 220.0 569.9 219.5 569.8 219.3 569.6 C 219.3 569.6 215.5 566.9 215.5 566.9 C 215.5 566.9 220.4 564.3 220.4 564.3 C 221.0 564.1 221.8 563.7 222.7 563.0 Z M 222.7 563.0 " fill="#3995D6"></path></g></g><text xml:space="preserve" font-family="Menlo-Regular" font-size="50.0" fill="#858585" transform="matrix(1.00, 0.00, -0.00, -1.00, 245.0, 550.0)">c</text><text xml:space="preserve" font-family="Menlo-Regular" font-size="50.0" fill="#858585" transform="matrix(1.00, 0.00, -0.00, -1.00, 275.1, 550.0)">l</text><text xml:space="preserve" font-family="Menlo-Regular" font-size="50.0" fill="#858585" transform="matrix(1.00, 0.00, -0.00, -1.00, 305.2, 550.0)">o</text><text xml:space="preserve" font-family="Menlo-Regular" font-size="50.0" fill="#858585" transform="matrix(1.00, 0.00, -0.00, -1.00, 335.3, 550.0)">u</text><text xml:space="preserve" font-family="Menlo-Regular" font-size="50.0" fill="#858585" transform="matrix(1.00, 0.00, -0.00, -1.00, 365.4, 550.0)">d</text><text xml:space="preserve" font-family="Menlo-Regular" font-size="50.0" fill="#858585" transform="matrix(1.00, 0.00, -0.00, -1.00, 395.5, 550.0)"> </text><text xml:space="preserve" font-family="Menlo-Regular" font-size="50.0" fill="#858585" transform="matrix(1.00, 0.00, -0.00, -1.00, 425.6, 550.0)">b</text><text xml:space="preserve" font-family="Menlo-Regular" font-size="50.0" fill="#858585" transform="matrix(1.00, 0.00, -0.00, -1.00, 455.8, 550.0)">a</text><text xml:space="preserve" font-family="Menlo-Regular" font-size="50.0" fill="#858585" transform="matrix(1.00, 0.00, -0.00, -1.00, 485.9, 550.0)">s</text><text xml:space="preserve" font-family="Menlo-Regular" font-size="50.0" fill="#858585" transform="matrix(1.00, 0.00, -0.00, -1.00, 516.0, 550.0)">e</text><text xml:space="preserve" font-family="Menlo-Regular" font-size="50.0" fill="#858585" transform="matrix(1.00, 0.00, -0.00, -1.00, 546.1, 550.0)">d</text><g><clipPath id="clip-80"><path d="M 192.0 441.6 L 223.2 441.6 L 223.2 470.7 L 192.0 470.7 Z M 192.0 441.6 "></path></clipPath><g clip-path="url(#clip-80)"><path d="M 222.7 452.0 C 223.0 451.6 223.2 451.1 223.2 450.6 C 223.2 449.7 222.7 448.8 221.6 448.0 C 220.6 447.2 219.4 446.9 218.2 446.9 C 216.4 446.9 214.5 448.1 212.2 450.6 C 212.2 450.6 212.2 446.9 212.2 446.9 C 212.2 446.5 212.3 446.0 212.5 445.5 C 212.7 445.0 212.8 444.6 212.8 444.4 C 212.8 443.6 212.4 442.9 211.6 442.4 C 210.8 441.8 210.0 441.6 209.3 441.6 C 207.8 441.6 206.6 442.2 205.6 443.4 C 205.3 443.7 205.2 444.8 205.3 446.4 C 205.4 448.1 205.5 449.8 205.6 451.5 C 204.7 450.9 203.1 450.0 200.6 448.7 C 200.3 448.2 199.3 447.7 197.7 447.1 C 196.5 447.0 195.2 447.2 193.9 447.8 C 192.6 448.4 192.0 449.2 192.0 450.2 C 192.0 450.4 192.1 450.6 192.2 450.9 C 192.4 451.4 192.9 451.8 193.7 452.1 C 195.0 452.5 195.7 452.7 195.9 452.8 C 195.9 452.8 202.7 456.6 202.7 456.6 C 202.7 456.6 197.9 458.9 197.9 458.9 C 197.1 458.9 196.2 459.3 195.0 459.9 C 194.8 460.3 194.7 460.7 194.7 461.1 C 194.7 462.3 195.3 463.4 196.7 464.5 C 198.1 465.6 199.5 466.2 200.9 466.2 C 201.3 466.2 201.8 466.1 202.2 465.9 C 202.7 465.8 203.1 465.4 203.5 464.7 C 203.9 463.9 204.6 463.1 205.6 462.5 C 205.6 462.5 205.8 466.9 205.8 466.9 C 205.6 467.5 205.6 468.4 205.8 469.6 C 206.3 470.3 207.6 470.7 209.5 470.7 C 211.3 470.7 212.5 470.1 213.1 469.1 C 213.3 468.7 213.4 467.7 213.2 466.1 C 213.1 464.7 212.9 463.3 212.7 461.9 C 212.7 461.9 215.3 463.2 215.3 463.2 C 215.8 463.7 216.7 464.3 218.2 464.9 C 219.1 465.0 220.1 464.6 221.0 463.7 C 222.0 462.9 222.5 462.0 222.5 461.0 C 222.5 460.6 222.3 460.2 222.1 459.9 C 221.9 459.5 221.4 459.2 220.8 459.1 C 220.0 458.9 219.5 458.8 219.3 458.6 C 219.3 458.6 215.5 455.9 215.5 455.9 C 215.5 455.9 220.4 453.3 220.4 453.3 C 221.0 453.1 221.8 452.7 222.7 452.0 Z M 222.7 452.0 " fill="#3995D6"></path></g></g><text xml:space="preserve" font-family="Menlo-Regular" font-size="50.0" fill="#858585" transform="matrix(1.00, 0.00, -0.00, -1.00, 245.0, 439.0)">e</text><text xml:space="preserve" font-family="Menlo-Regular" font-size="50.0" fill="#858585" transform="matrix(1.00, 0.00, -0.00, -1.00, 275.1, 439.0)">a</text><text xml:space="preserve" font-family="Menlo-Regular" font-size="50.0" fill="#858585" transform="matrix(1.00, 0.00, -0.00, -1.00, 305.2, 439.0)">s</text><text xml:space="preserve" font-family="Menlo-Regular" font-size="50.0" fill="#858585" transform="matrix(1.00, 0.00, -0.00, -1.00, 335.3, 439.0)">y</text><text xml:space="preserve" font-family="Menlo-Regular" font-size="50.0" fill="#858585" transform="matrix(1.00, 0.00, -0.00, -1.00, 365.4, 439.0)"> </text><text xml:space="preserve" font-family="Menlo-Regular" font-size="50.0" fill="#858585" transform="matrix(1.00, 0.00, -0.00, -1.00, 395.5, 439.0)">y</text><text xml:space="preserve" font-family="Menlo-Regular" font-size="50.0" fill="#858585" transform="matrix(1.00, 0.00, -0.00, -1.00, 425.6, 439.0)">a</text><text xml:space="preserve" font-family="Menlo-Regular" font-size="50.0" fill="#858585" transform="matrix(1.00, 0.00, -0.00, -1.00, 455.8, 439.0)">m</text><text xml:space="preserve" font-family="Menlo-Regular" font-size="50.0" fill="#858585" transform="matrix(1.00, 0.00, -0.00, -1.00, 485.9, 439.0)">l</text><text xml:space="preserve" font-family="Menlo-Regular" font-size="50.0" fill="#858585" transform="matrix(1.00, 0.00, -0.00, -1.00, 516.0, 439.0)"> </text><text xml:space="preserve" font-family="Menlo-Regular" font-size="50.0" fill="#858585" transform="matrix(1.00, 0.00, -0.00, -1.00, 546.1, 439.0)">c</text><text xml:space="preserve" font-family="Menlo-Regular" font-size="50.0" fill="#858585" transform="matrix(1.00, 0.00, -0.00, -1.00, 576.2, 439.0)">o</text><text xml:space="preserve" font-family="Menlo-Regular" font-size="50.0" fill="#858585" transform="matrix(1.00, 0.00, -0.00, -1.00, 606.3, 439.0)">n</text><text xml:space="preserve" font-family="Menlo-Regular" font-size="50.0" fill="#858585" transform="matrix(1.00, 0.00, -0.00, -1.00, 636.4, 439.0)">f</text><text xml:space="preserve" font-family="Menlo-Regular" font-size="50.0" fill="#858585" transform="matrix(1.00, 0.00, -0.00, -1.00, 666.5, 439.0)">i</text><text xml:space="preserve" font-family="Menlo-Regular" font-size="50.0" fill="#858585" transform="matrix(1.00, 0.00, -0.00, -1.00, 696.6, 439.0)">g</text><g><clipPath id="clip-81"><path d="M 192.0 330.6 L 223.2 330.6 L 223.2 359.7 L 192.0 359.7 Z M 192.0 330.6 "></path></clipPath><g clip-path="url(#clip-81)"><path d="M 222.7 341.0 C 223.0 340.6 223.2 340.1 223.2 339.6 C 223.2 338.7 222.7 337.8 221.6 337.0 C 220.6 336.2 219.4 335.9 218.2 335.9 C 216.4 335.9 214.5 337.1 212.2 339.6 C 212.2 339.6 212.2 335.9 212.2 335.9 C 212.2 335.5 212.3 335.0 212.5 334.5 C 212.7 334.0 212.8 333.6 212.8 333.4 C 212.8 332.6 212.4 331.9 211.6 331.4 C 210.8 330.8 210.0 330.6 209.3 330.6 C 207.8 330.6 206.6 331.2 205.6 332.4 C 205.3 332.7 205.2 333.8 205.3 335.4 C 205.4 337.1 205.5 338.8 205.6 340.5 C 204.7 339.9 203.1 339.0 200.6 337.7 C 200.3 337.2 199.3 336.7 197.7 336.1 C 196.5 336.0 195.2 336.2 193.9 336.8 C 192.6 337.4 192.0 338.2 192.0 339.2 C 192.0 339.4 192.1 339.6 192.2 339.9 C 192.4 340.4 192.9 340.8 193.7 341.1 C 195.0 341.5 195.7 341.7 195.9 341.8 C 195.9 341.8 202.7 345.6 202.7 345.6 C 202.7 345.6 197.9 347.9 197.9 347.9 C 197.1 347.9 196.2 348.3 195.0 348.9 C 194.8 349.3 194.7 349.7 194.7 350.1 C 194.7 351.3 195.3 352.4 196.7 353.5 C 198.1 354.6 199.5 355.2 200.9 355.2 C 201.3 355.2 201.8 355.1 202.2 354.9 C 202.7 354.8 203.1 354.4 203.5 353.7 C 203.9 352.9 204.6 352.1 205.6 351.5 C 205.6 351.5 205.8 355.9 205.8 355.9 C 205.6 356.5 205.6 357.4 205.8 358.6 C 206.3 359.3 207.6 359.7 209.5 359.7 C 211.3 359.7 212.5 359.1 213.1 358.1 C 213.3 357.7 213.4 356.7 213.2 355.1 C 213.1 353.7 212.9 352.3 212.7 350.9 C 212.7 350.9 215.3 352.2 215.3 352.2 C 215.8 352.7 216.7 353.3 218.2 353.9 C 219.1 354.0 220.1 353.6 221.0 352.7 C 222.0 351.9 222.5 351.0 222.5 350.0 C 222.5 349.6 222.3 349.2 222.1 348.9 C 221.9 348.5 221.4 348.2 220.8 348.1 C 220.0 347.9 219.5 347.8 219.3 347.6 C 219.3 347.6 215.5 344.9 215.5 344.9 C 215.5 344.9 220.4 342.3 220.4 342.3 C 221.0 342.1 221.8 341.7 222.7 341.0 Z M 222.7 341.0 " fill="#3995D6"></path></g></g><text xml:space="preserve" font-family="Menlo-Regular" font-size="50.0" fill="#858585" transform="matrix(1.00, 0.00, -0.00, -1.00, 245.0, 328.0)">s</text><text xml:space="preserve" font-family="Menlo-Regular" font-size="50.0" fill="#858585" transform="matrix(1.00, 0.00, -0.00, -1.00, 275.1, 328.0)">u</text><text xml:space="preserve" font-family="Menlo-Regular" font-size="50.0" fill="#858585" transform="matrix(1.00, 0.00, -0.00, -1.00, 305.2, 328.0)">p</text><text xml:space="preserve" font-family="Menlo-Regular" font-size="50.0" fill="#858585" transform="matrix(1.00, 0.00, -0.00, -1.00, 335.3, 328.0)">p</text><text xml:space="preserve" font-family="Menlo-Regular" font-size="50.0" fill="#858585" transform="matrix(1.00, 0.00, -0.00, -1.00, 365.4, 328.0)">o</text><text xml:space="preserve" font-family="Menlo-Regular" font-size="50.0" fill="#858585" transform="matrix(1.00, 0.00, -0.00, -1.00, 395.5, 328.0)">r</text><text xml:space="preserve" font-family="Menlo-Regular" font-size="50.0" fill="#858585" transform="matrix(1.00, 0.00, -0.00, -1.00, 425.6, 328.0)">t</text><text xml:space="preserve" font-family="Menlo-Regular" font-size="50.0" fill="#858585" transform="matrix(1.00, 0.00, -0.00, -1.00, 455.8, 328.0)">s</text><text xml:space="preserve" font-family="Menlo-Regular" font-size="50.0" fill="#858585" transform="matrix(1.00, 0.00, -0.00, -1.00, 485.9, 328.0)"> </text><text xml:space="preserve" font-family="Menlo-Regular" font-size="50.0" fill="#858585" transform="matrix(1.00, 0.00, -0.00, -1.00, 516.0, 328.0)">d</text><text xml:space="preserve" font-family="Menlo-Regular" font-size="50.0" fill="#858585" transform="matrix(1.00, 0.00, -0.00, -1.00, 546.1, 328.0)">o</text><text xml:space="preserve" font-family="Menlo-Regular" font-size="50.0" fill="#858585" transform="matrix(1.00, 0.00, -0.00, -1.00, 576.2, 328.0)">c</text><text xml:space="preserve" font-family="Menlo-Regular" font-size="50.0" fill="#858585" transform="matrix(1.00, 0.00, -0.00, -1.00, 606.3, 328.0)">k</text><text xml:space="preserve" font-family="Menlo-Regular" font-size="50.0" fill="#858585" transform="matrix(1.00, 0.00, -0.00, -1.00, 636.4, 328.0)">e</text><text xml:space="preserve" font-family="Menlo-Regular" font-size="50.0" fill="#858585" transform="matrix(1.00, 0.00, -0.00, -1.00, 666.5, 328.0)">r</text><g><clipPath id="clip-82"><path d="M 192.0 219.6 L 223.2 219.6 L 223.2 248.7 L 192.0 248.7 Z M 192.0 219.6 "></path></clipPath><g clip-path="url(#clip-82)"><path d="M 222.7 230.0 C 223.0 229.6 223.2 229.1 223.2 228.6 C 223.2 227.7 222.7 226.8 221.6 226.0 C 220.6 225.2 219.4 224.8 218.2 224.8 C 216.4 224.8 214.5 226.1 212.2 228.6 C 212.2 228.6 212.2 224.9 212.2 224.9 C 212.2 224.5 212.3 224.0 212.5 223.5 C 212.7 223.0 212.8 222.6 212.8 222.4 C 212.8 221.6 212.4 220.9 211.6 220.4 C 210.8 219.8 210.0 219.6 209.3 219.6 C 207.8 219.6 206.6 220.2 205.6 221.4 C 205.3 221.7 205.2 222.8 205.3 224.4 C 205.4 226.1 205.5 227.8 205.6 229.5 C 204.7 228.9 203.1 228.0 200.6 226.7 C 200.3 226.2 199.3 225.7 197.7 225.1 C 196.5 225.0 195.2 225.2 193.9 225.8 C 192.6 226.4 192.0 227.2 192.0 228.2 C 192.0 228.4 192.1 228.6 192.2 228.9 C 192.4 229.4 192.9 229.8 193.7 230.1 C 195.0 230.5 195.7 230.7 195.9 230.8 C 195.9 230.8 202.7 234.6 202.7 234.6 C 202.7 234.6 197.9 236.9 197.9 236.9 C 197.1 236.9 196.2 237.3 195.0 237.9 C 194.8 238.3 194.7 238.7 194.7 239.1 C 194.7 240.3 195.3 241.4 196.7 242.5 C 198.1 243.6 199.5 244.2 200.9 244.2 C 201.3 244.2 201.8 244.1 202.2 243.9 C 202.7 243.8 203.1 243.4 203.5 242.7 C 203.9 241.9 204.6 241.1 205.6 240.5 C 205.6 240.5 205.8 244.9 205.8 244.9 C 205.6 245.5 205.6 246.4 205.8 247.6 C 206.3 248.3 207.6 248.7 209.5 248.7 C 211.3 248.7 212.5 248.1 213.1 247.1 C 213.3 246.7 213.4 245.7 213.2 244.1 C 213.1 242.7 212.9 241.3 212.7 239.9 C 212.7 239.9 215.3 241.2 215.3 241.2 C 215.8 241.7 216.7 242.3 218.2 242.9 C 219.1 243.0 220.1 242.6 221.0 241.7 C 222.0 240.9 222.5 240.0 222.5 239.0 C 222.5 238.6 222.3 238.2 222.1 237.9 C 221.9 237.5 221.4 237.2 220.8 237.1 C 220.0 236.9 219.5 236.8 219.3 236.6 C 219.3 236.6 215.5 233.9 215.5 233.9 C 215.5 233.9 220.4 231.3 220.4 231.3 C 221.0 231.1 221.8 230.7 222.7 230.0 Z M 222.7 230.0 " fill="#3995D6"></path></g></g><text xml:space="preserve" font-family="Menlo-Regular" font-size="50.0" fill="#858585" transform="matrix(1.00, 0.00, -0.00, -1.00, 245.0, 217.0)">m</text><text xml:space="preserve" font-family="Menlo-Regular" font-size="50.0" fill="#858585" transform="matrix(1.00, 0.00, -0.00, -1.00, 275.1, 217.0)">a</text><text xml:space="preserve" font-family="Menlo-Regular" font-size="50.0" fill="#858585" transform="matrix(1.00, 0.00, -0.00, -1.00, 305.2, 217.0)">n</text><text xml:space="preserve" font-family="Menlo-Regular" font-size="50.0" fill="#858585" transform="matrix(1.00, 0.00, -0.00, -1.00, 335.3, 217.0)">y</text><text xml:space="preserve" font-family="Menlo-Regular" font-size="50.0" fill="#858585" transform="matrix(1.00, 0.00, -0.00, -1.00, 365.4, 217.0)"> </text><text xml:space="preserve" font-family="Menlo-Regular" font-size="50.0" fill="#858585" transform="matrix(1.00, 0.00, -0.00, -1.00, 395.5, 217.0)">l</text><text xml:space="preserve" font-family="Menlo-Regular" font-size="50.0" fill="#858585" transform="matrix(1.00, 0.00, -0.00, -1.00, 425.6, 217.0)">a</text><text xml:space="preserve" font-family="Menlo-Regular" font-size="50.0" fill="#858585" transform="matrix(1.00, 0.00, -0.00, -1.00, 455.8, 217.0)">n</text><text xml:space="preserve" font-family="Menlo-Regular" font-size="50.0" fill="#858585" transform="matrix(1.00, 0.00, -0.00, -1.00, 485.9, 217.0)">g</text><text xml:space="preserve" font-family="Menlo-Regular" font-size="50.0" fill="#858585" transform="matrix(1.00, 0.00, -0.00, -1.00, 516.0, 217.0)">u</text><text xml:space="preserve" font-family="Menlo-Regular" font-size="50.0" fill="#858585" transform="matrix(1.00, 0.00, -0.00, -1.00, 546.1, 217.0)">a</text><text xml:space="preserve" font-family="Menlo-Regular" font-size="50.0" fill="#858585" transform="matrix(1.00, 0.00, -0.00, -1.00, 576.2, 217.0)">g</text><text xml:space="preserve" font-family="Menlo-Regular" font-size="50.0" fill="#858585" transform="matrix(1.00, 0.00, -0.00, -1.00, 606.3, 217.0)">e</text><text xml:space="preserve" font-family="Menlo-Regular" font-size="50.0" fill="#858585" transform="matrix(1.00, 0.00, -0.00, -1.00, 636.4, 217.0)">s</text></g></svg>